<?xml version="1.0" encoding="UTF-8"?><svg id="Layer_1" xmlns="http://www.w3.org/2000/svg" viewBox="0 0 431.52 250"><defs><style>.cls-1{fill:#fff;}.cls-2{fill:#eab747;}</style></defs><path class="cls-2" d="m341.57,84.92c-.39,1-.09,1.64.93,2.03,1,.38,1.86.93,2.81,1.42,2.12-.51,2.7-.45,4.38.64-3.17.28-6.02.54-9.3.83,1.51.88,3.2,1.26,3.89,2.64-2.01.66-3.99,1.3-6.04,1.97,3.9,1.27,7.76-.81,11.77-2.7l-.48,1.41c-1.35.74-2.89.56-3.98,1.86,1.18,1.06,2.77,1.37,5.01.63.43-.59.79-1.1,1.25-1.72,2.46-.73,4.79-.67,6.84-.44,1.48.17,2.7,1.11,3.48,2.05.43.52-.3,1.74-.51,2.69-2,.87-4.03,1.74-5.91,2.56-.82-.16-1.46-.28-2.1-.4-1.05.9-.96,1.44-.23,1.9.65.4,1.67.73,1.73,1.33.11,1.04.69,1.66,1.54,2.23.3.2.32.64.49,1.04-.62.44-1.12.83-1.66,1.17-1.81,1.16-1.91,1.34-1.53,3.01.64-.09,1.31-.18,2.16-.3.22,2.06,2.2,2.65,4.46,3.03.34.06.58.26,1.08.49-2.83.92-5.32,1.71-7.8,2.56-.63.21-1.22.59-1.8.87.15.48.23.77.33,1.09-2.26,1.01-4.14-.17-6.57,1.07.46.7.95,1.23,1.19,1.87.31.85,1.09,1.21,2.19,1.36.61.09,1.17.26,1.72.45.14.05.13.28.19.43-.4.37-.77.73-1.27,1.21.29.35.44.79.85.99,1.28.63,2.6,1.15,2.5,2.72-.03.43.81.75,1.38.98.58.23,1.33.28,2,.41,1.75.34,2.82,1.31,4.37,2.14-2.19.71-4.02,1.3-5.62,1.81-.4.99-.68,1.69-.98,2.43.8,1.12,1.62,2.27,2.55,3.57-3.56.4-7.01.78-10.56,1.18-.6,1.24-1.67,1.79-3.07,1.9-2.47.2-3.89,1.61-5.58,3.62,2.36-1.13,3.53-.78,4.36.22.3.36.98.49,1.45.77.38.22.68.51.96.72-1.02.63-1.87,1.16-2.8,1.73.6,1.11,1.1,2.05,1.59,2.98-1.04.53-2.15,1.11-3.54,1.82.65.87,1.17,1.56,1.66,2.25,1.34,1.89.98,2.64-2.04,4.3-.13.07-.21.21-.31.32-.81,2.76-.52,3.33,2.1,4.03.58.15,1.2.26,1.78.41.39.1.79.2,1.09.38.85.49.57,1.33-.65,1.86-.82.36-1.73.5-2.56.85-1.12.47-2.32.94-3.28,1.6-1.32.91-2.45,2-3.77,3.1-.27,1.01-.56,2.13-.91,3.47-1.47.35-2.77.68-4.06.95-2.15.46-4.3.88-6.7,1.36-3.13-.81-7.06-.44-10.97-.13-2.36.19-4.72.36-7.09.55-1.14.09-1.94-.19-2.61-.72-.43-.34-1.06-.79-1.68-.69-2.16.34-4.35.88-6.53,1.36-.91.2-1.82.52-2.73.69-1.16.22-2.31.31-3.47.51-1.48.24-2.97.56-4.44.8-3.11.5-6.22.98-9.32,1.43-1.32.19-2.63.33-3.93.43-2.89.22-5.75.29-8.67.62-3.61.41-7.31,1.18-10.74.9-.55-.04-1.23.18-1.85.25-.92.1-1.88.28-2.74.24-2.64-.1-5.19-.39-8.11.28-.51.12-1.01-.05-1.53-.06-4.78-.11-9.27-.91-14.42-.17-.61.09-1.19,0-1.77-.03-3.91-.26-7.8-.55-12.02-.08-.53.06-1.05.02-1.55-.02-4.38-.35-8.73-.75-13.14-1.05-2.37-.16-4.83-.15-7.27-.19-1.02-.01-2.14.16-3.12.07-4.48-.44-8.92-.95-13.39-1.41-.7-.07-1.46-.08-2.22-.02-2.34.17-4.77.57-7.01.54-2.27-.04-4.49-.09-6.86.07-2.7.18-5.23-.23-8.1.34-.3.06-.6.01-.9,0-1.63-.03-3.28,0-4.88-.09-3.98-.22-7.93-.49-11.89-.75-.35-.02-.64-.17-.98-.22-.82-.12-1.64-.22-2.47-.32-.62-.08-1.23-.18-1.88-.2-2.4-.06-4.37-.87-6.96-.65-2.51.21-4.88.08-6.19-1.45-.44-.51-1.14-.8-2.24-.19,0,.35,0,.6.01,1.17-2.61-.18-4.91-.34-7.36-.51,1.22-1.35,2.61-1.77,4.16-1.5.18-1.38.07-1.4-3.25-.57-.51.56-1.05,1.18-1.62,1.79-.54.59-1.2,1.09-2.06,1.04-1.36-.08-2.79-.09-3.99-.39-1.41-.36-2.8-.51-4.53.04-.67.21-1.35.38-1.98.56-.18-.29-.31-.51-.5-.83-.44.45-.78.79-1.07,1.09-2.77.33-3.11.09-2.34-1.85-.37-.21-.88-.5-1.28-.73.65-.76,1.87-.78,1.69-1.71-.05-.28,1.02-.89,1.41-1.39.14-.18-.23-.5-.33-.69-1.34.2-1.8,1.6-3.18,1.48.07-.4.14-.78.2-1.13-.75-.14-1.4-.26-2-.37.58-1.78,2.39-1.27,3.64-1.88-1.13-.55-2.14-1.04-3.22-1.56-.94.6-1.85,1.18-2.8,1.78-1.07-.96.43-2.12.61-3.01-1.06-.55-3.52,1.04-3.53-.78,1.7-1.33,3.45-.47,5.12-1.46-.34-.28-.63-.52-.98-.8,1.04-1,2.03-1.95,2.89-2.78-.29-2.1-3.26-.5-4.64-1.2,1.05-1.05,1.98-1.98,3.05-3.05-1.39-.08-2.44-.15-3.49-.21.48-1.85,2.42-2.74,4.25-4.01-2.15-.01-4.03-.02-6.02-.03.31-.49.46-.71.59-.92.87,0,1.7,0,2.52.01-1.37-1.12-3.43-1.18-5.36-1.32-.11-2.05,2.86-4.01,2.16-5.75,1.11-1.2,3.49-1.15,3.63-2.83q-2.43-.37-3.11-1.13c.22-.38.43-.75.59-1.03-.84-.39-1.54-.72-2.65-1.24.96-.37,1.5-.58,1.58-.61.83-2.07,1.51-3.77,2.23-5.57-.23-.26-.52-.57-.86-.95.57-.32,1.04-.58,1.71-.94-.6-.39-1.18-.77-1.78-1.16.85-.54,1.31-.83,1.89-1.19-.33-.54-.64-1.04-.93-1.51-.59.17-1.04.29-1.63.46-.38-1.05-1.61-1.65-1.81-3.15.89.27,1.36.41,1.77.53,1.98-.98.21-1.78,1.22-2.8.66-.21,1.47-.46,2.4-.74-.13-.54-.23-1.01-.29-1.27-.78-.5-1.37-.87-2.17-1.38,1.6-.4,2.73-.68,3.82-.95.44-1.65-1.58-.73-2.04-1.13.18-1.05.33-1.97.45-2.68-.9-.64-2.18-.61-2.43-1.6,1.49-.35,3-.47,3.99-1.98-1.38-.69-1.09-2.01-.41-3.48.44-.18.87-.35,1.23-.49-.23-.74-.17-1.66-.74-2.07-.61-.44-1.81-.4-3.14-.64,1.32-.33,2.22-.55,3.09-.77l.35-1.01c-1.15-.35-2.27-.68-3.57-1.07,1.34-.31,2.48-.58,4.06-.95-.46-.67-.79-1.15-1.21-1.77.86-.99,1.83-2.1,2.94-3.38,1.3-.11,2.62-.22,4.05-.34.06-.06.22-.21.36-.38.13-.16.23-.32.34-.49-1.44-2.55-5.12-2.18-8.49-2.26,1.72-.84,3.7-.21,5.21-2-.23-.28-.5-.59-.58-.68-1.48.32-2.64.58-3.99.87.27-.62.41-.96.59-1.39.74.09,1.34.16,1.93.23.09-.1.19-.19.28-.29-.82-.51-1.63-1.02-2.62-1.64.87-.53,1.65-1.01,2.52-1.54.25-1.02.51-2.07.79-3.19,1.31-.72,2.72-1.49,4.2-2.29-.51-.33-.85-.54-1.11-.7.4-.91.75-1.71,1.18-2.7.57-.41,1.34-.99,2.14-1.53.66-.44,1.36-1.03,2.06-1.23,2.71-.77,4.74-2.47,7.44-3.84-.81-.1-1.21-.15-1.62-.21l.05.05c1.55-.75,3.12-1.85,4.66-2.18,3.21-.69,6.42-1.73,9.65-1.61,4.01.15,8.3-.29,12.49-.54,1.44-.08,2.92-.27,4.4-.55,3.73-.7,7.11-.45,10.54-.34-.95.27-1.84.28-2.75.45-.72.13-1.46.46-2.19.69-1.6.22-3.2.21-5.03,1.21,1.17.66,2.66.22,4.15.22.32-.57.57-1.02.83-1.48,1.67.97,4.09.64,6.29.69.46,0,1.13-.22,1.59-.48,1.75-1,3.37-1.08,4.98-.93,1.64.15,3.25.34,5.1.54.94-.4,2.12-.89,3.8-1.6-1.64-.21-2.75-.35-4.15-.53,2.27-.71,3.86-.55,5.44-.24,3.25.64,6.54,1.08,10.6-.51,1.93-.75,4.02-1.07,5.65-.57,3.08.94,6.5.9,10.3-.02,1.89-.46,3.55-.4,4.88.26.71.36,1.5.36,2.53.1,2.3-.58,4.51-.8,6.64-.64.98.08,2.11-.14,3.18-.22.68-.05,1.4-.16,2.04-.12,2.24.15,4.52.25,6.65.57,3.75.57,7.92.16,11.86.27.28,0,.62-.12.93-.14.98-.09,1.96-.2,2.92-.22,1.57-.03,3.12,0,4.67,0,1.48.01,2.98-.02,4.43.07,2.75.17,5.4.5,8.4.14,2.36-.28,4.65-.22,6.95-.25,2.08-.03,4.13.03,6.2.05,2.76.02,5.61-.15,8.26.07,4.01.33,7.87.95,11.81,1.41.91.11,1.89.24,2.85.04,1.31-.27,2.22-.17,2.98.39.31.23.83.3,1.43.5,2.23-1.3,4.32-1.2,6.41-.98,1.31.14,2.39.39,2.95,1.33.43.73,1.04,1.45,2.52,1.24,1.27-1.59,1.61-1.75,3.63-1.67.66.02,1.29.12,1.97.1,1.31-.03,2.64-.11,4.55-.2,1.15.72,3.48.59,5.66.68,2.56.1,5.23.02,7.66.34,1.44.19,2.89.04,4.38-.18,1.57-.23,5.65-.75,6.89-.59,2.4.31,4.37,1.05,5.51,2.62.23.32.72.57,1.22.66.88.15,1.85.17,2.8.22,2.75.12,5.5.23,8.25.35-.02.1-.05.19-.07.29-1.36.33-2.73.66-4.09.99-.02.12-.03.24-.05.35,3.28.48,6.55.97,10.03,1.48-2.73,1.75-5.36,1.05-8.27,2.28,1.59.38,2.94.63,4.18,1,1.23.37,2.36.86,4.01,1.48-4.36,1.26-8.11,2.52-11.64,4.86.42.24.77.44,1.12.64,0,0-.04-.05-.04-.05Zm-225.98-4.61c.41.12.89.25,1.54.44.6-.47,1.24-.97,2.24-1.75-3.43-.56-6.75.48-10.31,1.06,1.54.57,2.74,1.02,4.03,1.5.73-.37,1.53-.77,2.5-1.25Zm-40.88,72.69c1.51.72,3.09-.13,4.91-1.11-.09-.65-.17-1.32-.26-1.99-1.42.23-1.53,1.06-2.17,1.64q-1.7.35-2.47,1.47Zm44.78-78.02c.28.03.35.06.42.04,2.16-.7,3.92-.4,5.73-.14.3.04.89-.39,1.47-.67-1.32-.69-5.34-.67-8.55-.02.4.34.72.61.94.79Zm5.67,4.44c-.61-1.78-1.84-1.9-4.41-.38,1.6-.15,2.3,1.42,4.41.38Zm228.94,19.18c-1.65-.31-3.22.33-4.75,1.41,1.58-.47,3.17-.94,4.75-1.41Zm-33.15-27.69c-.11-.34-.05-.82-.33-.93-.53-.2-1.26-.18-1.93.7.35.7,1.01.75,2.25.23Zm-214.77,106.32c-1.24-.21-2.25-.14-3.41.48.94.26,1.96.29,3.41-.48Zm-18.78.96c.29-.32.49-.47.56-.63.24-.53.14-.89-1.08-.8.19.51.31.83.52,1.42Zm20.98-1.36c-.03.15-.06.31-.09.46l1.98-.3c.02-.13.05-.25.07-.38-.65.07-1.31.15-1.96.22Zm-24.87-70.71c.05-.09.1-.17.15-.26-.28-.07-.55-.13-.83-.2-.08.15-.17.31-.25.46.31,0,.62,0,.93,0Zm4.93,74s.15-.2.24-.31c-.22-.02-.45-.03-.67-.05-.05.09-.11.17-.16.26.2.04.39.09.6.1Zm266.9-81.69s-.05.05-.08.08c.06,0,.11.02.17.01.02,0,.05-.05.08-.08-.06,0-.11-.02-.17-.01Zm-221.02-24.8c-.09,0-.18.01-.27.02.02.09.04.18.06.27.07-.1.14-.19.21-.29Z"/><path class="cls-2" d="m68.14,169.02c-1.74.26-1.97,1.43-2.95,2.2-.75.13-1.59.28-2.6.46.02.51.04,1.02.06,1.58.47,0,.9,0,1.29,0,1.31-1.29,1.71-1.49,2.95-1.13,1.5.44,3.12.14,4.93-.45.05-.33.09-.6.15-.97-.73.03-1.38.04-2.05.09-1.89.16-2.21-.12-1.77-1.77Z"/><path class="cls-2" d="m357.04,91.34c0-1.74-.3-1.9-2.53-1.27-.69.19-1.38.39-2.08.59q.58.84,4.61.69Z"/><path class="cls-2" d="m68.5,164.55c1.79.06,3.57.11,5.36.17.06-.13.12-.26.18-.39-1.74-.17-3.02-1.29-5.54.22Z"/><path class="cls-2" d="m76.68,88.05c.81.64,1.6,1.12,3.17.3-.6-1.17-.9-1.2-3.17-.3Z"/><path class="cls-2" d="m66.6,174.48c.17.23.26.63.54.65.95.04,1.79-.4,2.77-1.43-1.17.13-2.05.23-2.92.32-.13.15-.26.31-.38.46Z"/><path class="cls-2" d="m69.51,149.39c-.7.08-1.45.16-2.4.27.24.83,1.2.8,1.62,1.18,1.11-.5,1.3-.91.78-1.45Z"/><path class="cls-2" d="m74.62,175.42c-.8.1-1.61.19-2.76.33.36.49.54.74.79,1.08.67-.34,1.29-.65,1.91-.96.02-.15.04-.3.06-.45Z"/><path class="cls-2" d="m144.28,67.08c-1.13-.02-2.26-.04-3.63-.07q1.07.68,3.63.07Z"/><path class="cls-2" d="m67.49,176.06c-1.07-.07-2.12-.18-3.38.81,1.08-.11,2.15-.21,3.23-.32.05-.16.1-.32.15-.49Z"/><path class="cls-2" d="m360.04,89.28c.45-.09.95-.09,1.34-.29.76-.38,1.01-.89.65-1.44-1.02.11-1.5.74-1.99,1.73Z"/><path class="cls-2" d="m113.13,67.61q-1.66-.03-3.15,1c1.07.36,1.97-.16,3.15-1Z"/><path class="cls-2" d="m92.51,74.47c.68-.13,1.37-.27,2.05-.38.7-.11,1.21-.37,1.43-.94,0,0,.05.05.05.05-.84.13-1.68.26-2.52.41-.67.11-1.01.42-.97.91l-.04-.05Z"/><path class="cls-2" d="m73.94,168.86c-.86.13-1.73.27-2.59.4-.03.16-.07.32-.1.48.83-.09,1.67-.17,2.5-.26.06-.21.13-.42.19-.62Z"/><path class="cls-2" d="m347.23,84.24c-.79.28-1.32.47-1.96.7.15.26.16.47.3.5.95.2,1.35-.23,1.65-1.2Z"/><path class="cls-2" d="m63.37,154.64q-.16.8,1.51.62c-.06-.32-.12-.6-.18-.93-.53.14-.97.25-1.4.36l.08-.05Z"/><path class="cls-2" d="m63.29,154.69c-.39-.59-.97-.9-2.2-.39.45.68,1.39.48,2.28.34l-.08.05Z"/><path class="cls-2" d="m66.89,148.89c.98-.16,1.58-.26,2.18-.35-.53-.51-1.11-.6-2.18.35Z"/><path class="cls-2" d="m347.99,90.25c.6.05,1.2.11,2.09.19-.44-.87-1.11-.79-2.09-.19Z"/><path class="cls-2" d="m327.3,65.18c-.54-.02-1.07-.04-1.61-.05.2.73.75.72,1.61.05Z"/><path class="cls-2" d="m341.57,84.92c.7.01,1.39.02,2.09.04-.47-.72-1.13-.85-2.05.01l-.04-.05Z"/><path class="cls-2" d="m301.87,65.91c-.86-.08-1.32-.13-2.03-.2q.63.55,2.03.2Z"/><path class="cls-2" d="m70.56,157.01c-.34-.03-.66-.1-1.01-.09-.42.01-.87.09-1.38.37l2.3-.1.08-.18Z"/><path class="cls-2" d="m92.55,74.52c-1.04-.26-1.27.3-1.56.79.1.08.19.17.29.25.41-.36.82-.73,1.23-1.09l.04.05Z"/><path class="cls-2" d="m360.94,90.46c-.54.18-1.09.37-1.6.54,0,.62.38.52,1.6-.54Z"/><path class="cls-2" d="m70.97,151.41l.53-1.55c-.52.43-.79.59-.89.76-.07.12.11.27.36.79Z"/><polygon class="cls-2" points="73.39 177.9 73.3 178.02 73.45 178 73.39 177.9"/><polygon class="cls-2" points="72.16 157.03 72.04 156.99 72.01 157.1 72.16 157.03"/><polygon class="cls-2" points="323.05 65.41 323.14 65.3 323 65.32 323.05 65.41"/><polygon class="cls-2" points="62.5 166.6 62.41 166.72 62.54 166.7 62.5 166.6"/><polygon class="cls-2" points="72.41 137.47 72.54 137.5 72.55 137.4 72.41 137.47"/><polygon class="cls-2" points="64.48 164.49 64.61 164.53 64.64 164.42 64.48 164.49"/><path class="cls-2" d="m71.98,141.5s.13-.09.14-.12c0-.03-.07-.06-.1-.08-.05.04-.13.09-.14.12,0,.03.07.06.1.08Z"/><path class="cls-1" d="m148.06,105.9c0,.35-.01.7-.04,1.05-.03.36-.08.71-.17,1.05-.07.3-.16.57-.27.82-.11.25-.19.52-.22.82-.03.17-.07.36-.1.56-.04.2-.16.3-.39.3l-.21-.03c-.28,0-.49.11-.62.33-.14.22-.25.48-.33.78-.08.3-.14.61-.18.92-.04.31-.09.56-.14.75-.05.19-.08.36-.09.51,0,.15-.02.28-.03.39,0,.11-.05.23-.12.35-.07.12-.19.25-.36.39-.28.21-.55.41-.81.6-.26.19-.49.42-.7.68-.16.19-.26.36-.31.49-.05.14-.1.27-.16.39s-.13.23-.25.32c-.11.1-.3.19-.56.27-.4.14-.78.29-1.14.47-.36.17-.74.33-1.12.47-.45.17-.88.37-1.27.59-.4.22-.81.42-1.22.61-.42.19-.85.35-1.29.48s-.92.2-1.42.2c-.45,0-.9-.07-1.34-.21-.44-.14-.85-.33-1.24-.57-.36-.03-.64-.16-.83-.39-.19-.22-.35-.49-.47-.81-.1-.24-.2-.42-.3-.52-.1-.1-.2-.18-.31-.22-.11-.04-.24-.08-.38-.12-.14-.03-.3-.11-.49-.23-.78-.5-1.49-1.13-2.13-1.89-.64-.75-1.24-1.51-1.79-2.28-.12-.17-.21-.38-.27-.61-.06-.23-.12-.47-.17-.7s-.11-.46-.17-.68-.15-.39-.27-.51c-.23-.22-.42-.35-.6-.36-.17-.02-.32-.06-.43-.12-.11-.06-.2-.21-.26-.44-.06-.23-.09-.67-.09-1.31,0-.4-.04-.82-.1-1.25s-.15-.88-.25-1.34c-.1-.46-.18-.93-.25-1.4-.07-.48-.1-.95-.1-1.42,0-.5.03-1.01.09-1.51.06-.5.13-1.01.22-1.51.09-.5.17-1,.26-1.5.09-.49.15-.99.18-1.5.03-.47.06-.94.06-1.43,0-.49.03-.97.05-1.46.03-.49.07-.96.14-1.43.07-.47.19-.93.36-1.38.17-.49.39-.95.66-1.38.27-.43.53-.87.79-1.3s.5-.88.73-1.33c.23-.45.4-.94.52-1.46.07-.33.29-.64.65-.92.36-.29.82-.55,1.35-.81.54-.25,1.12-.48,1.76-.68.63-.2,1.26-.37,1.89-.52.62-.15,1.2-.26,1.73-.34.53-.08.96-.12,1.29-.12.87,0,1.68.11,2.45.33.76.22,1.53.5,2.31.85.35.16.72.28,1.13.38.41.1.79.14,1.16.14s.64-.06.82-.19c.18-.13.33-.29.43-.47s.19-.36.26-.52.17-.29.31-.38l-.08.03s.1-.06.18-.06.18-.01.29-.01c.14.02.31.05.51.1.2.05.4.11.61.18.21.07.4.14.59.22.18.08.32.15.4.22.05.04.14.15.26.34.12.19.25.4.38.62.13.23.24.43.34.62.1.19.14.31.14.36,0,.43.07.84.2,1.22.13.38.2.79.2,1.22s-.06.89-.2,1.33c-.13.43-.2.88-.2,1.33,0,.56.01,1.1.04,1.63.03.53.04,1.07.04,1.63,0,.5-.02,1-.07,1.5-.04.49-.12.98-.22,1.47-.03.14-.07.3-.1.49-.04.19-.08.37-.14.55-.06.17-.14.32-.23.44-.1.12-.22.18-.38.18s-.3-.03-.42-.08c-.09.02-.16.03-.23.04-.07,0-.15.01-.23.01-.16,0-.25-.03-.29-.08-.03-.05-.05-.12-.05-.2s-.01-.16-.04-.26c-.03-.1-.12-.19-.27-.27-.1-.07-.24-.11-.42-.13-.17-.02-.34-.04-.51-.06s-.31-.08-.43-.16c-.12-.08-.18-.2-.18-.38,0-.19.04-.29.12-.3.08,0,.17.02.29.09.11.07.24.13.38.2.14.06.27.07.39.01-.24-.28-.46-.57-.64-.87-.18-.3-.36-.61-.55-.92-.18-.31-.37-.62-.56-.94-.19-.31-.41-.6-.65-.86-.21-.23-.38-.49-.52-.78-.14-.29-.27-.59-.4-.9-.13-.3-.27-.59-.42-.86-.15-.27-.33-.49-.56-.66-.8-.61-1.68-1.14-2.64-1.6-.96-.46-1.96-.69-3-.69-.73,0-1.4.11-2.02.32-.62.22-1.23.51-1.83.87-.24.14-.47.26-.69.36-.22.1-.43.22-.62.35-.2.13-.37.29-.52.47-.15.18-.26.43-.33.74-.09.31-.13.63-.12.96,0,.33-.07.63-.25.91-.09.14-.22.25-.4.34-.18.09-.3.22-.35.39-.14.4-.22.82-.25,1.25-.03.43-.04.88-.05,1.33,0,.45-.02.91-.04,1.37-.02.46-.09.9-.21,1.31-.1.35-.18.69-.22,1.04-.04.35-.07.69-.07,1.04,0,.66.02,1.31.07,1.94.04.63.07,1.27.07,1.91,0,.78.04,1.54.12,2.29.08.75.22,1.49.43,2.24.16.56.37,1.09.65,1.6.28.51.49,1.04.62,1.6.07.3.2.61.38.94.18.33.4.63.65.91.25.28.53.51.85.69s.63.27.96.27c.24,0,.48-.03.7-.09.23-.06.46-.09.7-.09.26,0,.52.02.78.07.26.04.52.06.78.06.47,0,.96-.06,1.47-.18.51-.12.94-.36,1.29-.73.24-.26.52-.44.83-.55.31-.1.63-.19.95-.26.32-.07.63-.16.92-.27.29-.11.55-.32.78-.61.14-.19.28-.49.43-.88.15-.4.3-.81.46-1.25.16-.43.32-.83.48-1.18.16-.36.33-.58.51-.66.16-.09.26-.31.3-.66.04-.36.06-.78.06-1.26v-1.2c0-.35,0-.68.03-1.01s.06-.62.12-.88c.06-.26.15-.47.27-.62.12-.16.29-.23.49-.23.19,0,.34.07.46.2.11.13.26.2.43.2s.34-.06.51-.17c.16-.11.34-.17.53-.17.26,0,.5.11.72.34.22.23.42.48.6.75s.33.53.44.77c.11.23.2.36.25.38.17.04.27.18.3.43.03.25.04.46.04.61Z"/><path class="cls-1" d="m182.62,118.55c0,.3-.05.58-.14.85-.1.27-.22.52-.38.77-.4.03-.78.06-1.16.08s-.76.03-1.16.03-.76,0-1.14-.01c-.38,0-.76-.01-1.14-.01-.54,0-1.06.05-1.57.16-.51.1-1.04.16-1.57.16-.71,0-1.09-.37-1.14-1.12-.24,0-.46.07-.65.22s-.38.3-.57.47c-.19.16-.4.32-.62.47-.23.15-.49.22-.78.22s-.59-.09-.9-.26-.46-.43-.46-.78c0-.12.03-.23.09-.34.06-.1.13-.2.21-.27.08-.08.15-.15.22-.21.07-.06.1-.12.1-.17,0-.09-.03-.16-.1-.23-.07-.07-.15-.14-.25-.21-.1-.07-.18-.14-.25-.22-.07-.08-.1-.18-.1-.3,0-.28.1-.48.31-.61.21-.13.48-.22.81-.27.33-.05.68-.08,1.07-.09s.75-.02,1.12-.04c.36-.02.68-.06.96-.14.28-.08.47-.22.57-.43.17-.31.31-.68.42-1.12.1-.43.19-.88.25-1.35.06-.47.1-.93.13-1.39.03-.46.04-.87.04-1.24,0-.76-.03-1.52-.09-2.26-.06-.75-.17-1.49-.33-2.24-.07-.35-.16-.68-.27-1.01-.11-.33-.17-.67-.17-1.01,0-.23.03-.42.1-.6.07-.17.14-.33.22-.47s.15-.27.22-.4c.07-.13.1-.26.1-.4,0-.29-.09-.55-.26-.77-.17-.22-.3-.46-.39-.72-.09-.24-.14-.49-.17-.74-.03-.25-.09-.5-.2-.74-.09-.17-.2-.33-.34-.48-.14-.15-.28-.3-.42-.44-.14-.15-.28-.29-.42-.43-.14-.14-.24-.3-.31-.49-.61-.05-1.19-.08-1.74-.08-.76,0-1.47.05-2.12.14-.65.1-1.27.26-1.85.51-.58.24-1.13.56-1.64.96-.51.4-1.01.9-1.5,1.51-.17.21-.38.44-.62.7-.24.26-.49.52-.73.79-.24.27-.46.54-.66.82-.2.28-.33.55-.38.81-.17.69-.31,1.47-.4,2.34-.1.87-.14,1.66-.14,2.39,0,.24.03.49.09.73.06.24.13.48.21.72.08.23.15.47.21.7.06.23.09.48.09.74,0,.12-.03.34-.1.66-.07.32-.16.65-.26.98-.1.33-.22.62-.34.87-.12.25-.24.38-.36.38.03.12.16.28.36.48.21.2.45.39.72.59.27.19.53.36.78.49.25.14.44.21.56.21.16,0,.31-.01.46-.04.15-.03.29-.04.43-.04.33,0,.69.09,1.08.27.39.18.72.38.99.6.27.22.43.42.48.6.05.18-.1.27-.47.27-.09,0-.18,0-.27.01-.1,0-.19.01-.27.01-.17,0-.29-.05-.36-.14-.07-.1-.13-.2-.18-.31-.05-.11-.1-.22-.16-.31-.05-.1-.15-.14-.29-.14-.09,0-.14.05-.17.16-.03.1-.04.19-.04.26,0,.16.07.32.21.48.14.17.29.33.46.51.16.17.32.35.46.53.14.18.21.37.21.56,0,.09-.03.15-.1.18-.07.03-.14.05-.21.05-.17,0-.34-.03-.51-.08s-.33-.08-.51-.08c-.16,0-.3.07-.44.2-.14.13-.32.27-.55.43-.23.16-.52.3-.88.43-.36.13-.85.2-1.46.2-.26,0-.43-.1-.52-.29s-.16-.4-.23-.64-.15-.45-.23-.64c-.09-.19-.26-.29-.52-.29-.14,0-.25.05-.34.16-.09.1-.15.21-.18.31h.03c.05.05.11.13.17.25.06.11.12.24.17.38.05.14.1.27.14.4.04.13.07.23.09.3l-.47-.03c-.24-.02-.48,0-.7.05-.23.05-.45.11-.66.17-.22.06-.44.12-.66.17s-.45.07-.68.05c-.23,0-.43-.03-.61-.09-.18-.06-.37-.13-.56-.22-.3-.14-.6-.22-.91-.23-.31-.02-.6-.05-.86-.1-.26-.05-.47-.17-.64-.36-.17-.19-.25-.52-.25-.99,0-.28.05-.56.16-.86.1-.29.25-.56.44-.79.19-.23.42-.42.68-.57.26-.15.54-.22.83-.22.21,0,.41.05.6.14.19.1.39.14.6.14.17,0,.32-.05.43-.16.11-.1.22-.22.31-.35.1-.13.2-.25.31-.36.11-.11.26-.19.43-.22.02-.92.1-1.82.23-2.72.14-.89.21-1.8.21-2.72s-.08-1.79-.25-2.67c-.16-.88-.25-1.76-.25-2.67,0-.55.07-1.09.22-1.61.15-.52.22-1.06.22-1.61,0-.29-.06-.58-.2-.85-.13-.27-.19-.55-.19-.85,0-.23.06-.4.18-.52.12-.12.2-.28.23-.47h-.08c-.23,0-.34-.12-.34-.36s.08-.36.23-.36c.05,0,.12.03.21.08,0-.14-.04-.28-.12-.42-.08-.14-.16-.28-.26-.42-.1-.14-.19-.28-.27-.43-.09-.15-.13-.3-.13-.46.19-.36.32-.68.38-.96.06-.28.09-.55.09-.83,0-.24-.01-.49-.04-.74s-.04-.55-.04-.9c0-.38.08-.75.23-1.09.16-.35.23-.71.23-1.09,0-.23-.05-.38-.16-.47-.1-.09-.23-.13-.39-.13-.09,0-.2.02-.34.05,0-.22-.02-.53-.05-.92-.03-.39-.1-.77-.21-1.13-.1-.36-.26-.68-.46-.95-.2-.27-.46-.4-.79-.4-.21,0-.41.01-.61.04-.2.03-.4.04-.61.04-.33,0-.65-.09-.95-.26-.3-.17-.57-.4-.79-.68s-.41-.58-.55-.91c-.14-.33-.21-.65-.21-.96,0-.35.1-.56.31-.65.21-.09.44-.13.7-.13.14,0,.27,0,.39.01.12,0,.24.01.36.01.19,0,.39-.02.6-.06s.38-.13.52-.27c.54-.03,1.07-.08,1.59-.13s1.05-.08,1.59-.08c.29,0,.55.07.78.21.23.14.45.3.66.48.22.18.44.35.66.51.22.16.48.26.75.31,0,.38-.03.75-.09,1.12-.06.36-.09.74-.09,1.12s.07.71.22,1.03c.15.32.22.66.22,1,0,.1-.03.16-.1.17-.07,0-.14.02-.22.04-.08.02-.15.05-.21.1-.06.05-.09.17-.09.36,0,.16.03.3.09.44.06.14.13.27.2.4.07.13.13.26.2.4.06.14.09.29.09.44,0,.28-.05.54-.14.78-.1.24-.14.5-.14.78,0,.23.03.58.08,1.07.05.49.14.98.26,1.47.12.49.28.93.47,1.3.19.37.42.56.7.56.36,0,.71-.09,1.04-.26.33-.17.65-.39.95-.64.3-.25.59-.52.87-.81.28-.29.54-.54.78-.77.16-.14.46-.28.91-.42.45-.14.94-.26,1.47-.38.53-.11,1.04-.2,1.53-.27.49-.07.85-.1,1.08-.1.57,0,.98.03,1.24.1.25.07.46.17.64.3.17.13.35.28.52.46.17.17.47.36.88.57.17.09.34.14.51.17.16.03.32.05.47.08.15.03.29.08.44.16.15.08.29.2.43.38.23.3.51.61.85.95.34.34.65.69.95,1.07.29.37.55.76.77,1.16.22.4.33.8.33,1.2,0,.26-.05.52-.14.78-.1.26-.14.52-.14.78,0,.19.04.36.13.51.09.15.13.32.13.51,0,.21,0,.47-.03.78-.02.31-.05.64-.1.98-.05.34-.12.66-.2.96-.08.3-.18.53-.3.69.26.43.43.89.52,1.38.09.49.13.97.13,1.46,0,.61-.03,1.21-.09,1.81-.06.6-.09,1.2-.09,1.81,0,.82.12,1.44.36,1.89.24.44.54.78.9,1.01.36.23.75.4,1.17.51.42.1.81.23,1.17.38.36.15.65.36.9.62.24.27.36.68.36,1.24Z"/><path class="cls-1" d="m210.19,114.36c0,.47-.07.87-.22,1.2-.15.33-.34.62-.57.88-.23.26-.5.5-.81.73-.3.23-.61.47-.92.73-.24.21-.46.36-.65.47-.19.1-.38.19-.56.26-.18.07-.37.14-.57.21-.2.07-.43.16-.69.29-.35.17-.64.33-.87.48-.23.15-.47.28-.7.4-.23.12-.49.22-.77.3-.28.08-.62.14-1.04.2-.69.09-1.39.19-2.09.31-.7.12-1.4.18-2.09.18-.14,0-.28-.03-.43-.09-.15-.06-.32-.12-.51-.18-.19-.06-.4-.12-.64-.18-.23-.06-.52-.09-.85-.09-.35,0-.62-.05-.83-.16-.21-.1-.39-.23-.56-.36-.16-.14-.33-.29-.51-.46-.17-.16-.4-.31-.68-.43-1.04-.47-1.92-1.03-2.65-1.69-.73-.66-1.35-1.4-1.87-2.21-.52-.81-.95-1.7-1.3-2.65-.35-.95-.64-1.95-.88-2.99-.19-.73-.29-1.46-.29-2.18,0-.95.22-1.84.68-2.65-.17-.49-.26-.95-.26-1.4,0-.33.1-.82.29-1.47.19-.65.44-1.3.74-1.96.3-.66.63-1.25.99-1.78s.69-.85,1-.98c.24-.09.41-.16.51-.22.1-.06.14-.23.14-.51,0-.21.08-.38.25-.52.16-.14.36-.25.6-.34.23-.09.47-.16.7-.23.23-.07.43-.14.59-.21.64-.31,1.25-.58,1.83-.79.58-.22,1.16-.4,1.74-.55.58-.15,1.18-.26,1.81-.33.62-.07,1.29-.1,2-.1.38,0,.75.05,1.12.16.36.1.72.24,1.05.4.34.17.67.35,1,.55.33.2.65.39.96.59h-.03c.26.03.51.11.74.22.23.11.48.19.74.22.24.3.56.58.95.85.39.27.77.55,1.14.85.37.3.69.61.96.95.27.34.4.72.4,1.16,0,.07,0,.14-.01.21,0,.07-.02.15-.04.23l.1-.13c.07.05.13.14.2.26.06.12.12.26.17.4.05.15.1.3.13.44.03.15.06.26.08.35.14.23.33.41.56.55.23.14.42.33.56.57-.17.17-.26.4-.26.68,0,.3.06.59.18.87.12.29.18.58.18.87,0,.35-.02.68-.05,1-.04.32-.05.66-.05,1,0,.26-.1.46-.3.6-.2.14-.42.26-.65.36-.23.1-.45.21-.64.31-.19.1-.29.25-.29.44,0,.14-.08.2-.25.2-.17,0-.3-.01-.4-.01-.76,0-1.52-.1-2.28-.29s-1.5-.29-2.25-.29c-.82,0-1.62.06-2.42.17-.8.11-1.6.17-2.42.17-.61,0-1.21-.02-1.81-.05s-1.2-.05-1.81-.05c-.16,0-.45.03-.88.09-.43.06-.89.14-1.37.23-.48.1-.93.21-1.37.34-.43.13-.74.26-.91.38-.02.09-.03.21-.03.36,0,.82.24,1.66.72,2.52.48.87,1.11,1.66,1.89,2.37.78.71,1.66,1.3,2.63,1.77.97.47,1.95.7,2.94.7.57,0,1.14.02,1.7.06.56.04,1.11.17,1.65.38.47-.23.9-.49,1.29-.78.39-.29.77-.61,1.13-.94.36-.33.72-.67,1.07-1.01.35-.35.7-.69,1.07-1.04.07-.07.24-.13.51-.2.27-.06.56-.11.87-.16s.61-.08.9-.1c.29-.03.48-.04.59-.04.4,0,.77.06,1.12.18.1.4.16.79.16,1.17Zm-3.9-10.56c0-.26-.04-.51-.13-.75-.09-.24-.16-.49-.21-.75-.09-.49-.13-.96-.13-1.42s-.07-.92-.21-1.39h-.03c0,.1-.03.2-.1.3-.07.1-.17.14-.29.14-.21,0-.41-.05-.6-.16-.19-.1-.36-.23-.49-.39-.66-.29-1.25-.57-1.78-.83s-1.06-.49-1.59-.69c-.53-.2-1.09-.36-1.69-.47-.6-.11-1.29-.17-2.07-.17-.07,0-.13,0-.2.01-.06,0-.12.04-.17.09l.13.29-.21.05c-.47.09-.85.17-1.16.25s-.58.19-.82.32c-.24.14-.48.31-.72.51s-.53.46-.9.77c-.17.16-.36.27-.56.35-.2.08-.4.15-.6.21-.2.06-.39.13-.57.2-.18.07-.33.18-.46.34-.12.43-.3.85-.53,1.26-.23.41-.35.84-.35,1.29,0,.26.11.49.33.69.22.2.49.37.83.51s.71.26,1.12.36c.41.1.81.18,1.21.23.4.05.77.09,1.11.12s.6.04.79.04c.66,0,1.31-.06,1.95-.2.64-.13,1.29-.19,1.95-.19s1.35.03,2.03.09c.68.06,1.35.09,2.03.09.17,0,.43,0,.78-.03.35-.02.69-.06,1.03-.14.34-.08.63-.19.88-.34.25-.15.38-.34.38-.59Z"/><path class="cls-1" d="m242.11,90.87l-.13.03c-.19,0-.36-.06-.49-.17-.14-.11-.3-.19-.47-.22l-.03.1c0,.14.04.27.13.39.09.12.18.23.29.34.1.1.2.21.29.33.09.11.13.22.13.33,0,.16-.1.24-.3.26s-.35.04-.46.08c-.21.05-.37.18-.49.38-.12.2-.26.42-.43.65-.17.23-.38.44-.65.62s-.65.27-1.13.27c-.61,0-1.21-.14-1.82-.42-.69-.33-1.2-.73-1.51-1.21-.31-.48-.52-.98-.62-1.5-.1-.52-.16-1.04-.18-1.55-.02-.51-.08-.98-.18-1.39s-.3-.75-.6-1c-.3-.25-.78-.38-1.46-.38-.62,0-1.28.07-1.98.22-.69.15-1.33.39-1.91.73-.58.34-1.06.77-1.44,1.3-.38.53-.57,1.17-.57,1.91,0,.82.03,1.44.1,1.89.07.44.22.76.44.96.23.2.55.31.99.34.43.03,1.01.04,1.74.04.14,0,.33.1.59.3.25.2.5.43.75.7.25.27.47.54.65.82.18.28.27.5.27.68,0,.4-.17.71-.51.92s-.74.38-1.21.48c-.47.1-.95.16-1.43.18-.49.02-.87.03-1.14.03-.29,0-.53.06-.72.18-.18.12-.32.28-.4.47-.09.19-.14.41-.17.65-.03.24-.04.49-.04.73,0,1.16.06,2.32.2,3.47.13,1.15.2,2.32.2,3.5,0,.68-.09,1.23-.27,1.66-.18.43-.27.79-.27,1.07,0,.19.04.38.12.57.08.19.12.38.12.57,0,.38-.06.75-.17,1.11-.11.36-.17.72-.17,1.11,0,.31.05.58.16.79s.23.42.36.62.27.39.39.59c.12.19.21.42.26.68.47-.07.93-.16,1.39-.29.46-.12.93-.18,1.42-.18.31,0,.74.02,1.29.05.55.04,1.08.12,1.61.25.53.13.99.32,1.38.57.39.25.59.59.59,1.03,0,.36-.05.71-.14,1.04-.1.33-.24.63-.43.91-.19.28-.43.51-.7.69-.28.18-.6.3-.96.35-.47.07-.93.2-1.38.39-.45.19-.91.29-1.38.29-.3,0-.58-.05-.85-.16-.27-.1-.55-.21-.83-.33-.29-.11-.58-.22-.87-.33-.3-.1-.61-.16-.94-.16-.78,0-1.55,0-2.3.01-.75,0-1.52.05-2.3.12-.43.03-.86.11-1.27.22s-.84.23-1.26.34c-.42.11-.85.21-1.29.3-.43.09-.87.13-1.3.13-.19,0-.42-.04-.68-.1-.26-.07-.52-.17-.79-.29-.27-.12-.52-.25-.75-.38-.23-.13-.43-.26-.59-.4l-.03-1.2c0-.57.12-1.01.36-1.31.24-.3.56-.53.95-.68.39-.15.84-.24,1.34-.27.5-.03,1.02-.06,1.55-.08.53-.02,1.04-.05,1.55-.09.5-.04.95-.15,1.34-.32.39-.17.71-.44.95-.79.24-.36.36-.85.36-1.47,0-.26-.02-.52-.07-.78s-.1-.52-.17-.78h.05c.1-.16.19-.39.25-.69.06-.3.1-.63.12-.98.02-.35.03-.68.03-1v-.77c0-.49,0-1.01-.03-1.57-.02-.56-.1-1.07-.23-1.52-.03-.12-.07-.24-.12-.35-.04-.11-.07-.24-.07-.38,0-.4.07-.79.21-1.18.14-.39.21-.78.21-1.18,0-.16-.01-.27-.04-.35-.03-.08-.06-.15-.1-.21-.04-.06-.08-.12-.12-.18-.03-.06-.06-.14-.08-.25.12-.19.22-.39.3-.61.08-.22.12-.44.12-.66,0-.21-.04-.39-.13-.53-.09-.15-.18-.29-.29-.42-.1-.13-.2-.26-.3-.4-.1-.14-.14-.29-.14-.47-.24,0-.56,0-.94-.01s-.8-.03-1.25-.07c-.45-.03-.9-.1-1.35-.18-.45-.09-.86-.2-1.22-.35s-.66-.34-.9-.57c-.23-.23-.35-.52-.35-.87,0-.24.1-.47.3-.69.2-.22.44-.4.73-.56.29-.16.59-.28.91-.36.32-.09.59-.13.82-.13.24,0,.49,0,.74.03.25.02.5.03.74.03.26,0,.58-.02.95-.05.37-.03.66-.13.87-.29.05-.05.11-.19.18-.4.07-.22.13-.46.18-.73.05-.27.1-.53.13-.78s.05-.42.05-.51c0-.4-.03-.78-.09-1.14-.06-.36-.09-.75-.09-1.14,0-.57.07-1.1.21-1.59.14-.49.42-.94.83-1.35.49-.48.95-.96,1.39-1.42.44-.46.9-.87,1.38-1.24.48-.36,1-.68,1.56-.94.56-.26,1.22-.44,1.96-.55.52-.07,1.04-.15,1.57-.23.53-.09,1.06-.13,1.6-.13.29,0,.69.04,1.18.12.49.08,1.02.19,1.59.34.56.15,1.13.33,1.7.53s1.09.45,1.56.72c.47.27.85.56,1.14.88.29.32.44.66.44,1.03.54.02.93.2,1.18.55s.43.76.53,1.25c.1.49.17.99.21,1.52.03.53.11.98.23,1.37l.05.13Z"/><path class="cls-1" d="m272.04,92.64c0,.31,0,.63-.01.95,0,.32-.05.63-.12.92-.03.16-.11.32-.23.51-.12.18-.26.36-.43.52-.17.16-.34.3-.53.42s-.36.17-.52.17c-.26,0-.43-.1-.49-.31-.07-.21-.12-.43-.14-.68-.03-.24-.08-.47-.16-.68-.08-.21-.26-.31-.53-.31-.09,0-.16.02-.22.05-.06.04-.13.05-.22.05-.03,0-.07-.1-.1-.31-.04-.21-.08-.46-.13-.75-.05-.29-.11-.59-.18-.9-.07-.3-.15-.56-.23-.77-.16-.33-.32-.67-.48-1.03-.16-.36-.25-.73-.25-1.13,0-.28.05-.52.16-.72s.22-.39.34-.56c.12-.17.23-.35.34-.52.1-.17.16-.38.16-.62,0-.35-.11-.65-.34-.91-.23-.26-.51-.47-.85-.64-.34-.16-.69-.29-1.07-.36-.37-.08-.7-.12-.98-.12-.47,0-.92.06-1.37.17-.44.11-.88.25-1.33.4-.44.16-.88.32-1.31.49-.43.17-.87.32-1.3.44.09.24.14.49.17.75.03.26.04.52.04.78,0,.59-.03,1.18-.08,1.76-.05.58-.08,1.17-.08,1.76,0,.64.03,1.28.1,1.91.07.63.14,1.26.22,1.89s.15,1.25.22,1.89c.07.63.1,1.26.1,1.89,0,.76-.13,1.51-.39,2.24-.05.14-.08.25-.08.34,0,.19.04.38.13.56s.19.37.3.57c.11.2.21.4.3.61.09.21.13.43.13.65,0,.21-.04.41-.1.6s-.1.38-.1.57c0,.28.04.55.12.81.08.26.12.53.12.81,0,.16-.04.25-.12.29-.08.03-.17.05-.27.05s-.2,0-.27.01c-.08,0-.12.06-.12.14,0,.26.06.51.17.74.11.23.17.48.17.74,0,.23-.05.44-.14.64-.1.2-.14.41-.14.64s.1.43.3.6c.2.17.34.38.43.62.09.3.16.63.22,1.01.06.38.18.75.36,1.09.18.35.46.64.85.87.38.23.94.35,1.69.35h.75c.21,0,.46.02.77.05.3.04.6.1.88.2.29.1.53.23.73.42.2.18.3.41.3.69s-.05.55-.16.81-.16.53-.16.81c0,.09.02.22.05.39-.26,0-.49.06-.69.17-.2.11-.34.3-.43.56-.35-.07-.7-.12-1.05-.14-.36-.03-.71-.04-1.05-.04-.88,0-1.76.06-2.63.19-.87.13-1.74.27-2.61.42-.88.15-1.75.29-2.63.42-.88.13-1.76.2-2.64.2-.29,0-.66,0-1.09-.03-.43-.02-.85-.08-1.25-.18-.4-.1-.74-.26-1.03-.48-.29-.22-.43-.53-.43-.95,0-.49.05-.85.14-1.08.1-.23.21-.4.35-.49.14-.1.3-.15.48-.17.18-.02.36-.05.53-.1.05-.05.08-.1.08-.16,0-.09-.04-.16-.12-.22-.08-.06-.16-.11-.25-.14.29-.26.63-.44,1-.55.37-.1.75-.17,1.14-.21.39-.03.78-.07,1.18-.1.4-.03.77-.12,1.12-.26.14-.05.29-.2.44-.44s.3-.51.43-.81c.13-.29.23-.59.31-.88.08-.3.12-.52.12-.68v-.05c-.12-.83-.22-1.65-.29-2.45-.07-.8-.1-1.61-.1-2.44,0-.07.03-.19.08-.35s.12-.33.21-.51c.07-.19.16-.41.29-.65-.14-.22-.26-.43-.36-.62-.09-.17-.17-.34-.23-.49-.07-.16-.1-.28-.1-.36,0-.21.03-.41.1-.6.07-.19.12-.38.16-.57.1-.73.16-1.47.16-2.21,0-.31-.02-.62-.06-.92-.04-.3-.1-.6-.17-.9-.23-1.06-.34-2.15-.34-3.28,0-1.32.09-2.63.26-3.93.17-1.3.26-2.61.26-3.93,0-.45-.08-.8-.23-1.05-.16-.25-.46-.45-.91-.59-.61-.17-1.24-.31-1.89-.42-.65-.1-1.3-.16-1.94-.16-.49,0-.99.06-1.52.17-.53.11-1.01.3-1.46.55-.44.25-.81.58-1.09.99s-.43.9-.43,1.47c0,.3.02.58.05.86.03.28.05.56.05.86,0,.28-.06.52-.17.72-.11.2-.17.4-.17.59,0,.26.07.5.21.73s.21.47.21.73c0,.17-.04.36-.12.57-.08.21-.17.42-.27.64s-.2.43-.3.64c-.1.21-.17.4-.22.57-.09.26-.2.49-.34.68s-.36.29-.65.29c-.24,0-.47-.08-.68-.25-.21-.16-.31-.37-.31-.61,0-.19.05-.34.14-.46.1-.11.14-.25.14-.4,0-.17-.04-.35-.1-.53s-.15-.36-.25-.55c-.1-.18-.18-.37-.25-.56-.07-.19-.1-.38-.1-.57,0-.24.04-.48.12-.7.08-.22.12-.46.12-.7,0-.52-.08-1.03-.25-1.53-.17-.5-.25-1.01-.25-1.53,0-.47.05-1.02.16-1.66.1-.64.28-1.26.53-1.85.25-.59.58-1.09.99-1.5.41-.41.92-.61,1.55-.61.43,0,.86.05,1.29.14.42.1.86.14,1.31.14.5,0,1.01-.04,1.51-.13.5-.09,1.01-.13,1.51-.13.35,0,.67.06.98.17.3.11.63.17.98.17.21,0,.39-.05.53-.14.15-.1.32-.14.51-.14.21,0,.41.05.61.14.2.1.4.14.61.14.19,0,.37-.03.53-.08.16-.05.33-.08.51-.08.26,0,.52.04.77.1.25.07.5.1.74.1l3.15-.39c.47-.03.94-.07,1.4-.1.47-.03.94-.05,1.43-.05.83,0,1.66.06,2.48.2.82.13,1.65.29,2.48.48v.03c.57.14.98.43,1.22.88.24.45.4.97.48,1.55s.11,1.18.09,1.78c-.02.61,0,1.13.03,1.56.05.66.12,1.32.2,1.99.08.67.12,1.33.12,1.99Z"/><path class="cls-1" d="m300.94,108.4c0,.24-.04.47-.12.69-.08.22-.17.4-.26.56-.1.16-.18.29-.26.39-.08.1-.12.16-.12.18,0,.17.06.36.17.55.11.19.17.4.17.62,0,.1-.04.17-.12.21s-.16.05-.25.05c-.16,0-.29-.02-.39-.05.02.33.05.65.09.96.04.31.06.63.06.96,0,.5-.05.83-.14.97-.1.15-.2.24-.3.27s-.2.07-.3.12c-.1.04-.14.2-.14.48,0,.16-.11.36-.33.6-.22.24-.48.49-.78.73-.3.24-.62.45-.94.62-.32.17-.58.26-.77.26-.05,0-.11-.02-.18-.05,0,.14,0,.29.03.44.02.16.03.3.03.44,0,.23-.07.38-.21.46-.14.08-.3.15-.47.22-.26.12-.53.3-.81.53-.28.23-.56.47-.86.72s-.59.46-.9.64c-.3.18-.62.27-.95.27-.28,0-.53-.07-.77-.21-.23-.14-.51-.21-.82-.21-.28,0-.51.04-.7.12-.19.08-.37.16-.53.26-.16.1-.33.18-.51.26-.17.08-.37.12-.6.12-.45,0-.9-.12-1.35-.35-.45-.23-.88-.42-1.3-.56-.24-.09-.5-.15-.78-.2-.28-.04-.55-.09-.81-.14-.26-.05-.51-.13-.74-.25s-.44-.27-.61-.48c-.36-.45-.79-.82-1.27-1.12-.49-.3-.98-.57-1.48-.83-.5-.26-.99-.53-1.46-.82-.47-.29-.88-.66-1.22-1.13-.26-.36-.56-.76-.88-1.18-.33-.42-.64-.87-.92-1.34s-.52-.94-.72-1.43c-.19-.49-.29-.96-.29-1.43,0-.35.03-.68.1-1.01.07-.33.14-.66.22-1,.08-.34.15-.67.22-1,.07-.33.1-.67.1-1.01v-.29c0-.07-.03-.15-.08-.23-.05-.09-.11-.17-.17-.25-.06-.08-.12-.15-.18-.21-.06-.06-.1-.09-.12-.09-.03,0-.05,0-.05.03.02-.16.06-.39.14-.72.08-.32.17-.65.27-.99s.21-.65.31-.94c.1-.29.2-.47.29-.56.1-.09.2-.18.3-.27.1-.1.14-.22.14-.38s0-.31-.03-.46c-.02-.15-.03-.3-.03-.46,0-.21.03-.33.08-.38s.12-.07.21-.07.17-.01.26-.04.17-.12.26-.27c.16-.31.31-.6.46-.87.15-.27.31-.52.48-.74.17-.23.37-.43.6-.62.23-.19.5-.37.83-.55.28-.16.55-.35.82-.57.27-.23.54-.45.82-.68.28-.22.56-.42.85-.57.29-.16.59-.23.92-.23.47,0,.92-.08,1.37-.25.44-.16.89-.29,1.34-.38.71-.1,1.42-.2,2.12-.3.7-.1,1.42-.14,2.15-.14.4,0,.88.07,1.46.2.57.13,1.16.3,1.76.51s1.16.44,1.69.7c.53.26.95.52,1.26.78v.08c0,.24-.04.49-.13.74-.09.25-.13.5-.13.74v.1s.02.05.05.05c.29,0,.58-.04.85-.12.27-.08.55-.12.85-.12.03.3.16.49.39.6.23.1.45.2.68.29.21.1.4.29.59.56.18.27.35.57.51.91.16.34.31.67.46,1,.15.33.29.6.43.81.14.21.26.46.38.74.11.29.21.59.29.9.08.31.13.62.17.92.03.3.05.59.05.85,0,.35-.06.64-.2.87-.13.23-.27.44-.43.62-.16.18-.3.36-.43.52-.13.16-.2.35-.2.56,0,.12.03.23.08.34.05.1.12.2.21.29.03-.02.11-.03.22-.05.11-.02.17-.07.17-.16v-.03c0-.14-.06-.27-.17-.39-.11-.12-.17-.27-.17-.44,0-.03.02-.09.05-.17.03-.08.08-.12.13-.12.1,0,.21.06.31.2s.2.27.3.42c.1.15.17.27.22.38.05.1.08.14.08.1l-.03-.03c.02.09.03.16.04.22,0,.06.01.13.01.2Zm-2.6.21c0-.28-.1-.45-.31-.51s-.44-.1-.7-.12c-.26-.02-.52-.04-.77-.08-.25-.03-.42-.16-.51-.39v-.26c0-.38-.05-.83-.14-1.34-.1-.51-.21-1.03-.35-1.56-.14-.53-.29-1.05-.44-1.56-.16-.51-.3-.97-.44-1.37-.14-.4-.3-.84-.47-1.33-.14.04-.25.05-.34.05-.3,0-.55-.06-.77-.18-.22-.12-.46-.25-.73-.39-.27-.14-.6-.27-.99-.39-.39-.12-.91-.18-1.55-.18-.71,0-1.41-.05-2.11-.14-.69-.1-1.4-.14-2.11-.14-.97,0-1.88.22-2.73.66-.85.44-1.6,1.02-2.24,1.74-.64.72-1.14,1.53-1.51,2.43-.36.9-.55,1.81-.55,2.73,0,.38,0,.83.03,1.34s.06,1.02.13,1.53c.07.51.18.99.34,1.43s.37.78.65,1v.73c.07.07.16.11.27.12.11,0,.23.01.34.01s.21.01.3.04c.09.03.16.1.21.22.23.64.52,1.13.88,1.47s.75.62,1.17.86l1.25.7c.42.23.8.58,1.14,1.03.14-.02.29-.03.44-.04.16,0,.3-.01.44-.01.55,0,1.1.04,1.63.12.53.08,1.06.12,1.6.12.57,0,1.09-.15,1.55-.44.46-.29.85-.67,1.18-1.12.21-.29.4-.55.57-.75.17-.21.35-.4.53-.59s.38-.36.6-.52c.22-.16.47-.35.77-.56.1-.07.23-.16.38-.26.15-.1.29-.22.44-.35.15-.13.27-.26.38-.39.1-.13.16-.26.16-.38,0-.16-.02-.31-.06-.47-.04-.16-.07-.31-.07-.47,0-.17.03-.38.08-.62.05-.24.13-.48.25-.7.11-.23.25-.41.42-.56.16-.15.37-.22.61-.22.19,0,.38.04.57.13.19.09.36.19.52.31.03-.17.05-.3.05-.39Z"/><path class="cls-1" d="m128.35,136.44c0,.31,0,.63-.01.95,0,.32-.05.63-.12.92-.04.16-.11.33-.23.51-.12.18-.26.36-.43.52-.17.16-.34.3-.53.42-.19.11-.36.17-.52.17-.26,0-.43-.1-.49-.31-.07-.21-.12-.43-.14-.68-.03-.24-.08-.47-.16-.68-.08-.21-.26-.31-.53-.31-.09,0-.16.02-.22.05-.06.03-.13.05-.22.05-.03,0-.07-.1-.1-.31-.03-.21-.08-.46-.13-.75-.05-.29-.11-.59-.18-.9-.07-.3-.15-.56-.23-.77-.16-.33-.32-.67-.48-1.03-.17-.36-.25-.73-.25-1.13,0-.28.05-.52.16-.72.1-.2.22-.39.34-.56.12-.17.23-.35.34-.52.1-.17.16-.38.16-.62,0-.35-.11-.65-.34-.91-.23-.26-.51-.47-.85-.64s-.69-.29-1.07-.36c-.37-.08-.7-.12-.98-.12-.47,0-.92.06-1.37.17-.44.11-.88.25-1.33.4-.44.16-.88.32-1.31.49-.43.17-.87.32-1.3.44.09.24.14.49.17.75.03.26.04.52.04.78,0,.59-.03,1.18-.08,1.76-.05.58-.08,1.17-.08,1.76,0,.64.03,1.28.1,1.91.07.63.14,1.26.22,1.89.08.62.15,1.25.22,1.89.07.63.1,1.26.1,1.89,0,.76-.13,1.51-.39,2.24-.05.14-.08.25-.08.34,0,.19.04.38.13.56.09.18.19.37.3.57.11.2.21.4.3.61.09.21.13.43.13.65,0,.21-.03.41-.1.6-.07.19-.1.38-.1.57,0,.28.04.55.12.81.08.26.12.53.12.81,0,.16-.04.25-.12.29-.08.03-.17.05-.27.05s-.2,0-.27.01c-.08,0-.12.06-.12.14,0,.26.06.51.17.74.11.23.17.48.17.74,0,.23-.05.44-.14.64-.1.2-.14.41-.14.64s.1.43.3.6c.2.17.34.38.43.62.09.3.16.63.22,1.01.06.38.18.75.36,1.09.18.35.46.64.85.87.38.23.95.35,1.69.35h.75c.21,0,.46.02.77.05.3.03.6.1.88.2.29.1.53.23.73.42.2.18.3.41.3.69s-.05.55-.16.81c-.1.26-.16.53-.16.81,0,.09.02.22.05.39-.26,0-.49.06-.69.17-.2.11-.34.3-.43.56-.35-.07-.7-.12-1.05-.14-.36-.03-.71-.04-1.05-.04-.88,0-1.76.06-2.63.19-.87.13-1.74.27-2.61.42-.88.15-1.75.29-2.63.42-.88.13-1.76.2-2.64.2-.3,0-.66,0-1.09-.03-.43-.02-.85-.08-1.25-.18-.4-.1-.74-.26-1.03-.48-.29-.22-.43-.53-.43-.95,0-.49.05-.85.14-1.08.1-.23.21-.4.35-.49.14-.1.3-.15.48-.17.18-.02.36-.05.53-.1.05-.05.08-.1.08-.16,0-.09-.04-.16-.12-.22-.08-.06-.16-.11-.25-.14.29-.26.63-.44,1-.55.37-.1.75-.17,1.14-.21.39-.03.78-.07,1.18-.1.4-.03.77-.12,1.12-.26.14-.05.29-.2.44-.44.16-.24.3-.51.43-.81.13-.29.23-.59.31-.88.08-.29.12-.52.12-.68v-.05c-.12-.83-.22-1.65-.29-2.45-.07-.8-.1-1.61-.1-2.44,0-.07.03-.19.08-.35.05-.16.12-.33.21-.51.07-.19.16-.41.29-.65-.14-.23-.26-.43-.36-.62-.09-.17-.17-.34-.23-.49-.07-.16-.1-.28-.1-.36,0-.21.03-.41.1-.6s.12-.38.16-.57c.1-.73.16-1.47.16-2.21,0-.31-.02-.62-.07-.92-.04-.3-.1-.6-.17-.9-.23-1.06-.34-2.15-.34-3.28,0-1.32.09-2.63.26-3.93.17-1.3.26-2.61.26-3.93,0-.45-.08-.8-.23-1.05-.16-.25-.46-.45-.91-.59-.61-.17-1.24-.31-1.89-.42s-1.3-.16-1.94-.16c-.49,0-.99.06-1.52.17-.53.11-1.01.3-1.46.55-.44.25-.81.58-1.09.99-.29.41-.43.9-.43,1.47,0,.3.02.58.05.86.03.28.05.56.05.86,0,.28-.06.52-.17.72-.11.2-.17.39-.17.59,0,.26.07.5.21.73.14.23.21.47.21.73,0,.17-.04.36-.12.57s-.17.42-.27.64c-.1.22-.2.43-.3.64-.1.21-.17.4-.22.57-.09.26-.2.49-.34.68-.14.19-.36.29-.65.29-.24,0-.47-.08-.68-.25-.21-.16-.31-.37-.31-.61,0-.19.05-.34.14-.46.1-.11.14-.25.14-.4,0-.17-.03-.35-.1-.53-.07-.18-.15-.36-.25-.55-.1-.18-.18-.37-.25-.56-.07-.19-.1-.38-.1-.57,0-.24.04-.48.12-.7.08-.23.12-.46.12-.7,0-.52-.08-1.03-.25-1.53s-.25-1.01-.25-1.53c0-.47.05-1.02.16-1.66.1-.64.28-1.26.53-1.85.25-.59.58-1.09.99-1.5s.92-.61,1.55-.61c.43,0,.86.05,1.29.14.42.1.86.14,1.31.14.5,0,1.01-.04,1.51-.13.5-.09,1.01-.13,1.51-.13.35,0,.67.06.98.17.3.11.63.17.98.17.21,0,.39-.05.53-.14.15-.1.32-.14.51-.14.21,0,.41.05.61.14.2.1.4.14.61.14.19,0,.37-.03.53-.08.16-.05.33-.08.51-.08.26,0,.52.03.77.1.25.07.5.1.74.1l3.15-.39c.47-.03.94-.07,1.4-.1.47-.03.95-.05,1.43-.05.83,0,1.66.06,2.48.2.82.13,1.65.29,2.48.48v.03c.57.14.98.43,1.22.88.24.45.4.97.48,1.55.08.58.11,1.18.09,1.78-.02.61,0,1.13.03,1.56.05.66.12,1.32.2,1.99.08.67.12,1.33.12,1.99Z"/><path class="cls-1" d="m159.82,159.04c0,.3-.05.57-.16.83-.1.26-.2.53-.29.81-.07.24-.12.44-.14.6-.03.16-.06.29-.12.4-.05.11-.13.22-.25.31-.11.1-.29.2-.53.33-.52.28-1.07.56-1.65.85-.58.29-1.17.43-1.76.43-.5,0-.98-.12-1.42-.35-.44-.23-.85-.49-1.22-.78-.37-.29-.71-.55-1.01-.79-.3-.24-.56-.36-.77-.36-.23,0-.42.06-.59.18-.17.12-.33.25-.49.39-.16.14-.35.27-.55.39-.2.12-.45.18-.74.18-.24,0-.49.04-.75.13-.26.09-.52.19-.78.3-.26.11-.52.23-.79.34-.27.11-.52.2-.74.27-.78.21-1.56.33-2.35.36-.79.03-1.58.05-2.38.05-.21,0-.53,0-.96-.01-.43,0-.87-.05-1.31-.13-.44-.08-.83-.2-1.17-.38-.34-.17-.51-.42-.51-.73,0-.07,0-.13.03-.18-.12.14-.26.25-.42.34s-.33.13-.52.13c-.28,0-.62-.19-1.01-.57-.4-.38-.78-.82-1.14-1.33s-.68-1-.94-1.5c-.26-.49-.39-.86-.39-1.11,0-.19.06-.36.17-.52.11-.16.17-.33.17-.52,0-.24-.03-.47-.09-.69-.06-.22-.09-.45-.09-.69,0-.31.06-.65.18-1,.12-.36.27-.71.44-1.07.17-.36.36-.7.55-1.04s.36-.65.52-.95c.17-.35.42-.62.73-.83s.64-.39.99-.55c.35-.16.69-.31,1.04-.47.35-.16.65-.36.91-.62.26.3.6.44,1.01.44s.86-.06,1.27-.2c.42-.13.84-.2,1.27-.2.35,0,.68.04,1,.1.32.07.65.1,1,.1.38,0,.66-.05.85-.14.18-.1.41-.26.69-.51.28-.24.63-.43,1.05-.56s.87-.23,1.33-.31c.46-.08.92-.16,1.38-.25s.87-.21,1.24-.38c.36-.16.66-.39.88-.68.23-.29.34-.68.34-1.18,0-.55-.16-1.14-.48-1.76-.32-.62-.73-1.18-1.24-1.69-.5-.51-1.06-.93-1.66-1.26-.61-.33-1.19-.49-1.74-.49-.07,0-.14,0-.21.03s-.13.03-.18.03c-.42.07-.88.12-1.4.14-.52.03-1.01.1-1.46.23-.45.13-.83.35-1.14.65-.31.3-.47.75-.47,1.34,0,.35.03.69.09,1.03.06.34.09.68.09,1.03,0,.52-.13.95-.38,1.3-.25.35-.57.62-.96.83-.39.21-.82.35-1.29.43-.47.08-.92.12-1.35.12-.52,0-.97-.07-1.35-.21-.38-.14-.69-.46-.94-.96-.19-.36-.39-.76-.61-1.18-.22-.42-.33-.85-.33-1.29,0-.47.08-.91.25-1.31.16-.41.35-.81.56-1.2s.41-.78.61-1.17c.2-.39.34-.81.43-1.26.12-.07.29-.14.51-.21.22-.07.45-.14.7-.21.25-.07.49-.13.73-.2.23-.06.43-.12.59-.17.42-.12.82-.26,1.21-.43.39-.16.79-.32,1.2-.46.41-.14.81-.26,1.22-.36.41-.1.83-.16,1.26-.18l.81-.03c.75,0,1.51.07,2.29.2s1.54.33,2.29.61c.75.28,1.45.62,2.12,1.03.67.41,1.26.89,1.78,1.44.38.42.7.91.95,1.47.25.56.45,1.16.6,1.78.15.62.25,1.25.31,1.89.06.63.09,1.22.09,1.76,0,.73-.02,1.44-.07,2.15s-.06,1.42-.06,2.15.04,1.38.12,2.07c.08.69.17,1.37.27,2.05.1.69.2,1.37.27,2.05.08.69.12,1.37.12,2.04.03.42.09.67.17.77.08.1.16.14.25.14.38,0,.69-.12.92-.35s.45-.49.64-.78c.19-.29.4-.55.62-.79.23-.24.51-.36.86-.36.16,0,.32,0,.48.03.16.02.32.06.46.12.14.06.25.15.34.26.09.11.13.26.13.46Zm-8.56-6.48c0-.1,0-.29-.01-.55,0-.26-.03-.52-.06-.79-.04-.27-.09-.51-.17-.72-.08-.21-.2-.31-.35-.31-.03,0-.08.01-.13.04s-.1.04-.13.04c-.66.36-1.22.66-1.69.9-.47.23-.93.43-1.39.57s-.95.25-1.47.3c-.52.05-1.17.08-1.95.08-.1,0-.39.04-.86.13-.47.09-.98.19-1.53.3-.56.11-1.07.23-1.56.34-.49.11-.79.19-.91.22-.23.09-.39.17-.48.26-.1.09-.17.18-.22.29s-.1.21-.16.33c-.05.11-.15.23-.29.35-.17.14-.36.25-.56.34s-.39.22-.56.39c-.26.26-.5.6-.73,1.03-.23.43-.34.83-.34,1.21,0,.47.12.88.36,1.25.24.36.56.68.96.94.4.26.85.49,1.35.68.5.19,1.01.34,1.52.44.51.1,1.01.18,1.48.23.48.05.89.08,1.24.08.42,0,.91-.03,1.48-.09.57-.06,1.14-.16,1.72-.29.57-.13,1.11-.31,1.61-.53.5-.23.9-.51,1.2-.86.12-.14.21-.26.26-.38.05-.11.11-.23.17-.34.06-.11.13-.23.21-.35.08-.12.2-.25.38-.39.4-.33.71-.69.92-1.09.22-.4.38-.81.48-1.25.1-.43.16-.88.18-1.35.02-.47.03-.95.03-1.43Z"/><path class="cls-1" d="m188.14,150.23c0,.3-.07.56-.21.78-.14.23-.38.35-.73.36.1.33.26.64.47.94.21.3.31.62.31.99,0,.24-.04.48-.12.72-.08.23-.16.46-.26.69-.1.23-.2.45-.3.68-.1.23-.18.45-.23.68-.09.35-.28.84-.59,1.47-.3.63-.64,1.29-1.01,1.96-.37.68-.75,1.3-1.13,1.89-.38.58-.7.99-.96,1.24-.19.17-.39.29-.6.36-.21.07-.42.12-.62.16-.21.03-.43.06-.65.09-.23.03-.44.08-.65.17-.42.19-.81.41-1.18.66s-.79.38-1.26.38c-.19,0-.36-.04-.52-.13-.16-.09-.31-.18-.46-.29-.15-.1-.3-.2-.46-.29-.16-.09-.33-.13-.52-.13-.23.14-.51.25-.86.34-.35.09-.71.16-1.08.21-.37.05-.74.09-1.09.1-.36.02-.66.03-.92.03-.87,0-1.6-.19-2.19-.59s-1.14-.91-1.64-1.57c-.12.03-.25.1-.39.18-.14.09-.28.18-.42.29-.14.1-.27.2-.39.27-.12.08-.22.12-.29.12l-.05-.34-.16-.18c-.16,0-.29.05-.4.14-.11.1-.22.2-.31.33-.1.12-.2.23-.31.33-.11.1-.26.14-.43.14-.19,0-.37-.03-.55-.09-.17-.06-.26-.21-.26-.46,0-.19.04-.36.12-.51.08-.15.12-.32.12-.51,0-.23-.03-.44-.08-.65-.05-.21-.08-.42-.08-.62,0-.23.02-.44.06-.65s.07-.42.07-.65c0-.26-.04-.52-.12-.78-.08-.26-.16-.52-.25-.77-.09-.25-.17-.5-.25-.75-.08-.25-.12-.52-.12-.79,0-.36.08-.71.23-1.04.16-.33.23-.68.23-1.04,0-.12-.02-.22-.05-.3-.03-.08-.07-.15-.1-.21-.03-.06-.07-.14-.1-.23-.03-.1-.05-.24-.05-.43s0-.39.01-.61c0-.22.01-.37.01-.46,0-.28-.03-.55-.08-.81-.05-.26-.08-.53-.08-.81,0-.45.06-.9.18-1.35.12-.45.18-.9.18-1.35,0-.61-.05-1.21-.14-1.82-.1-.61-.14-1.22-.14-1.85,0-.23.03-.45.09-.68.06-.23.13-.45.21-.68.08-.23.15-.45.21-.66.06-.22.09-.45.09-.69,0-.47-.03-.93-.1-1.38-.07-.45-.14-.91-.22-1.37-.08-.46-.15-.92-.21-1.38-.06-.46-.09-.92-.09-1.39,0-.28,0-.55.01-.82,0-.27.01-.54.01-.82,0-.83-.14-1.45-.42-1.86-.28-.41-.63-.7-1.05-.88-.43-.18-.88-.29-1.37-.33-.49-.03-.94-.09-1.37-.17-.42-.08-.78-.23-1.05-.44-.28-.22-.42-.59-.42-1.13,0-.47.12-.84.36-1.12.24-.28.54-.49.9-.64s.74-.24,1.16-.29c.42-.04.8-.07,1.14-.07.9,0,1.79.08,2.68.25.88.16,1.78.26,2.68.3.21.05.34.15.39.29.05.14.06.31.04.52s-.06.44-.12.7c-.05.26-.08.54-.08.83,0,.57-.01,1.14-.04,1.72-.03.57-.04,1.09-.04,1.56,0,.16,0,.43.01.83,0,.4.03.85.05,1.34s.07,1.01.13,1.56c.06.55.14,1.04.23,1.48.1.44.21.81.35,1.11.14.3.31.44.52.44.17,0,.33-.04.48-.13.15-.09.29-.19.43-.31.14-.12.27-.25.4-.38s.27-.23.43-.3c.36-.16.77-.27,1.21-.35s.87-.12,1.29-.12c.16,0,.31-.04.47-.13.16-.09.31-.18.47-.27.16-.1.32-.19.49-.27.17-.09.36-.13.57-.13.24,0,.48.04.72.12.23.08.46.17.68.27.22.1.44.2.68.3.23.1.47.15.72.17.35.04.7.07,1.05.12.36.04.7.13,1.03.27.19.09.33.19.42.31.09.12.21.23.36.31.19.12.37.19.55.21.17.02.35.03.52.05.17.02.36.06.55.12.19.06.41.19.65.38.24.21.5.42.77.64.27.22.52.45.75.69.23.24.44.5.62.78.18.28.31.58.38.91.12.66.3,1.39.55,2.18.24.8.55,1.47.94,2.03.28.4.51.83.69,1.3.18.47.27.95.27,1.46Zm-2.68,1.07c-.02-.23-.11-.4-.27-.52-.17-.12-.34-.22-.52-.3-.18-.08-.33-.16-.44-.25-.11-.09-.13-.22-.04-.39.03-.14.09-.23.17-.27s.16-.07.25-.07c-.04-.31-.18-.68-.44-1.09s-.45-.8-.57-1.14c-.1-.26-.17-.5-.21-.73-.04-.23-.09-.43-.16-.62-.07-.19-.17-.37-.3-.53-.13-.16-.33-.33-.61-.51-.21-.12-.38-.22-.51-.29-.13-.07-.24-.14-.34-.22-.1-.08-.18-.18-.26-.3-.08-.12-.17-.3-.27-.55-.1-.28-.23-.47-.38-.59-.15-.11-.31-.2-.49-.25-.18-.05-.38-.1-.6-.13-.22-.03-.44-.1-.66-.18-.57-.21-1.12-.39-1.64-.53s-1.09-.22-1.72-.22c-1.18,0-2.17.18-2.98.53-.81.36-1.47.86-1.99,1.51s-.91,1.42-1.18,2.31c-.27.89-.45,1.87-.53,2.93-.04.42-.1.83-.2,1.25-.1.42-.2.83-.3,1.24-.1.41-.2.82-.29,1.24-.09.42-.13.83-.13,1.25,0,.19,0,.33.03.4.02.08.1.19.23.33.29.35.46.71.51,1.09.04.38.08.75.1,1.11.03.36.1.68.22.96.12.29.4.5.83.64.26.09.46.18.59.27.13.1.24.2.33.33.09.12.17.26.25.4.08.15.19.31.33.48.36-.09.74-.15,1.12-.18.38-.03.75-.1,1.12-.18,0,.23.11.41.33.55.22.14.47.24.77.31.29.07.59.12.9.14.3.03.53.04.69.04.29,0,.61-.01.94-.04.33-.03.65-.08.95-.17.3-.09.59-.21.86-.38.27-.16.48-.39.64-.69.26-.45.57-.78.92-.98.36-.2.71-.38,1.07-.53.36-.16.68-.35.99-.59.3-.23.53-.6.69-1.11.19-.61.39-1.23.6-1.86.21-.63.31-1.28.31-1.94,0-.23-.02-.45-.07-.66-.04-.22-.11-.43-.2-.64.21.1.42.23.64.39.22.16.45.23.69.23.09,0,.15-.03.2-.09.04-.06.07-.13.07-.22Z"/><path class="cls-1" d="m218.84,162.24c0,.61-.2,1.09-.61,1.44-.41.36-.9.62-1.47.81-.57.18-1.17.3-1.78.35-.62.05-1.14.08-1.57.08-.57,0-1.04-.05-1.42-.16-.37-.1-.7-.21-.98-.33-.28-.11-.52-.22-.73-.33s-.43-.16-.65-.16c-.29,0-.59.05-.87.16-.29.1-.58.16-.87.16-.21,0-.38-.03-.51-.1-.13-.07-.24-.15-.33-.25-.09-.1-.17-.18-.25-.25-.08-.07-.17-.1-.27-.1-.12,0-.22.05-.29.14-.07.1-.15.2-.23.33s-.21.23-.38.33c-.17.1-.4.14-.72.14-.36,0-.72-.04-1.07-.12-.35-.08-.7-.12-1.07-.12s-.72.07-1.08.2c-.36.13-.69.2-1,.2-.14,0-.24-.05-.31-.14-.07-.1-.15-.14-.23-.14-.3,0-.6.07-.92.21-.32.14-.65.21-.98.21-.17,0-.34-.02-.51-.06-.17-.04-.33-.07-.51-.07-.29,0-.59.07-.88.21-.3.14-.66.21-1.09.21-.16,0-.5-.02-1.03-.06-.53-.04-1.07-.11-1.63-.2-.56-.09-1.05-.2-1.5-.33-.44-.13-.66-.27-.66-.43,0-.45.08-.9.25-1.35.16-.45.25-.88.25-1.3v-.05c-.23,0-.36-.12-.39-.36.03-.07.09-.13.17-.17.08-.04.16-.08.25-.1.09-.03.16-.06.23-.12.07-.05.1-.13.1-.23v-.1c.69.07,1.37.11,2.04.13.67.02,1.37.03,2.09.03.68,0,1.43-.02,2.25-.07.82-.04,1.59-.17,2.29-.38s1.29-.52,1.77-.95c.48-.42.72-1.02.72-1.78v-.6c-.09-1.91-.18-3.78-.27-5.63-.1-1.85-.14-3.72-.14-5.63,0-.5-.04-.99-.12-1.47-.08-.48-.12-.96-.12-1.44,0-.61.11-1.21.33-1.82.22-.61.56-1.12,1.03-1.53-.02-.1-.06-.18-.13-.22-.07-.04-.16-.07-.26-.09-.1-.02-.2-.03-.3-.05-.1-.02-.18-.04-.25-.08-.1-.05-.17-.17-.21-.36-.03-.19-.06-.4-.09-.62-.03-.23-.05-.45-.08-.66-.03-.22-.08-.39-.17-.51.05-.5.14-1,.26-1.48.12-.49.18-.98.18-1.48,0-.36-.05-.65-.14-.86-.1-.21-.2-.38-.33-.52-.12-.14-.23-.26-.33-.38-.1-.11-.14-.26-.14-.43,0-.14.04-.27.13-.39l-.21-.03c-.17,0-.3.04-.39.13-.09.09-.17.18-.25.29-.08.1-.16.2-.25.29-.09.09-.21.13-.36.13-.12,0-.26-.03-.42-.08-.3.09-.57.13-.83.13-.61,0-1.21-.08-1.81-.25-.6-.16-1.2-.25-1.81-.25-.33,0-.65.01-.96.04-.31.03-.62.04-.94.04-.45,0-.9-.05-1.35-.16-.45-.1-.85-.33-1.2-.68v-.31c0-.92.31-1.61.92-2.08.61-.47,1.37-.7,2.25-.7.61,0,1.2.08,1.79.23.59.16,1.19.23,1.79.23.33,0,.68-.03,1.04-.1.36-.07.74-.15,1.12-.23.38-.09.77-.16,1.16-.23.39-.07.78-.1,1.16-.1.59,0,1.14.13,1.66.38.52.25,1.04.49,1.56.72l-.03.21c0,.16.04.3.12.43.08.13.17.26.27.39.1.13.2.26.27.39.08.13.12.27.12.43s-.02.31-.06.46c-.04.15-.07.3-.07.46,0,.38.07.75.22,1.09.15.35.22.72.22,1.12s-.05.82-.14,1.22c-.1.4-.14.81-.14,1.22,0,.5.06,1.01.18,1.51.12.5.18,1.01.18,1.51,0,.42-.06.82-.2,1.22-.13.4-.2.8-.2,1.2,0,.29.04.59.12.87.08.29.17.57.27.85.1.28.2.56.27.85.08.29.12.59.12.9v.52c0,.28-.02.54-.07.79-.04.25-.16.49-.35.72.09.33.18.69.27,1.07.1.38.14.75.14,1.09,0,.17-.01.36-.04.56-.03.2-.07.4-.13.6-.06.2-.14.38-.25.55-.1.17-.23.3-.36.4.23.66.37,1.33.44,2,.07.68.12,1.35.16,2.03.02.21.05.48.1.81s.1.65.16.98c.05.32.1.62.14.88.04.27.06.46.06.56,0,.29-.05.58-.16.86-.1.28-.16.56-.16.86,0,.23.05.46.16.72.1.25.29.38.57.38.21,0,.39-.05.53-.14.15-.1.31-.2.48-.31.17-.11.38-.22.61-.31.23-.1.55-.14.95-.14.45,0,.88.06,1.27.18.4.12.82.18,1.27.18.33,0,.66-.03,1-.09.34-.06.67-.13.99-.21.32-.08.65-.15.98-.22.33-.07.67-.1,1.01-.1.69,0,1.28.2,1.76.6.48.4.72.99.72,1.77Zm-14.93-32.38c-.07-.07-.15-.14-.25-.21-.1-.07-.2-.1-.33-.1-.09,0-.16.04-.22.12s-.09.16-.09.25l.13.31c.07.04.12.05.16.05.14,0,.26-.05.35-.14.1-.1.18-.19.25-.27Zm1.56,7.23c0-.14-.04-.28-.12-.43-.08-.15-.2-.22-.38-.22-.05,0-.11,0-.17.03-.06.02-.11.03-.14.05v1.12c.14.07.24.1.31.1.17,0,.3-.07.38-.22.08-.15.12-.29.12-.43Z"/><path class="cls-1" d="m245.68,158.16c0,.47-.07.87-.22,1.2-.15.33-.34.62-.57.88-.23.26-.5.5-.81.73-.3.23-.61.47-.92.73-.24.21-.46.36-.65.47s-.38.19-.56.26c-.18.07-.37.14-.57.21-.2.07-.43.16-.69.29-.35.17-.64.33-.87.48-.23.15-.47.28-.7.4-.23.12-.49.22-.77.3-.28.08-.62.14-1.04.2-.69.09-1.39.19-2.09.31-.7.12-1.4.18-2.09.18-.14,0-.28-.03-.43-.09-.15-.06-.32-.12-.51-.18-.19-.06-.4-.12-.64-.18-.23-.06-.52-.09-.85-.09-.35,0-.62-.05-.83-.16s-.39-.23-.56-.36c-.16-.14-.33-.29-.51-.46-.17-.16-.4-.31-.68-.43-1.04-.47-1.92-1.03-2.65-1.69-.73-.66-1.35-1.4-1.87-2.21-.52-.81-.95-1.7-1.3-2.65-.35-.95-.64-1.95-.88-2.99-.19-.73-.29-1.46-.29-2.18,0-.95.22-1.84.68-2.65-.17-.49-.26-.95-.26-1.4,0-.33.1-.82.29-1.47.19-.65.44-1.3.74-1.96.3-.66.63-1.25.99-1.78.36-.53.69-.85,1-.98.24-.09.41-.16.51-.22.1-.06.14-.23.14-.51,0-.21.08-.38.25-.52.16-.14.36-.25.6-.34.23-.09.47-.16.7-.23.23-.07.43-.14.59-.21.64-.31,1.25-.58,1.83-.79.58-.22,1.16-.4,1.74-.55.58-.15,1.18-.26,1.81-.33.62-.07,1.29-.1,2-.1.38,0,.75.05,1.12.16.36.1.72.24,1.05.4.34.17.67.35,1,.55.33.2.65.39.96.59h-.03c.26.03.51.11.74.22.23.11.48.19.74.22.24.3.56.58.95.85.39.27.77.55,1.14.85.37.29.69.61.96.95.27.34.4.72.4,1.16,0,.07,0,.14-.01.21,0,.07-.02.15-.04.23l.1-.13c.07.05.13.14.2.26.06.12.12.26.17.4.05.15.1.3.13.44.03.15.06.26.08.35.14.23.33.41.56.55.23.14.42.33.56.57-.17.17-.26.4-.26.68,0,.3.06.59.18.87.12.29.18.58.18.87,0,.35-.02.68-.05,1-.04.32-.05.65-.05,1,0,.26-.1.46-.3.6-.2.14-.42.26-.65.36s-.45.21-.64.31c-.19.1-.29.25-.29.44,0,.14-.08.2-.25.2-.17,0-.3-.01-.4-.01-.76,0-1.52-.1-2.28-.29-.75-.19-1.5-.29-2.25-.29-.82,0-1.62.06-2.42.17-.8.11-1.6.17-2.42.17-.61,0-1.21-.02-1.81-.05-.6-.03-1.2-.05-1.81-.05-.16,0-.45.03-.88.09s-.89.14-1.37.23c-.48.1-.93.21-1.37.34s-.74.26-.91.38c-.02.09-.03.21-.03.36,0,.82.24,1.66.72,2.52.48.87,1.11,1.66,1.89,2.37.78.71,1.66,1.3,2.63,1.77.97.47,1.95.7,2.94.7.57,0,1.14.02,1.7.06.56.04,1.11.17,1.65.38.47-.23.9-.49,1.29-.78.39-.29.77-.61,1.13-.94.36-.33.72-.67,1.07-1.01.35-.35.7-.69,1.07-1.04.07-.07.24-.13.51-.2.27-.06.56-.11.87-.16.31-.04.61-.08.9-.1.29-.03.48-.04.59-.04.4,0,.77.06,1.12.18.1.4.16.79.16,1.17Zm-3.9-10.56c0-.26-.04-.51-.13-.75-.09-.24-.16-.49-.21-.75-.09-.49-.13-.96-.13-1.42s-.07-.92-.21-1.39h-.03c0,.1-.03.2-.1.3-.07.1-.17.14-.29.14-.21,0-.41-.05-.6-.16-.19-.1-.36-.23-.49-.39-.66-.29-1.25-.57-1.78-.83-.53-.26-1.06-.49-1.59-.69-.53-.2-1.09-.36-1.69-.47-.6-.11-1.29-.17-2.07-.17-.07,0-.13,0-.2.01-.06,0-.12.04-.17.09l.13.29-.21.05c-.47.09-.85.17-1.16.25-.3.08-.58.19-.82.33-.24.14-.48.31-.72.51-.23.2-.53.46-.9.77-.17.16-.36.27-.56.35-.2.08-.4.15-.6.21-.2.06-.39.13-.57.2-.18.07-.33.18-.46.34-.12.43-.3.85-.53,1.26-.23.41-.35.84-.35,1.29,0,.26.11.49.33.69.22.2.49.37.83.51.34.14.71.26,1.12.36.41.1.81.18,1.21.23.4.05.77.09,1.11.12s.6.04.79.04c.66,0,1.31-.06,1.95-.2.64-.13,1.29-.19,1.95-.19s1.35.03,2.03.09c.68.06,1.35.09,2.03.09.17,0,.43,0,.78-.03.35-.02.69-.07,1.03-.14.34-.08.63-.19.88-.34.25-.15.38-.34.38-.59Z"/><path class="cls-1" d="m263.83,157.2c0,.62-.15,1.1-.46,1.43-.3.33-.64.59-1.01.78-.37.19-.72.35-1.03.48-.31.13-.47.32-.47.56l.16.21c.07,0,.2.01.4.04.2.03.4.07.6.12.2.05.38.11.53.18.16.07.23.15.23.23-.02.07-.05.13-.1.17-.05.04-.1.08-.16.12-.14.1-.27.17-.39.18-.12.02-.23.04-.31.06-.09.03-.17.08-.23.16-.07.08-.13.24-.18.48-.05.21-.15.36-.29.46-.14.1-.28.17-.43.23-.15.06-.28.13-.4.2-.12.07-.18.18-.18.34v.05c-.4-.29-.84-.44-1.33-.44s-1,.08-1.48.25c-.49.16-.98.25-1.48.25-.42,0-.87-.12-1.35-.36-.49-.24-.94-.55-1.35-.92-.42-.37-.76-.79-1.04-1.25-.28-.46-.42-.91-.42-1.37,0-.12.03-.23.09-.33.06-.1.13-.19.22-.27-.09-.23-.19-.37-.31-.44-.12-.07-.24-.12-.35-.16-.11-.03-.21-.09-.29-.17-.08-.08-.12-.24-.12-.48,0-.35-.02-.68-.06-1-.04-.32-.06-.65-.06-.98,0-.19.01-.38.04-.57s.08-.36.16-.51c.08-.15.19-.27.32-.36.14-.1.32-.14.55-.14h.13c-.14-.19-.25-.4-.34-.64-.09-.23-.13-.47-.13-.72,0-.03,0-.07.01-.12,0-.04.04-.07.09-.07.09,0,.17.02.25.07.08.04.16.07.25.09l.23-.1c.09-.09.13-.17.13-.26s-.03-.16-.08-.21c-.05-.05-.09-.12-.1-.21.07-.09.17-.14.3-.17.13-.03.24-.05.33-.07.23-.05.38-.11.46-.18.08-.07.13-.15.14-.25.02-.1.04-.19.06-.27.03-.09.11-.16.25-.23.1-.05.3-.1.6-.16.29-.05.61-.1.95-.16.34-.05.67-.1.99-.13.32-.03.55-.06.69-.08.1.19.32.33.64.43.32.1.69.17,1.11.22.42.05.86.1,1.33.16.47.05.9.14,1.29.26.39.12.71.3.96.52.25.23.38.53.38.91l-.03.23-.1.03c-.19,0-.36-.06-.52-.18-.16-.12-.33-.18-.52-.18-.09-.12-.24-.1-.47.07-.23.16-.43.36-.62.57-.19.22-.32.42-.39.6s.02.23.26.14c.12-.03.24-.09.35-.17.11-.08.24-.12.38-.12.07,0,.16.05.26.14.1.1.23.2.38.3.15.1.31.2.48.3.17.1.38.14.62.14.23,0,.44-.05.65-.16.07.4.15.8.23,1.2.09.4.13.81.13,1.22Zm-9.62,3.28v-.08c0-.21-.06-.36-.17-.47s-.25-.19-.4-.26c-.16-.07-.32-.13-.49-.19-.17-.06-.32-.14-.44-.25.05.97.55,1.47,1.48,1.48l.03-.23Zm3.69-3.1c-.28.02-.55.06-.82.12-.27.06-.55.09-.85.09s-.61-.07-.94-.21v1.12c.16-.09.31-.14.47-.17.16-.03.32-.04.49-.04h.55c.61,0,.97-.3,1.09-.91Zm1.95,1.2c-.1-.21-.26-.36-.47-.44l.03.05c0,.07-.04.13-.12.2-.08.06-.17.12-.27.17s-.2.1-.27.16c-.08.05-.12.1-.12.13,0,.05.05.09.16.1.1.02.17.03.21.03.12,0,.29-.03.52-.09.23-.06.34-.16.34-.3Z"/><path class="cls-1" d="m293.51,158.24c0,.17-.06.29-.2.36-.13.07-.26.14-.38.21-.19.1-.35.23-.47.36-.12.14-.23.29-.34.46-.1.16-.2.34-.29.52-.09.18-.18.35-.29.51-.24.36-.58.62-1,.75-.43.14-.85.27-1.26.39-.42.12-.79.29-1.13.51-.34.22-.55.59-.64,1.11h-.13c-.4,0-.77.07-1.11.21s-.68.29-1.01.46c-.34.16-.68.32-1.03.46-.35.14-.71.21-1.09.21-.21,0-.4-.03-.59-.1-.18-.07-.36-.15-.55-.23-.18-.09-.36-.17-.55-.23-.18-.07-.38-.1-.59-.1-.28,0-.55.02-.81.05-.26.03-.52.05-.78.05-.19,0-.42-.02-.68-.06-.26-.04-.5-.12-.73-.22-.23-.1-.42-.24-.57-.4-.16-.16-.23-.37-.23-.61,0-.09,0-.16.03-.21-.09.09-.18.14-.29.17-.1.03-.21.04-.31.04-.52,0-1-.12-1.44-.35-.44-.23-.86-.52-1.25-.86-.39-.34-.75-.7-1.09-1.09-.34-.39-.67-.75-1-1.08-.4-.4-.71-.86-.92-1.38-.22-.52-.47-1.02-.77-1.51-.62-1.01-1.01-2.02-1.14-3.06-.14-1.03-.21-2.11-.21-3.24,0-.21.01-.45.04-.72.03-.27.08-.46.17-.59.07-.09.16-.15.26-.2.1-.04.2-.09.3-.13.1-.04.18-.09.25-.14.07-.05.1-.13.1-.23,0-.24-.06-.46-.18-.66-.12-.2-.18-.42-.18-.66,0-.17.04-.32.12-.44s.16-.25.25-.39c.14-.23.26-.6.38-1.13.11-.53.23-1.06.36-1.59.13-.53.29-1,.49-1.4.2-.41.46-.61.79-.61.24,0,.47.03.68.1.21.07.43.1.68.1.21,0,.41-.03.6-.08l.03-.21c0-.21-.07-.34-.2-.39-.13-.05-.27-.09-.42-.1-.15-.02-.29-.04-.42-.07-.13-.03-.2-.12-.2-.27,0-.1.05-.2.14-.27.1-.08.21-.15.34-.21.13-.06.26-.12.4-.17.14-.05.24-.1.31-.16.17-.14.29-.27.36-.4.07-.13.13-.26.2-.38.06-.12.15-.23.27-.31.12-.09.32-.16.6-.23.24-.05.49-.08.73-.09.24,0,.49-.02.73-.03.24,0,.49-.02.73-.04.24-.02.49-.06.73-.13l-.26-.26c.09-.16.21-.28.36-.38s.33-.17.53-.22c.2-.05.4-.08.6-.09.2,0,.38-.01.53-.01.61,0,1.2.08,1.77.23.57.16,1.14.23,1.72.23.24,0,.48-.03.72-.09.23-.06.47-.09.72-.09.36,0,.71.09,1.03.27.32.18.63.35.92.51l.1.03c.16,0,.29-.06.39-.18.1-.12.21-.18.31-.18.09,0,.16.04.21.12.05.08.1.15.16.22.14.16.33.26.56.3.23.04.39.13.48.27.12.21.26.35.42.43s.31.13.47.17c.16.03.32.07.49.1.17.03.34.11.49.23v.73c.35.45.67.79.98,1.03.3.23.57.48.81.73.23.25.42.56.55.94.13.37.2.91.2,1.63,0,.76-.07,1.43-.2,2-.13.57-.36,1.05-.68,1.44-.32.39-.75.69-1.29.88-.54.2-1.21.29-2,.27l-1.69-.03c-.14-.23-.34-.54-.6-.95-.26-.41-.52-.83-.78-1.27s-.49-.86-.69-1.25c-.2-.39-.3-.69-.3-.9,0-.26.02-.52.07-.78.04-.26.07-.52.07-.78-.12-.33-.28-.6-.48-.81-.2-.21-.43-.37-.69-.48-.26-.11-.54-.19-.85-.22-.3-.03-.61-.05-.92-.05-.45,0-.9.03-1.34.1-.44.07-.87.18-1.29.34,0-.16-.04-.3-.12-.43-.08-.13-.21-.2-.4-.2-.24,0-.54.09-.88.27-.35.18-.7.4-1.05.66-.36.26-.68.53-.98.82-.3.29-.51.53-.65.74-.12.17-.29.44-.49.81-.21.36-.43.73-.66,1.09-.23.36-.48.69-.73.98-.25.29-.48.44-.69.46.05.24.12.57.21.98.09.41.16.84.23,1.29.07.45.13.88.18,1.29.05.41.08.72.08.95,0,.4.07.77.21,1.12.14.35.21.72.21,1.12,0,.3-.04.59-.12.88-.08.29-.12.59-.12.88,0,.26.04.43.12.52.08.09.24.16.48.23.28.09.47.23.59.44.11.21.21.42.29.64.08.22.17.4.29.56.11.16.32.23.61.23h.13l.31-.03c.21.28.33.59.38.94.04.35.17.66.38.94.12-.02.2-.07.23-.16.03-.09.07-.17.1-.26.03-.09.09-.16.17-.23.08-.07.22-.1.43-.1.19,0,.35.05.47.16s.23.22.34.35c.1.13.21.25.33.35.11.1.26.16.43.16.29,0,.62-.06.98-.17.36-.11.72-.24,1.09-.39.37-.15.74-.3,1.11-.46.36-.16.69-.28.99-.36.71-.21,1.38-.51,2-.91.62-.4,1.13-.93,1.51-1.59.19-.35.42-.67.69-.96.27-.29.48-.62.64-.99.17,0,.35,0,.52-.03.17-.02.36-.03.55-.03h.25c.11,0,.23,0,.35.03.12.02.23.04.33.08.1.03.14.08.14.13,0,.16-.06.28-.17.38-.11.1-.23.18-.36.26-.13.08-.25.17-.35.26-.1.1-.16.23-.16.4l.29-.03c.21,0,.49.05.83.16s.69.25,1.03.43c.34.18.63.39.88.61.25.23.38.46.38.7Zm-1.87,1.46c0-.1-.04-.2-.12-.27-.08-.08-.17-.12-.27-.12-.12,0-.23.08-.31.23-.09.16-.13.28-.13.36,0,.1.06.15.18.14.12,0,.2-.01.23-.01.09,0,.18-.02.27-.07.1-.04.14-.13.14-.27Z"/><path class="cls-1" d="m325.61,159.04c0,.3-.05.57-.16.83-.1.26-.2.53-.29.81-.07.24-.12.44-.14.6-.03.16-.06.29-.12.4-.05.11-.13.22-.25.31-.11.1-.29.2-.53.33-.52.28-1.07.56-1.65.85-.58.29-1.17.43-1.76.43-.5,0-.98-.12-1.42-.35-.44-.23-.85-.49-1.22-.78-.37-.29-.71-.55-1.01-.79-.3-.24-.56-.36-.77-.36-.23,0-.42.06-.59.18-.17.12-.33.25-.49.39-.16.14-.35.27-.55.39-.2.12-.45.18-.74.18-.24,0-.49.04-.75.13-.26.09-.52.19-.78.3-.26.11-.52.23-.79.34-.27.11-.52.2-.74.27-.78.21-1.56.33-2.35.36-.79.03-1.58.05-2.38.05-.21,0-.53,0-.96-.01-.43,0-.87-.05-1.31-.13-.44-.08-.83-.2-1.17-.38-.34-.17-.51-.42-.51-.73,0-.07,0-.13.03-.18-.12.14-.26.25-.42.34s-.33.13-.52.13c-.28,0-.62-.19-1.01-.57-.4-.38-.78-.82-1.14-1.33s-.68-1-.94-1.5c-.26-.49-.39-.86-.39-1.11,0-.19.06-.36.17-.52.11-.16.17-.33.17-.52,0-.24-.03-.47-.09-.69-.06-.22-.09-.45-.09-.69,0-.31.06-.65.18-1,.12-.36.27-.71.44-1.07.17-.36.36-.7.55-1.04s.36-.65.52-.95c.17-.35.42-.62.73-.83s.64-.39.99-.55c.35-.16.69-.31,1.04-.47.35-.16.65-.36.91-.62.26.3.6.44,1.01.44s.86-.06,1.27-.2c.42-.13.84-.2,1.27-.2.35,0,.68.04,1,.1.32.07.65.1,1,.1.38,0,.66-.05.85-.14.18-.1.41-.26.69-.51.28-.24.63-.43,1.05-.56s.87-.23,1.33-.31c.46-.08.92-.16,1.38-.25s.87-.21,1.24-.38c.36-.16.66-.39.88-.68.23-.29.34-.68.34-1.18,0-.55-.16-1.14-.48-1.76-.32-.62-.73-1.18-1.24-1.69-.5-.51-1.06-.93-1.66-1.26-.61-.33-1.19-.49-1.74-.49-.07,0-.14,0-.21.03s-.13.03-.18.03c-.42.07-.88.12-1.4.14-.52.03-1.01.1-1.46.23-.45.13-.83.35-1.14.65-.31.3-.47.75-.47,1.34,0,.35.03.69.09,1.03.06.34.09.68.09,1.03,0,.52-.13.95-.38,1.3-.25.35-.57.62-.96.83-.39.21-.82.35-1.29.43-.47.08-.92.12-1.35.12-.52,0-.97-.07-1.35-.21-.38-.14-.69-.46-.94-.96-.19-.36-.39-.76-.61-1.18-.22-.42-.33-.85-.33-1.29,0-.47.08-.91.25-1.31.16-.41.35-.81.56-1.2s.41-.78.61-1.17c.2-.39.34-.81.43-1.26.12-.07.29-.14.51-.21.22-.07.45-.14.7-.21.25-.07.49-.13.73-.2.23-.06.43-.12.59-.17.42-.12.82-.26,1.21-.43.39-.16.79-.32,1.2-.46.41-.14.81-.26,1.22-.36.41-.1.83-.16,1.26-.18l.81-.03c.75,0,1.51.07,2.29.2s1.54.33,2.29.61c.75.28,1.45.62,2.12,1.03.67.41,1.26.89,1.78,1.44.38.42.7.91.95,1.47.25.56.45,1.16.6,1.78.15.62.25,1.25.31,1.89.06.63.09,1.22.09,1.76,0,.73-.02,1.44-.07,2.15s-.06,1.42-.06,2.15.04,1.38.12,2.07c.08.69.17,1.37.27,2.05.1.69.2,1.37.27,2.05.08.69.12,1.37.12,2.04.03.42.09.67.17.77.08.1.16.14.25.14.38,0,.69-.12.92-.35s.45-.49.64-.78c.19-.29.4-.55.62-.79.23-.24.51-.36.86-.36.16,0,.32,0,.48.03.16.02.32.06.46.12.14.06.25.15.34.26.09.11.13.26.13.46Zm-8.56-6.48c0-.1,0-.29-.01-.55,0-.26-.03-.52-.06-.79-.04-.27-.09-.51-.17-.72-.08-.21-.2-.31-.35-.31-.03,0-.08.01-.13.04s-.1.04-.13.04c-.66.36-1.22.66-1.69.9-.47.23-.93.43-1.39.57s-.95.25-1.47.3c-.52.05-1.17.08-1.95.08-.1,0-.39.04-.86.13-.47.09-.98.19-1.53.3-.56.11-1.07.23-1.56.34-.49.11-.79.19-.91.22-.23.09-.39.17-.48.26-.1.09-.17.18-.22.29s-.1.21-.16.33c-.05.11-.15.23-.29.35-.17.14-.36.25-.56.34s-.39.22-.56.39c-.26.26-.5.6-.73,1.03-.23.43-.34.83-.34,1.21,0,.47.12.88.36,1.25.24.36.56.68.96.94.4.26.85.49,1.35.68.5.19,1.01.34,1.52.44.51.1,1.01.18,1.48.23.48.05.89.08,1.24.08.42,0,.91-.03,1.48-.09.57-.06,1.14-.16,1.72-.29.57-.13,1.11-.31,1.61-.53.5-.23.9-.51,1.2-.86.12-.14.21-.26.26-.38.05-.11.11-.23.17-.34.06-.11.13-.23.21-.35.08-.12.2-.25.38-.39.4-.33.71-.69.92-1.09.22-.4.38-.81.48-1.25.1-.43.16-.88.18-1.35.02-.47.03-.95.03-1.43Z"/></svg>