<svg xmlns="http://www.w3.org/2000/svg" width="146.478" height="23.749" viewBox="0 0 146.478 23.749"><path d="M2.571,17.489l3.123-1.811L11.2,18.846l2.157,1.23.025,1.262L15.95,19.85,15.925,18.6,5.657,12.69,0,15.969.008,27.847l2.569,1.482Z" transform="translate(0 -10.048)" fill="#384443"/><path d="M2.571,17.489l3.123-1.811L11.2,18.846l2.157,1.23.025,1.262L15.95,19.85,15.925,18.6,5.657,12.69,0,15.969.008,27.847l2.569,1.482Z" transform="translate(0 -10.048)" fill="#384443"/><path d="M50.365,12.419l-.029-6.5L40.043,0,37.48,1.487,47.769,7.408l.01,3.543-7.718,4.474-1.087-.6.006,2.958,1.074.616Z" transform="translate(-29.677)" fill="#384443"/><path d="M50.365,12.419l-.029-6.5L40.043,0,37.48,1.487,47.769,7.408l.01,3.543-7.718,4.474-1.087-.6.006,2.958,1.074.616Z" transform="translate(-29.677)" fill="#384443"/><path d="M38.3,48.343c.027-.847.021-1.745-.025-2.871L28.083,51.383,24.9,49.534l-.008-8.95.983-.57-2.5-1.453-1.058.612.027,11.848,5.717,3.26L38.3,48.341Z" transform="translate(-17.665 -30.532)" fill="#384443"/><path d="M28.083,51.373,24.9,49.524l-.008-8.95.983-.57-2.5-1.453-1.058.612.027,11.848,5.717,3.26L38.3,48.331c.027-.847.021-1.745-.025-2.871L28.081,51.371" transform="translate(-17.665 -30.524)" fill="#384443"/><path d="M140.14,35.19h5.875a6.57,6.57,0,0,1,2.213.362,5.284,5.284,0,0,1,1.782,1.016,4.749,4.749,0,0,1,1.212,1.545,4.406,4.406,0,0,1,.431,1.949A4.337,4.337,0,0,1,151.222,42a4.678,4.678,0,0,1-1.212,1.559,5.825,5.825,0,0,1-1.782,1.016,6.935,6.935,0,0,1-2.213.362H140.14Zm1.949,1.892v5.944h3.927a4.149,4.149,0,0,0,2.757-.918,2.7,2.7,0,0,0,.989-2.047A2.646,2.646,0,0,0,148.772,38a4.188,4.188,0,0,0-2.757-.918Z" transform="translate(-110.963 -27.864)" fill="#384443"/><path d="M226,44.934V35.19h10.483v1.753h-8.534v1.949H235.9v1.851h-7.949v2.436h8.534v1.753H226Z" transform="translate(-178.948 -27.864)" fill="#384443"/><path d="M319.031,44.934h-2.409l-7.5-7.141v7.141H307.17V35.19h2.157l7.753,7.378V35.19h1.949v9.744Z" transform="translate(-243.218 -27.864)" fill="#384443"/><path d="M395.4,37.155a5.208,5.208,0,0,1,1.337-1.6,7.1,7.1,0,0,1,8.353-.012,4.684,4.684,0,0,1,1.838,3.7,4.371,4.371,0,0,1-.5,2.061,4.883,4.883,0,0,1-1.322,1.616,6.813,6.813,0,0,1-4.191,1.364,6.651,6.651,0,0,1-4.176-1.364,4.632,4.632,0,0,1-1.838-3.675,4.517,4.517,0,0,1,.5-2.088Zm1.7,3.3a3.039,3.039,0,0,0,.822.989,5.177,5.177,0,0,0,5.988-.012,2.944,2.944,0,0,0,.835-.989,2.562,2.562,0,0,0,.291-1.2,2.616,2.616,0,0,0-.291-1.224,3.425,3.425,0,0,0-.822-.989,5.2,5.2,0,0,0-6,.012,2.768,2.768,0,0,0-.822.989,2.664,2.664,0,0,0,0,2.423Z" transform="translate(-312.683 -27.072)" fill="#384443"/><path d="M486.881,35.19h2.3l-5.694,9.744h-2.519L475.27,35.19h2.3l4.664,7.976,4.649-7.976Z" transform="translate(-376.321 -27.864)" fill="#384443"/><path d="M569.23,35.25h1.949v9.744H569.23V35.25Z" transform="translate(-450.719 -27.911)" fill="#384443"/><path d="M615.079,35.19l5.888,9.744h-2.284l-1.2-1.963h-7.337l-1.183,1.963h-2.3l5.9-9.744Zm1.295,5.929L613.826,36.9l-2.548,4.218h5.095Z" transform="translate(-480.364 -27.864)" fill="#384443"/><path d="M692.019,71.846a1.1,1.1,0,0,1-.4-.271,1.191,1.191,0,0,1-.252-.414,1.584,1.584,0,0,1-.087-.539,1.482,1.482,0,0,1,.1-.554,1.237,1.237,0,0,1,.273-.416,1.182,1.182,0,0,1,.406-.26,1.357,1.357,0,0,1,.493-.092,1.4,1.4,0,0,1,.52.094,1.177,1.177,0,0,1,.406.266,1.218,1.218,0,0,1,.264.414,1.507,1.507,0,0,1,.094.545,1.461,1.461,0,0,1-.106.577,1.187,1.187,0,0,1-.285.412,1.218,1.218,0,0,1-.412.248,1.411,1.411,0,0,1-.481.085A1.39,1.39,0,0,1,692.019,71.846Zm1.224-.45a1.261,1.261,0,0,0,.006-1.543.914.914,0,0,0-.7-.275.9.9,0,0,0-.693.275,1.275,1.275,0,0,0,0,1.539.917.917,0,0,0,.693.271.927.927,0,0,0,.691-.266Zm-.431-1.4a.485.485,0,0,1,.171.087.271.271,0,0,1,.081.125.457.457,0,0,1,.021.137.427.427,0,0,1-.046.219.385.385,0,0,1-.16.139l.267.52h-.333l-.219-.454h-.248v.454h-.3V69.966h.485A.955.955,0,0,1,692.812,70Zm-.069.479a.2.2,0,0,0,.04-.125.132.132,0,0,0-.054-.108.336.336,0,0,0-.2-.042h-.181v.327h.219c.094,0,.152-.017.179-.052Z" transform="translate(-547.358 -54.872)" fill="#384443"/></svg>