<svg xmlns="http://www.w3.org/2000/svg" xmlns:xlink="http://www.w3.org/1999/xlink" viewBox="0 0 431.52 250"><defs><style>.cls-1{fill:url(#linear-gradient);}.cls-2{fill:url(#linear-gradient-3);}.cls-3{fill:url(#linear-gradient-5);}.cls-4{fill:url(#linear-gradient-6);}.cls-5{fill:#f1f1e8;}</style><linearGradient id="linear-gradient" x1="704.65" y1="444.19" x2="707.1" y2="442.63" gradientTransform="matrix(15.95, 0, 0, -16.64, -11167.65, 7510.75)" gradientUnits="userSpaceOnUse"><stop offset="0" stop-color="#4dbc69"/><stop offset="0.49" stop-color="#00aee3"/><stop offset="1" stop-color="#015fd1"/></linearGradient><linearGradient id="linear-gradient-3" x1="694.38" y1="445.41" x2="697.41" y2="444.01" gradientTransform="matrix(12.89, 0, 0, -18.4, -8870.29, 8307.15)" xlink:href="#linear-gradient"/><linearGradient id="linear-gradient-5" x1="704.41" y1="443.84" x2="706.85" y2="442.19" gradientTransform="matrix(16, 0, 0, -15.72, -11199.69, 7098.91)" xlink:href="#linear-gradient"/><linearGradient id="linear-gradient-6" x1="704.41" y1="443.84" x2="706.85" y2="442.19" gradientTransform="matrix(16, 0, 0, -15.72, -11199.69, 7098.91)" xlink:href="#linear-gradient"/></defs><title>Asset 1</title><g id="Layer_2" data-name="Layer 2"><g id="Layer_1-2" data-name="Layer 1"><rect width="431.52" height="250"/><path class="cls-1" d="M80.65,121.79l5.94-3.45,10.48,6,4.11,2.34,0,2.4,4.88-2.83,0-2.38L86.52,112.65l-10.76,6.24V141.5l4.89,2.82Z"/><path class="cls-1" d="M80.65,121.79l5.94-3.45,10.48,6,4.11,2.34,0,2.4,4.88-2.83,0-2.38L86.52,112.65l-10.76,6.24V141.5l4.89,2.82Z"/><path class="cls-2" d="M115.13,131.26l-.06-12.37L95.49,107.63l-4.88,2.83,19.58,11.26,0,6.75L95.52,137l-2.07-1.14v5.63l2.05,1.17Z"/><path class="cls-2" d="M115.13,131.26l-.06-12.37L95.49,107.63l-4.88,2.83,19.58,11.26,0,6.75L95.52,137l-2.07-1.14v5.63l2.05,1.17Z"/><path class="cls-3" d="M115,141.52c0-1.61,0-3.32,0-5.46l-19.4,11.25-6-3.52,0-17,1.87-1.09-4.75-2.76-2,1.16,0,22.55,10.88,6.2L115,141.52Z"/><path class="cls-4" d="M95.58,147.3l-6-3.52,0-17,1.87-1.08-4.75-2.77-2,1.17,0,22.54,10.88,6.21L115,141.51c0-1.61,0-3.32,0-5.46L95.58,147.3"/><path class="cls-5" d="M131.28,121.57h11.19a12.35,12.35,0,0,1,4.21.69,10,10,0,0,1,3.39,1.93,9,9,0,0,1,2.3,2.94,8.24,8.24,0,0,1,.82,3.71,8.12,8.12,0,0,1-.82,3.69,8.74,8.74,0,0,1-2.3,3,11.23,11.23,0,0,1-3.39,1.94,13.41,13.41,0,0,1-4.21.69H131.28Zm3.71,3.6v11.31h7.48a7.86,7.86,0,0,0,5.24-1.75,5.16,5.16,0,0,0,1.89-3.89,5,5,0,0,0-1.89-3.92,8,8,0,0,0-5.24-1.75Z"/><path class="cls-5" d="M165.3,140.11V121.57h19.95v3.33H169v3.71h15.13v3.53H169v4.63h16.24v3.34Z"/><path class="cls-5" d="M220,140.11h-4.59l-14.27-13.59v13.59h-3.72V121.57h4.11l14.75,14v-14H220v18.54Z"/><path class="cls-5" d="M233.18,126.81a9.92,9.92,0,0,1,2.54-3,13.52,13.52,0,0,1,15.9,0,8.9,8.9,0,0,1,3.49,7,8.25,8.25,0,0,1-1,3.92,9.34,9.34,0,0,1-2.51,3.08,13,13,0,0,1-8,2.59,12.66,12.66,0,0,1-7.95-2.59,8.82,8.82,0,0,1-3.49-7,8.57,8.57,0,0,1,1-4Zm3.23,6.28A5.84,5.84,0,0,0,238,135a9.86,9.86,0,0,0,11.4,0,5.55,5.55,0,0,0,1.59-1.88,4.77,4.77,0,0,0,.55-2.28,5,5,0,0,0-.55-2.33,6.59,6.59,0,0,0-1.56-1.88,9.91,9.91,0,0,0-11.42,0,5.28,5.28,0,0,0-1.57,1.88,5.06,5.06,0,0,0,0,4.61Z"/><path class="cls-5" d="M286.16,121.57h4.38L279.7,140.11h-4.79l-10.84-18.54h4.37l8.88,15.18,8.85-15.18Z"/><path class="cls-5" d="M301.29,121.59H305v18.55h-3.71Z"/><path class="cls-5" d="M332.13,121.57l11.21,18.54H339l-2.28-3.73h-14l-2.25,3.73h-4.37l11.22-18.54Zm2.47,11.28-4.85-8-4.85,8h9.7Z"/><path class="cls-5" d="M351.06,139.93a2.1,2.1,0,0,1-.76-.52,2.13,2.13,0,0,1-.48-.79,3.1,3.1,0,0,1,0-2.08,2.58,2.58,0,0,1,.52-.79,2.34,2.34,0,0,1,.78-.49,2.44,2.44,0,0,1,.93-.18,2.85,2.85,0,0,1,1,.18,2.35,2.35,0,0,1,.77.51,2.17,2.17,0,0,1,.5.79,3,3,0,0,1,.18,1,2.75,2.75,0,0,1-.2,1.1,2.41,2.41,0,0,1-.54.79,2.63,2.63,0,0,1-.79.47,2.81,2.81,0,0,1-.91.16,2.72,2.72,0,0,1-1-.19Zm2.33-.86a2.39,2.39,0,0,0,0-2.93,1.75,1.75,0,0,0-1.33-.53,1.71,1.71,0,0,0-1.32.53,2.4,2.4,0,0,0,0,2.92,1.77,1.77,0,0,0,1.32.52,1.79,1.79,0,0,0,1.32-.5Zm-.82-2.66a.88.88,0,0,1,.32.16.54.54,0,0,1,.16.24,1.17,1.17,0,0,1,0,.26.76.76,0,0,1-.09.42.69.69,0,0,1-.3.26l.5,1h-.63l-.42-.86h-.47v.86h-.57v-2.39H352a2.48,2.48,0,0,1,.54.06Zm-.13.91a.34.34,0,0,0,.07-.24.22.22,0,0,0-.1-.2.56.56,0,0,0-.38-.08h-.34v.62h.41c.18,0,.29,0,.34-.1Z"/></g></g></svg>