<?xml version="1.0" encoding="UTF-8"?><svg id="Layer_1" xmlns="http://www.w3.org/2000/svg" viewBox="0 0 431.52 250"><defs><style>.cls-1{fill:#fff;}.cls-2{fill:#d32935;}</style></defs><path class="cls-1" d="m89.19,157.34h.13c.29-1.11,1.21-1.64,2.09-2.21.57-.37,1.17-.72,1.69-1.15.42-.35.78-.8,1.11-1.25.45-.62.75-1.32.98-2.07.19-.59.3-1.19.43-1.79.1-.46.22-.92.2-1.4-.01-.3.08-.61.12-.92,0-.05.01-.1.01-.14.06-1.27.15-2.54.16-3.81.03-4.87.03-9.75.04-14.62,0-7.98,0-15.96,0-23.94,0-.9-.03-1.79-.06-2.69-.01-.31-.09-.62-.13-.93-.04-.29-.03-.58-.08-.87-.19-1-.56-1.91-1.28-2.64-.46-.47-1.01-.84-1.58-1.17-.58-.33-1.18-.63-1.76-.96-.29-.17-.58-.37-.82-.6-.35-.34-.6-.75-.61-1.27,0-.28-.02-.57.02-.84.04-.33.26-.58.49-.78.7-.65,1.54-.92,2.49-.9.33,0,.65-.07.98-.07,6.95,0,13.9,0,20.85,0,.62,0,1.23.1,1.84.13.41.01.76.13,1.11.28.53.22.92.63,1.12,1.17.33.87.13,1.64-.52,2.3-.23.23-.49.4-.77.55-.36.2-.71.42-1.07.63-.1.06-.2.12-.31.18-.86.43-1.63.98-2.25,1.72-.44.52-.7,1.14-.89,1.79-.11.39-.22.79-.29,1.19-.06.31-.06.63-.08.94-.02.23-.06.45-.06.68,0,.15.06.31.05.46,0,6.37-.02,12.74-.04,19.12,0,.38.04.75.03,1.13-.01.41.35.65.71.47.17-.09.33-.21.47-.35,1.16-1.21,2.32-2.43,3.48-3.65,2.2-2.31,4.4-4.62,6.59-6.93,1.88-1.97,3.75-3.95,5.63-5.93,1.24-1.31,2.46-2.64,3.57-4.06.74-.94,1.45-1.89,1.92-2.99.2-.47.36-.96.47-1.46.13-.59-.01-1.16-.38-1.63-.3-.39-.65-.73-.99-1.08-.28-.29-.6-.55-.86-.85-.56-.64-.67-1.4-.45-2.21.11-.42.36-.74.74-.97.5-.31,1.05-.47,1.63-.52.46-.05.93-.08,1.4-.08,6.59,0,13.19,0,19.78,0,.52,0,1.05.03,1.56.16.83.2,1.46.68,1.75,1.54.15.45.09.87-.05,1.31-.18.56-.58.9-1.04,1.21-.75.52-1.6.85-2.43,1.2-2.4,1-4.6,2.34-6.71,3.85-2.26,1.62-4.36,3.43-6.41,5.29-2.95,2.67-5.74,5.49-8.52,8.34-1.5,1.54-3,3.08-4.5,4.61-.32.32-.66.62-.98.94-.21.21-.36.48-.59.64-.33.23-.52.57-.78.85-.1.11-.21.23-.11.39.09.14.23.23.4.2.3-.06.6-.12.89-.2.89-.25,1.78-.31,2.68-.04.51.15.97.4,1.4.71,1.11.78,2.05,1.75,2.93,2.78,1.06,1.24,1.98,2.59,2.85,3.96,1.43,2.24,2.82,4.51,4.23,6.76,1.22,1.95,2.45,3.9,3.68,5.85.36.57.75,1.11,1.12,1.67.26.41.49.84.76,1.24.47.71.96,1.41,1.45,2.11.64.92,1.28,1.84,1.93,2.76.45.64.88,1.28,1.35,1.9.43.57.9,1.11,1.36,1.65.81.94,1.69,1.82,2.65,2.6.33.27.7.47,1.06.69.55.35,1.12.65,1.64,1.04.51.39.92.88,1.01,1.56.1.79-.11,1.47-.77,1.95-.61.44-1.3.69-2.05.69-1.25,0-2.5,0-3.76,0-2.5,0-5.01,0-7.51-.02-.59,0-1.18-.02-1.76-.07-.97-.09-1.95-.15-2.89-.39-1.12-.27-2.11-.83-3.05-1.47-.69-.47-1.31-1.03-1.87-1.65-.67-.75-1.26-1.55-1.83-2.36-1.7-2.44-3.21-4.99-4.74-7.54-.8-1.33-1.62-2.65-2.41-3.99-.88-1.48-1.72-2.99-2.62-4.46-.75-1.23-1.52-2.46-2.37-3.63-.69-.96-1.41-1.92-2.33-2.7-.49-.41-1-.78-1.61-1.01-.85-.32-1.66-.24-2.42.26-.44.29-.87.6-1.26.95-.78.7-1.54,1.44-2.3,2.17-.45.44-.67.98-.66,1.62.02,2.91.04,5.82.05,8.73,0,.28,0,.56.03.85.03.41.09.82.13,1.23,0,.05,0,.1.01.15.1,1.24.34,2.44.73,3.62.34,1.03.83,1.98,1.59,2.76.37.38.82.69,1.26.99.59.4,1.21.74,1.8,1.13.34.22.66.47.9.83.48.72.54,1.48.26,2.27-.17.5-.54.83-.98,1.09-.66.4-1.38.62-2.16.63-.49,0-.98,0-1.47,0-7.21,0-14.41,0-21.62,0-.85,0-1.67-.13-2.44-.5-.44-.21-.82-.49-1.07-.92-.1-.16-.15-.35-.24-.55-.06.07-.1.13-.14.19,0-.47,0-.93,0-1.4Z"/><path class="cls-1" d="m223.64,161.61s0-.07.01-.12c-.02-.01-.05-.04-.08-.05-.73-.14-1.23-.58-1.57-1.22-.28-.53-.46-1.11-.49-1.71-.16-3.48-.07-6.97-.08-10.45-.01-8.2,0-16.4,0-24.6,0-.18-.05-.36-.07-.54,0-.05-.01-.1,0-.15.16-.59.06-1.19.06-1.79,0-5.12,0-10.24-.01-15.36,0-.68-.08-1.36-.13-2.05-.04-.49-.1-.98-.15-1.47-.08-.86-.3-1.68-.7-2.45-.32-.63-.78-1.12-1.33-1.54-.64-.49-1.37-.81-2.1-1.13-.7-.3-1.39-.62-2.01-1.07-.33-.24-.56-.53-.73-.91-.32-.7-.18-1.34.19-1.92.18-.29.51-.53.82-.69.55-.27,1.12-.5,1.7-.68.54-.17,1.11-.25,1.67-.39,1.01-.25,2.02-.52,3.03-.78.6-.16,1.2-.29,1.79-.47,1.07-.32,2.15-.66,3.21-1,.45-.15.89-.37,1.34-.52.5-.17,1.01-.29,1.51-.45.23-.07.44-.17.67-.26.03-.01.07-.04.1-.04.56-.01,1.04-.32,1.56-.46.63-.17,1.27-.32,1.92-.21.34.06.67.19,1,.31.07.02.1.13.16.19.42.45.78.94.85,1.57.07.6.13,1.21.14,1.82.01,5.02,0,10.04,0,15.06,0,2.9,0,5.79,0,8.69,0,.26,0,.52.03.77.02.19.08.39.17.55.17.31.51.4.82.2.18-.12.34-.28.49-.44.67-.71,1.31-1.47,2.02-2.14,1.55-1.46,3.25-2.73,5.2-3.61,1.61-.72,3.26-1.34,5.01-1.65.69-.12,1.39-.24,2.1-.29.81-.06,1.61-.1,2.42-.05.86.05,1.72.12,2.57.32.86.2,1.72.37,2.56.63.69.22,1.34.52,2,.82.63.3,1.21.67,1.82.99.45.24.86.58,1.27.89.29.22.57.44.84.69.62.57,1.24,1.14,1.84,1.73.34.34.63.73.94,1.1.28.34.59.66.84,1.02,1.65,2.33,2.76,4.91,3.57,7.64.32,1.1.6,2.22.77,3.36.09.61.13,1.23.19,1.85.05.52.11,1.03.15,1.55.11,1.51.03,3.02-.08,4.52-.05.66-.19,1.31-.28,1.96-.06.43-.07.88-.16,1.3-.25,1.14-.49,2.29-.82,3.41-.29.98-.68,1.94-1.08,2.89-.39.92-.82,1.84-1.27,2.73-.64,1.25-1.4,2.43-2.23,3.57-.5.67-1.04,1.32-1.57,1.97-.24.29-.5.56-.75.84-.15.17-.29.36-.45.52-.85.79-1.7,1.58-2.66,2.23-.77.52-1.53,1.06-2.32,1.54-.75.46-1.54.83-2.35,1.19-1.35.6-2.75,1.08-4.18,1.43-.75.18-1.5.38-2.26.47-.76.09-1.54.04-2.31.05-.29,0-.58.02-.86.03,0,.03,0,.05,0,.08.27,0,.53,0,.8,0,.09,0,.19.01.11.15h-3.9c-.08-.19.15-.1.19-.22-.31,0-.62,0-.93,0-1.1-.04-2.2-.08-3.28-.31-.63-.14-1.27-.28-1.9-.43-.2-.05-.4-.13-.6-.2-.47-.16-.93-.31-1.4-.48-.48-.17-.95-.33-1.42-.52-.4-.16-.8-.33-1.18-.52-.33-.16-.63-.37-.95-.54-.49-.27-.99-.54-1.49-.79-.68-.34-1.37-.6-2.17-.57-.91.04-1.59.43-2.07,1.17-.33.51-.59,1.07-.89,1.61-.42.77-.96,1.42-1.84,1.68,0,.05.02.09.02.12h-1.33Zm23.76-7.49c.7.02,1.38-.1,2.06-.29,1.61-.44,2.98-1.26,4.16-2.41.56-.55,1.01-1.19,1.44-1.86.38-.6.71-1.21,1.01-1.85.25-.53.47-1.08.63-1.66.15-.59.4-1.14.51-1.75.09-.49.26-.97.35-1.46.09-.5.09-1.02.22-1.51.22-.89.21-1.79.26-2.69.06-.99.14-1.98.03-2.97-.07-.65-.06-1.3-.06-1.96-.01-1.03-.25-2.03-.42-3.04-.27-1.56-.75-3.06-1.3-4.54-.81-2.16-2.16-3.94-3.94-5.39-1.36-1.11-2.95-1.7-4.69-1.86-1.29-.12-2.55.05-3.77.44-2.12.67-3.69,2.07-4.95,3.85-.35.5-.66,1.04-.9,1.6-.59,1.36-1.07,2.76-1.4,4.21-.11.48-.24.95-.31,1.43-.1.61-.16,1.22-.23,1.84-.06.55-.12,1.11-.14,1.66-.03.55-.03,1.1-.02,1.66.02,1.44-.02,2.88.16,4.31.14,1.05.27,2.11.48,3.15.34,1.67.88,3.26,1.63,4.79.36.73.79,1.42,1.25,2.09.65.93,1.42,1.73,2.34,2.4,1.05.77,2.19,1.33,3.47,1.58.19.04.37.12.56.14.52.05,1.04.07,1.57.11Z"/><path class="cls-1" d="m175.9,161.61c.06-.06.13-.13.21-.21-.12,0-.23,0-.33,0-1.36.02-2.67-.25-3.96-.67-1.89-.62-3.65-1.49-5.23-2.7-.37-.28-.68-.63-1-.96-1.51-1.54-2.54-3.35-3.04-5.45-.13-.55-.28-1.11-.33-1.68-.08-.92-.1-1.84,0-2.76.08-.67.15-1.35.29-2.01.09-.43.27-.84.42-1.26.06-.18.15-.36.22-.54.61-1.51,1.47-2.87,2.59-4.06.72-.76,1.54-1.4,2.38-2.02,1.74-1.29,3.66-2.21,5.68-2.97,1.48-.56,2.94-1.14,4.42-1.69,2.34-.87,4.68-1.71,6.96-2.72,1.61-.71,3.14-1.56,4.51-2.66.97-.77,1.8-1.66,2.36-2.79.17-.35.28-.73.43-1.1.33-.85.39-1.73.29-2.62-.21-1.8-1.05-3.25-2.65-4.16-.56-.32-1.18-.51-1.81-.65-.92-.21-1.85-.29-2.79-.2-1.1.11-2.18.36-3.21.79-.92.39-1.74.91-2.51,1.52-.67.53-1.31,1.07-1.9,1.68-.24.25-.44.53-.66.8-.35.43-.71.84-1.05,1.28-.33.43-.62.88-.95,1.31-.53.69-1.06,1.38-1.6,2.06-.45.56-.97,1.04-1.66,1.31-.39.16-.78.27-1.2.28-.6.03-1.19-.01-1.78-.15-1.18-.27-1.95-.97-2.37-2.09-.21-.56-.29-1.14-.39-1.73-.24-1.34-.08-2.68-.13-4.02,0-.21.04-.43.07-.64.09-.6.16-1.22.3-1.81.13-.53.35-1.03.53-1.55.02-.05.06-.08.07-.13.27-.83.84-1.44,1.45-2.01.6-.55,1.2-1.11,1.94-1.47.55-.27,1.12-.53,1.7-.74.77-.28,1.56-.53,2.34-.76.57-.17,1.16-.29,1.73-.44.74-.2,1.49-.3,2.24-.43.8-.14,1.61-.21,2.42-.31.65-.08,1.3-.14,1.95-.22,1.14-.14,2.29-.16,3.44-.16.45,0,.91-.02,1.36,0,.74.04,1.48.1,2.21.15.4.03.79.07,1.19.12.53.07,1.07.12,1.59.24.65.16,1.31.23,1.96.39.51.12,1.01.31,1.51.48.54.17,1.1.33,1.63.53.5.19.97.43,1.46.65.45.21.91.39,1.34.64.41.23.78.52,1.16.77.17.11.35.2.51.32.26.19.51.39.76.59.79.61,1.55,1.26,2.21,2,.41.47.79.98,1.13,1.5.65,1.03,1.19,2.13,1.56,3.29.15.47.21.97.37,1.44.09.29.13.58.17.88.03.29.08.57.12.86.05.42.11.84.13,1.26.02.51,0,1.03,0,1.55-.02,1.31-.03,2.63-.06,3.94-.03,1.16-.07,2.33-.15,3.49-.02.3.03.59,0,.89-.04.29-.04.59-.06.88,0,.12-.04.24-.05.35,0,.07-.03.15-.01.22.1.66.03,1.3-.07,1.95-.02.13,0,.27,0,.4,0,.14.05.29.04.43-.01,1.03-.04,2.06-.05,3.09,0,.47.07.96,0,1.42-.1.63-.05,1.26-.06,1.89,0,1.03,0,2.06.07,3.09.04.55.06,1.11.25,1.65.12.33.16.68.29,1.01.44,1.13,1.29,1.78,2.45,2.05.36.08.72.1,1.09.16.43.07.87.11,1.29.23.94.26,1.41.93,1.41,1.9,0,.94-.41,1.74-.93,2.48-1.08,1.54-2.56,2.53-4.29,3.21-.97.38-1.98.62-3,.81-.45.08-.9.04-1.34.05-.19,0-.38.02-.56.08.2,0,.41,0,.61,0,.09,0,.12.07.06.15h-2.5c-.08-.19.16-.09.18-.22-.38,0-.77.05-1.14-.01-.88-.16-1.73-.41-2.54-.8-2.31-1.11-3.84-2.9-4.72-5.28-.16-.42-.27-.86-.41-1.29-.05-.14-.07-.33-.32-.33-.08.1-.18.2-.27.32-.87,1.1-1.83,2.12-2.9,3.02-1.97,1.66-4.23,2.82-6.68,3.6-.78.25-1.57.45-2.38.58-.59.1-1.17.21-1.77.19-.39-.01-.78,0-1.17,0,.05.14.33-.04.24.23h-3.32Zm16.76-27.17c-.28.13-.49.2-.67.31-.82.51-1.7.9-2.57,1.31-1.31.62-2.66,1.16-3.94,1.83-.75.39-1.52.75-2.22,1.24-.54.37-1.11.72-1.63,1.11-.36.27-.69.59-1.03.89-.87.78-1.58,1.68-2.07,2.74-.51,1.09-.69,2.24-.57,3.44.18,1.87,1.06,3.32,2.69,4.27,1.46.85,3.06,1.04,4.69.71,2.62-.52,4.59-2.02,5.94-4.31.83-1.41,1.16-2.98,1.33-4.57.13-1.24.17-2.5.2-3.75.03-1.34.02-2.68.02-4.01,0-.25,0-.49-.03-.74-.01-.14-.08-.27-.14-.47Z"/><path class="cls-1" d="m302.61,161.61c-.07-.23.15-.12.21-.17-.9-.04-1.81-.06-2.71-.13-.45-.04-.89-.06-1.34-.13-1.22-.2-2.41-.52-3.58-.88-.55-.17-1.12-.32-1.64-.55-.9-.39-1.79-.82-2.67-1.26-1.03-.51-2.02-1.11-2.96-1.77-.94-.65-1.87-1.32-2.68-2.13-.48-.49-.92-1.02-1.36-1.54-.38-.45-.77-.89-1.11-1.36-.51-.71-1-1.44-1.46-2.19-.35-.56-.64-1.16-.94-1.75-.15-.3-.26-.63-.4-.94-.05-.11-.14-.21-.19-.33-.48-.95-.8-1.96-1.09-2.98-.16-.55-.26-1.11-.36-1.68-.16-.88-.31-1.75-.45-2.64-.28-1.8-.29-3.61-.22-5.42.02-.69.06-1.39.15-2.08.09-.67.24-1.34.37-2.01.39-2.04,1.07-3.98,1.91-5.87.71-1.58,1.58-3.07,2.61-4.46.48-.65.97-1.29,1.51-1.88.72-.8,1.47-1.58,2.26-2.32.64-.6,1.32-1.16,2.04-1.66.88-.63,1.75-1.26,2.73-1.73.61-.3,1.18-.66,1.8-.94.59-.27,1.21-.48,1.82-.71.52-.19,1.03-.41,1.55-.57.95-.28,1.91-.55,2.88-.78.5-.12,1.02-.16,1.53-.24.78-.11,1.55-.27,2.33-.31,1.31-.06,2.63-.05,3.94-.05.34,0,.68.04,1.02.07.54.05,1.06.13,1.58.27.07.02.15.01.22.02.49.08.98.14,1.47.23.4.07.8.18,1.2.26.12.03.25.03.36.07.6.26,1.28.25,1.84.6.63.07,1.16.4,1.74.61.41.15.8.38,1.19.58.43.22.86.43,1.28.66.32.17.64.32.94.52.46.31.9.66,1.35.98.17.13.37.22.54.36.44.37.88.75,1.31,1.13.52.47,1.04.93,1.52,1.43.41.44.84.87,1.18,1.38.33.5.76.94,1.1,1.43.31.44.57.92.85,1.38.15.25.29.5.42.75.09.17.15.35.24.53.04.07.1.14.13.21.08.16.16.32.23.48.01.03,0,.08.01.11.41.47.47,1.09.73,1.62.26.53.43,1.11.6,1.69.3.99.59,1.98.82,2.98.15.63.16,1.28.26,1.92.09.55.08,1.12.16,1.66.15.98.11,1.95.13,2.93,0,.26.02.52,0,.77-.05.65-.05,1.31-.21,1.95-.06.23-.05.48-.08.72-.06.44-.13.89-.19,1.33-.06.49-.2.97-.33,1.44-.12.48-.23.96-.38,1.43-.15.46-.27.93-.45,1.36-.38.92-.81,1.82-1.27,2.7-.47.9-.99,1.78-1.52,2.65-.57.94-1.26,1.79-1.94,2.65-.81,1.02-1.73,1.93-2.68,2.82-.6.57-1.26,1.08-1.93,1.57-1.12.81-2.28,1.55-3.51,2.18-1.23.63-2.51,1.15-3.81,1.62-1.15.41-2.33.69-3.52.93-1.1.23-2.23.27-3.35.24-.12,0-.24,0-.37,0,.05.14.34-.04.27.23h-3.61Zm-8.81-36.29c-.09.36-.18.67-.25.98-.03.17-.01.34-.02.51-.01.18-.1.39-.04.54.07.2-.1.3-.1.46,0,.36-.04.73-.07,1.09-.1,1.3-.09,2.6-.02,3.9.03.54.07,1.07.11,1.6.04.49.07.99.14,1.48.13.98.23,1.96.44,2.93.24,1.11.48,2.22.74,3.33.13.57.27,1.14.46,1.7.16.51.38,1,.59,1.49.3.72.6,1.45.93,2.16.17.37.4.72.61,1.07.85,1.42,1.83,2.72,3.17,3.73,1.97,1.47,4.16,1.97,6.55,1.55,1.31-.23,2.49-.8,3.54-1.62,1.11-.88,1.97-1.98,2.65-3.21,1.31-2.36,1.91-4.93,2.28-7.57.08-.55.1-1.11.15-1.66.02-.26.03-.51.04-.77.01-.26.02-.51.03-.77,0-.26.03-.52,0-.77-.02-.25,0-.49,0-.74-.03-1.4-.1-2.79-.29-4.17-.1-.73-.17-1.46-.3-2.19-.11-.6-.19-1.2-.31-1.8-.43-2.18-1.13-4.27-1.97-6.32-.26-.62-.61-1.18-.97-1.74-.72-1.08-1.45-2.14-2.48-2.95-.4-.32-.81-.62-1.25-.88-.44-.26-.9-.49-1.37-.68-.87-.37-1.79-.49-2.72-.56-.92-.06-1.84.04-2.74.24-.87.19-1.71.53-2.48.99-.55.32-1.05.72-1.52,1.16-.53.49-.93,1.1-1.39,1.66-.11.13-.21.27-.3.41-.63.97-.98,2.07-1.34,3.16-.21.64-.34,1.31-.5,1.97-.03.11,0,.23,0,.32Z"/><path class="cls-2" d="m366.19,99.73c-.7.4-1.23.97-1.75,1.57-.42.48-.84.96-1.12,1.54-.24.5-.46,1-.47,1.57,0,.28.1.51.31.68.3.24.62.43,1.01.48.25.04.5.07.75.14.48.14.58.52.35.84-.42.6-.96,1.08-1.56,1.51-.77.55-1.62.94-2.47,1.34-.54.26-1.12.42-1.68.63-.08.03-.16.07-.3.13.28.2.48.41.75.42.18.14.32.26.47.35.67.41,1.22.94,1.67,1.58.14.21.24.43.17.73-.55.25-1.08-.04-1.68-.12.02.11.02.21.06.27.31.46.63.91.93,1.37.41.62.68,1.3.72,2.05.01.24-.05.44-.33.58-.07-.01-.2-.02-.31-.05-.93-.28-1.86-.58-2.79-.86-.31-.09-.63-.18-.99-.14,0,.08-.02.16,0,.22.16.33.2.69.39,1.01.16.27.36.57.2.96-.16.06-.33.13-.48.18-.43-.26-.85-.49-1.25-.75-.72-.48-1.42-.99-2.08-1.55-.92-.77-1.83-1.54-2.84-2.19-.47-.3-.99-.46-1.54-.52-.13-.02-.28-.15-.38-.02,0,.24.01.46,0,.67-.07.84-.11,1.69-.23,2.52-.09.64-.22,1.27-.4,1.89-.19.66-.37,1.32-.66,1.93-.32.67-.64,1.34-1.15,1.9-.33.37-.65.75-1.01,1.1-.28.28-.6.47-.93.67-.23.14-.32.14-.66.04-.05-.14-.09-.32-.19-.46-.11-.15-.25-.3-.41-.39-.2-.11-.43-.16-.64-.25-.46-.19-.44-.61-.12-.82.32-.21.61-.44.92-.66,1.33-.96,2.25-2.23,2.87-3.73.39-.93.62-1.9.76-2.89.06-.44.07-.9.09-1.35,0-.07,0-.14-.01-.23-.54-.06-1.01.09-1.46.31-.67.32-1.24.79-1.83,1.23-.93.69-1.83,1.42-2.78,2.09-.56.4-1.17.72-1.76,1.06-.1.06-.23.09-.35.08-.27-.01-.42-.2-.36-.47.04-.17.11-.32.17-.48.13-.32.27-.63.38-.95.05-.12.05-.26.07-.4-.33-.12-.63,0-.92.05-.73.13-1.43.36-2.13.61-.26.09-.54.15-.81.22-.35.08-.58-.08-.58-.45,0-.23.05-.46.1-.69.08-.39.28-.73.47-1.08.28-.51.66-.95,1-1.42.07-.1.14-.21.22-.34-.32-.11-.58.02-.83.06-.16.02-.31.09-.46.1-.42.03-.61-.26-.41-.63.22-.41.52-.77.88-1.06.38-.31.8-.59,1.21-.86.22-.14.47-.24.71-.36.07-.04.13-.1.23-.17-.09-.05-.14-.1-.2-.11-.85-.25-1.68-.57-2.47-.97-.62-.32-1.24-.66-1.83-1.03-.55-.35-1.04-.8-1.42-1.34-.1-.15-.16-.32-.23-.47.08-.13.13-.22.21-.35.18-.04.37-.08.57-.11.58-.11,1.13-.28,1.57-.69.09-.09.19-.21.2-.33.05-.36.05-.73-.25-1.01.03-.37-.18-.67-.34-.97-.28-.53-.71-.96-1.16-1.36-.09-.08-.14-.19-.23-.27-.28-.25-.56-.52-.87-.73-.41-.29-.45-.35-.28-.81.02-.06.05-.11.09-.19.04,0,.09.04.14.03.15-.03.3-.12.45-.11,1.18.05,2.37.04,3.52.38.7.21,1.4.41,2.11.61.15-.07.16-.18.14-.33-.05-.34-.1-.68-.11-1.02,0-.21.05-.42.08-.62.31-.12.54-.06.79.06,1.01.49,1.88,1.15,2.63,1.97.38.41.69.88,1.03,1.33.11.14.21.27.34.39.1.09.24.14.41.24.04-.2.09-.34.09-.48,0-.34-.02-.68-.21-.98.04-.51-.22-.95-.31-1.42-.06-.33-.23-.62-.31-.94-.19-.81-.37-1.63-.43-2.46-.04-.48-.09-.96-.06-1.43.04-.51.12-1.03.29-1.5.55-.16.6-.14.89.29.22.33.46.64.9.73.54-.17.9-.54,1.23-1.01.47-.67.88-1.38,1.26-2.1.21-.41.37-.85.56-1.28.21-.49.43-.98.64-1.47.07-.17.09-.35.16-.52.07-.16.14-.34.27-.46.21-.2.58-.1.73.19.14.28.25.59.36.88.42,1.08.86,2.15,1.41,3.17.38.71.8,1.4,1.42,1.95.06.06.13.11.19.17.61.52,1.06.23,1.41-.27.06-.09.1-.19.16-.28.13-.18.3-.3.53-.26.23.04.36.2.41.42.05.26.12.53.13.79.04.85.05,1.69-.08,2.53-.16,1.05-.45,2.06-.73,3.08-.18.65-.39,1.3-.44,1.99-.01.18-.05.36-.06.54,0,.06.05.13.08.21.3-.16.5-.4.69-.65.48-.62.96-1.23,1.44-1.83.38-.48.92-.76,1.4-1.11.28-.21.58-.4.88-.59.44-.28.76-.17.97.32.01.03.04.06.01.02,0,.6-.27,1.11-.12,1.68.08-.02.11-.03.14-.05,1.23-.51,2.61-.93,3.87-1.04.54-.05,1.08-.04,1.61-.07.34-.01.63.07.84.36.03.04.08.05.12.07v.29Z"/><path class="cls-1" d="m175.02,161.61s.04-.03.06-.04c0,.01,0,.03.01.04-.02,0-.05,0-.07,0Z"/><path class="cls-1" d="m179.95,161.61s.02-.05.04-.08c.01.03.02.05.04.08h-.07Z"/><path class="cls-1" d="m205.89,161.61s.02-.05.04-.08c.01.03.02.05.04.08-.02,0-.05,0-.07,0Z"/><path class="cls-1" d="m249.5,161.61s0-.04.01-.06c.02.02.04.04.06.06h-.07Z"/></svg>