<?xml version="1.0" encoding="UTF-8"?><svg id="Layer_1" xmlns="http://www.w3.org/2000/svg" viewBox="0 0 431.52 250"><defs><style>.cls-1{fill:#404040;}</style></defs><path class="cls-1" d="m292.65,147.18v1.72h-26.77v-1.73c.86-.19,1.72-.36,2.57-.57,1.23-.32,2.11-1.06,2.46-2.3.2-.69.33-1.41.42-2.12.07-.64.05-1.29.05-1.93,0-10.65,0-21.31,0-31.96,0-1.04-.08-2.09-.21-3.12-.07-.55-.27-1.1-.51-1.6-.42-.88-1.22-1.36-2.11-1.62-.84-.25-1.71-.4-2.65-.62v-1.66c.53-.17,37.64-.23,38.68-.05-.92,3.79-.6,7.48.97,11.09-.64.25-1.26.5-1.94.77-.18-.25-.36-.48-.53-.71-1.53-2.13-3.27-4.03-5.47-5.51-1.84-1.23-3.87-1.94-6.01-2.37-1.45-.29-2.91-.38-4.34-.37-.07.06-.09.07-.11.09-.02.02-.04.04-.04.07-.02.16-.04.32-.04.48,0,6.12.01,12.24.02,18.35,0,.05.04.09.07.14.05.03.09.08.13.09,2.23.11,4.45.07,6.61-.61,1.88-.6,3.11-1.83,3.71-3.7.18-.56.31-1.13.47-1.75h1.92v15.51h-1.92c-.05-.26-.11-.51-.16-.77-.5-2.75-1.97-4.69-4.67-5.63-1.9-.66-3.86-.88-5.86-.78-.07,0-.15.05-.27.09-.02.23-.05.46-.05.69,0,5.42-.02,10.84.01,16.26,0,.93.11,1.88.3,2.79.31,1.45,1.19,2.44,2.68,2.78.83.19,1.67.36,2.59.56Z"/><path class="cls-1" d="m130.77,148.92v-1.73c.9-.2,1.76-.37,2.61-.58,1.34-.33,2.23-1.18,2.53-2.52.22-.99.42-2.01.42-3.01.03-11.19.02-22.38.01-33.56,0-1.07-.12-2.14-.44-3.17-.35-1.12-1.03-1.94-2.18-2.29-.94-.28-1.91-.49-2.94-.75v-1.64c.58-.16,25.09-.24,26.74-.07v1.78c-.4.07-.85.12-1.28.22-.6.14-1.2.29-1.77.49-1.03.36-1.66,1.12-2.03,2.14-.37,1.03-.43,2.1-.44,3.17-.02,10.22-.02,20.44,0,30.67,0,1.58.08,3.16.56,4.69.55,1.73,1.72,2.64,3.49,2.87,2.02.26,3.95-.07,5.8-.87,2.71-1.16,4.94-2.97,6.89-5.16,1.69-1.89,3.06-3.99,4.18-6.27.1-.21.24-.4.38-.64.64.25,1.22.48,1.87.74-1.79,5.2-3.56,10.35-5.33,15.49h-39.09Z"/><path class="cls-1" d="m66.97,104.4c.24-.54.69-.63,1.1-.61.58.02,1.17.12,1.74.26,1.7.43,3.27,1.19,4.79,2.05,4.28,2.43,8.22,5.35,11.99,8.5,2.37,1.97,4.69,4,7.04,6,.02.02.05.02.15.07,1.08-.49,1.94-1.3,2.55-2.37.58-1.02.86-2.12.79-3.31-.13-2.24.78-3.97,2.55-5.34,1.52-1.18,2.97-2.47,4.45-3.71,2.22-1.86,4.44-3.71,6.66-5.57.31-.26.6-.53.94-.83.27.28.52.55.81.85-2.05,2.06-4.08,4.08-6.1,6.11-2.01,2.03-4.09,4-6.01,6.06.37.99.76,1.1,1.41.46,2.38-2.36,4.75-4.74,7.12-7.11,1.42-1.42,2.84-2.85,4.26-4.28.09-.09.21-.16.35-.27.25.27.49.52.76.81-.27.28-.51.53-.75.77-3.62,3.62-7.25,7.24-10.87,10.87-.2.2-.35.46-.5.66.44.89.77.98,1.41.36,1.19-1.16,2.36-2.34,3.53-3.52,2.67-2.67,5.35-5.35,8.02-8.02.04-.04.09-.05.21-.1.22.23.45.47.71.73-.1.15-.15.27-.24.36-1.1,1.1-2.2,2.2-3.3,3.29-1.16,1.15-2.32,2.3-3.48,3.45-1.19,1.19-2.38,2.4-3.57,3.59-.4.4-.81.78-1.2,1.19-.28.29-.3.68-.08.94.24.28.67.3,1.01.03.17-.13.31-.29.46-.45,3.49-3.49,6.98-6.98,10.47-10.48.3-.3.62-.59.95-.91.27.26.51.49.81.78-.43.53-.82,1.03-1.23,1.52-1.79,2.14-3.59,4.27-5.38,6.41-1.27,1.52-2.55,3.04-3.82,4.56-1.32,1.57-3,2.21-5.04,2.14-2.5-.1-4.9,1.24-5.91,3.98-.2.55-.32,1.12-.5,1.75.5.51,1,1.04,1.51,1.54,3.66,3.66,7.33,7.32,10.99,10.98,2.01,2.01,4.02,4.02,6.03,6.02.68.68.69,1.2.03,1.86-.64.65-1.28,1.3-1.93,1.94-.72.69-1.15.7-1.85,0-1.83-1.81-3.65-3.63-5.47-5.45-3.22-3.22-6.44-6.45-9.66-9.68-1.08-1.08-2.16-2.16-3.25-3.24-.19-.19-.38-.36-.61-.58-.66.65-1.29,1.26-1.91,1.88-2.18,2.18-4.35,4.37-6.53,6.55-3.51,3.51-7.02,7.01-10.53,10.51-.76.76-1.22.76-1.98.02-.63-.62-1.26-1.24-1.88-1.88-.68-.7-.69-1.15,0-1.86.71-.73,1.43-1.44,2.16-2.16,1.16-1.15,2.33-2.29,3.49-3.44,1.17-1.17,2.33-2.37,3.5-3.54,2.75-2.75,5.5-5.5,8.25-8.24.53-.53,1.05-1.06,1.6-1.62-.17-.2-.29-.38-.44-.52-2.81-2.81-5.62-5.61-8.42-8.42-3.87-3.87-7.74-7.74-11.6-11.62-.22-.22-.38-.5-.56-.73Z"/><path class="cls-1" d="m264.3,128.36h-20.15c-.2.91-.03,1.73.12,2.53.63,3.61,2.27,6.67,5.06,9.08,1.91,1.65,4.12,2.64,6.65,2.94,1.46.17,2.88.08,4.29-.33,1.3-.37,2.39-1.07,3.38-1.95.16-.14.31-.28.53-.47v3.11c-3.15,3.71-7.05,6.23-11.96,6.97-4.06.62-7.97.1-11.6-1.91-2.09-1.16-3.83-2.72-5.31-4.6-2-2.53-3.1-5.42-3.55-8.58-.42-3.01-.17-5.99.68-8.91.85-2.94,2.32-5.53,4.42-7.73,2.61-2.73,5.86-4.36,9.55-5.11,2.94-.59,5.84-.36,8.64.59,3.74,1.27,6.42,3.78,8.01,7.41.86,1.97,1.4,4.94,1.24,6.95Zm-20.18-2.34c1.98-.04,3.99-.05,6-.14.74-.03,1.48-.2,2.21-.38,1.02-.24,1.57-.95,1.78-1.96.31-1.44.18-2.88-.1-4.31-.18-.93-.6-1.78-1.27-2.46-.68-.7-1.55-1-2.52-1.08-2.31-.2-4.12.78-5.07,2.86-1.05,2.28-1.1,4.72-1.15,7.16,0,.05.04.1.14.3Z"/><path class="cls-1" d="m331.52,117.24h-5.06v-2.08c3.37-1.32,6.33-3.31,8.98-5.78,2.63-2.45,4.8-5.26,6.44-8.49h2.68v13.79c1.06-.08,1.84-.53,2.54-1.12.44-.38.83-.84,1.2-1.29,1.37-1.65,3.84-1.44,4.86.43.53.96.34,2.26-.46,3.13-.87.95-2.01,1.33-3.24,1.39-1.29.06-2.58.02-3.86.03-.31,0-.63.03-.99.05-.02.3-.05.53-.05.76,0,6.06,0,12.13,0,18.19,0,1.56.19,3.1.51,4.62.19.9.57,1.74,1.14,2.46,1.13,1.42,2.64,1.74,4.34,1.38.52-.11,1.02-.3,1.57-.46v2.08c-.82.58-1.68,1.26-2.61,1.83-3.18,1.93-6.67,2.68-10.34,2.19-3.96-.53-6.49-2.73-7.56-6.96-.32-1.28-.4-2.59-.38-3.91.04-3,.1-6.01.14-9.01.04-2.84.05-5.69.08-8.53.02-1.26.07-2.52.1-3.78,0-.26,0-.53,0-.92Z"/><path class="cls-1" d="m173.75,119.94c1.88-.64,3.68-1.23,5.47-1.87,2.62-.94,5.22-1.94,7.84-2.89.55-.2,1.13-.4,1.7-.42,1.33-.06,2.67-.02,4.11-.02,0,.35,0,.66,0,.98,0,8.61,0,17.22,0,25.84,0,.94.07,1.87.3,2.79.34,1.4,1.2,2.23,2.58,2.57.39.09.79.15,1.25.23v1.7c-.53.16-20.83.22-22.01.05v-1.77c.4-.03.78-.03,1.14-.08,1.89-.28,3-1.43,3.26-3.43.09-.72.14-1.44.14-2.16.01-4.69.01-9.39,0-14.08,0-.61-.06-1.23-.14-1.84-.09-.72-.47-1.31-1.01-1.78-.72-.64-1.48-1.24-2.22-1.85-.76-.63-1.54-1.25-2.39-1.95Z"/><path class="cls-1" d="m326.48,147.14v1.68c-.6.18-19.72.26-21.92.09v-1.81c.22-.01.48-.01.73-.04,2.06-.2,3.32-1.18,3.57-3.52.11-1.04.13-2.09.14-3.13.01-4.21.01-8.42,0-12.63,0-.72-.09-1.44-.12-2.16-.03-.66-.3-1.2-.77-1.63-.83-.75-1.7-1.47-2.56-2.19-.74-.62-1.48-1.22-2.27-1.86,1.97-.68,3.88-1.33,5.79-2,1.56-.55,3.12-1.12,4.68-1.7,1.05-.39,2.09-.83,3.15-1.2.47-.17.99-.29,1.49-.31,1.28-.04,2.57-.01,3.94-.01.01.34.04.65.04.96,0,8.61,0,17.22,0,25.83,0,.75.01,1.51.14,2.24.31,1.7,1.1,2.82,2.85,3.17.34.07.68.13,1.12.22Z"/><path class="cls-1" d="m222.83,136.38c-2.34,4.66-4.67,9.3-7.05,14.03-.26-.46-.51-.85-.72-1.26-1.97-3.68-3.94-7.36-5.9-11.05-2.41-4.51-4.81-9.02-7.21-13.53-1.11-2.08-2.22-4.15-3.33-6.23-.35-.65-.8-1.22-1.51-1.5-.34-.14-.72-.19-1.11-.29v-1.8h22.31v1.77c-.53.07-1,.14-1.48.2-1.67.21-2.4,1.41-1.78,3,.25.65.56,1.27.85,1.9,1.51,3.19,3.02,6.38,4.53,9.58.81,1.72,1.6,3.44,2.41,5.17Z"/><path class="cls-1" d="m308.8,105.91c-.13-3.5,2.76-6.33,6.22-6.32,3.51.01,6.28,2.69,6.3,6.29.02,3.45-2.73,6.21-6.22,6.26-3.49.05-6.44-2.88-6.29-6.23Z"/><path class="cls-1" d="m191.77,105.89c.08,3.41-2.77,6.28-6.28,6.25-3.33-.02-6.24-2.59-6.24-6.24,0-3.69,2.84-6.3,6.26-6.31,3.46-.02,6.32,2.77,6.26,6.29Z"/><path class="cls-1" d="m225.67,130.61c-.29-.59-.52-1.07-.77-1.59.3-.62.59-1.25.91-1.85.99-1.85.57-3.58-.46-5.23-.46-.75-1.03-1.44-1.53-2.16-1.82-2.64-.49-5.94,2.65-6.59,1.52-.32,3.29.57,4.02,2.02.77,1.52.76,3.11.26,4.68-.34,1.06-.84,2.08-1.33,3.09-1.12,2.34-2.26,4.67-3.4,7-.09.19-.2.37-.36.64Z"/><path class="cls-1" d="m362.49,146.22c-.38-1.05-.75-2.11-1.13-3.16-.05,0-.11.02-.16.03-.13,1.02.09,2.07-.13,3.19-.3-.56-.37-2.64-.18-3.98h.59c.38,1.06.75,2.1,1.12,3.14.06,0,.12,0,.18,0,.36-1.02.72-2.05,1.1-3.13.16-.01.36-.03.52-.05.21.25.18,3.35-.03,4-.3-.56-.13-1.09-.16-1.59-.03-.53,0-1.06-.13-1.62-.07.12-.18.22-.22.35-.27.78-.52,1.57-.79,2.35-.06.18-.19.33-.29.49-.09,0-.18-.02-.27-.02Z"/><path class="cls-1" d="m360.12,142.48c-.4.04-.81.09-1.23.13-.25.61-.09,1.23-.13,1.83-.03.57-.03,1.14-.13,1.72-.39-.54-.2-1.15-.23-1.73-.04-.58,0-1.16,0-1.79-.52-.07-.94-.12-1.36-.18,0-.06.01-.13.02-.19,1.01-.07,2.03-.03,3.05-.02,0,.08.02.15.03.23Z"/></svg>