<?xml version="1.0" encoding="UTF-8"?><svg id="Layer_1" xmlns="http://www.w3.org/2000/svg" viewBox="0 0 431.52 250"><defs><style>.cls-1{fill:#fff;}.cls-2{fill:#ee254d;}</style></defs><rect class="cls-2" width="431.52" height="250"/><path class="cls-1" d="m265.76,101.55v-2.08h38.85c-.59,2.63-.65,5.21-.05,7.94-.46.56.47.95.45,1.59-.02.59.35,1.18.56,1.84-.66.24-1.34.48-2.07.74-.47-.66-.92-1.36-1.45-1.99-.71-.83-1.47-1.62-2.24-2.39-1.43-1.44-3.11-2.52-4.97-3.3-1.49-.62-3.06-.97-4.66-1.14-.98-.1-1.97-.15-3-.22v19.12c.14.02.32.07.5.07,1.8.02,3.6.05,5.35-.43.69-.19,1.4-.39,2.03-.73,1.19-.63,1.94-1.68,2.35-2.96.21-.67.39-1.35.59-2.06h2.09v15.68h-2.11c-.12-.53-.19-1.13-.39-1.68-.33-.87-.61-1.75-1.23-2.51-.67-.83-1.45-1.45-2.4-1.85-.73-.31-1.53-.46-2.28-.72-.51-.17-1.08-.04-1.58-.34-.18-.11-.47-.07-.71-.07-.72,0-1.44,0-2.21,0-.02.22-.05.4-.05.58,0,5.42-.02,10.84.01,16.26,0,.98.11,1.97.29,2.93.26,1.35,1.07,2.31,2.43,2.69.91.26,1.86.42,2.84.63v1.89h-26.96v-1.91c.83-.18,1.7-.3,2.52-.56.59-.18,1.15-.5,1.68-.82.61-.37.86-1.04,1.01-1.68.19-.85.36-1.74.36-2.61.03-11.16.05-22.32-.01-33.49,0-1.3-.03-2.65-.58-3.93-.31-.72-.75-1.26-1.37-1.57-.67-.34-1.37-.72-2.2-.69-.45.02-.91-.14-1.41-.23Z"/><path class="cls-1" d="m173.2,132.73c.87-.12,1.33.6,2.07.64-1.83,5.35-3.62,10.59-5.41,15.82-1.64-.19-3.26-.07-4.88-.09-1.64-.02-3.27,0-4.91,0h-29.39v-1.95c.81-.14,1.58-.25,2.35-.42.9-.2,1.72-.63,2.24-1.37.4-.55.65-1.26.79-1.94.17-.82.21-1.68.21-2.52.01-11,0-22,0-33,0-.62-.03-1.23-.05-1.85-.03-1.04-.39-1.98-.96-2.83-.15-.23-.43-.38-.66-.55-.72-.49-1.4-1-2.37-.89-.48.05-.99-.13-1.54-.22v-2.02c.54-.14,25.72-.19,26.99-.03v2.02c-.63.09-1.2.14-1.75.27-.66.16-1.31.38-1.94.63-.71.28-1.09.87-1.35,1.57-.31.83-.48,1.67-.48,2.57,0,8.32,0,16.63,0,24.95,0,2.07,0,4.13,0,6.2,0,.31-.09.62-.11.93-.01.21.01.42.04.63.02.18.11.37.09.54-.11,1.12.27,2.18.54,3.21.38,1.45,1.57,2.37,3.26,2.54,1.42.14,2.83.12,4.22-.28,1.24-.36,2.44-.85,3.55-1.53,1.05-.65,2-1.44,2.96-2.23,1.51-1.24,2.69-2.76,3.88-4.26.55-.69.96-1.49,1.4-2.26.43-.75.82-1.51,1.23-2.29Z"/><path class="cls-1" d="m104.2,116.07v.68h.91c3.95-3.95,7.91-7.92,11.94-11.96.28.36.54.68.85,1.07-.34.44-.75.99-1.19,1.51-1.53,1.82-3.08,3.62-4.6,5.43-1.52,1.82-3.01,3.66-4.54,5.47-1.24,1.46-2.83,2.24-4.77,2.18-.99-.03-1.97.06-2.87.46-1.35.59-2.52,1.4-2.99,2.91-.11.34-.34.64-.47.98-.08.22-.07.47-.12.85,0,0-.1.12-.21.24.03.09.03.18.08.23.27.33.53.67.83.97,5.69,5.7,11.38,11.39,17.08,17.08.23.23.48.43.71.65.42.4.46,1.01.05,1.43-.8.83-1.62,1.65-2.45,2.44-.2.19-.5.29-.83.48-.35-.28-.74-.54-1.06-.86-6.02-6.01-12.04-12.03-18.05-18.04-.21-.21-.38-.45-.6-.71-.22.18-.37.29-.49.41-3.74,3.74-7.48,7.47-11.21,11.21-.94.94-1.89,1.89-2.83,2.83-1.51,1.51-3.02,3.02-4.53,4.53-.06.06-.11.12-.17.17-.62.57-1.05.59-1.65.02-.87-.84-1.72-1.69-2.51-2.48-.22-.82.17-1.29.64-1.77,6.15-6.14,12.3-12.29,18.45-18.44.11-.11.27-.18.39-.27-1.84-1.84-3.6-3.6-5.36-5.36-1.78-1.78-3.57-3.57-5.35-5.35-1.76-1.76-3.54-3.52-5.29-5.3-1.73-1.77-3.58-3.43-5.15-5.28,0-.54.39-.65.71-.7.45-.07.91-.05,1.36-.02.45.03.89.14,1.4.22.2.1.48.28.77.39,1.71.61,3.26,1.53,4.84,2.41.51.29,1.13.45,1.53.84.62.6,1.38.96,2.06,1.45,1.39,1.03,2.83,2.01,4.21,3.05.87.65,1.68,1.37,2.51,2.06,1.07.88,2.15,1.75,3.21,2.64.61.51,1.21,1.05,1.81,1.58.06.05.11.12.17.17.76.64,1.52,1.29,2.32,1.97,1.04-.52,1.95-1.23,2.51-2.26.2-.37.33-.8.53-1.2.31-.63.35-1.33.32-2.04-.03-.74,0-1.48.16-2.21.16-.75.54-1.37,1-1.91.77-.9,1.68-1.67,2.63-2.39.48-.37.91-.81,1.38-1.2.85-.7,1.72-1.37,2.57-2.07.5-.42.97-.89,1.46-1.32.75-.66,1.52-1.3,2.29-1.94.48-.4,1-.75,1.48-1.16.48-.4.94-.84,1.41-1.26.05-.05.15-.04.26-.07.25.29.5.59.77.92-.13.14-.31.33-.5.52-3.62,3.63-7.25,7.25-10.87,10.88-.26.26-.48.56-.69.8.17.64.59.63,1.13.57,3.92-3.93,7.89-7.92,11.91-11.95.29.4.55.77.9,1.24-3.91,3.91-7.97,7.98-12.11,12.12.1.12.28.35.47.58.81-.24,1.2-.87,1.71-1.35.97-.91,1.91-1.87,2.85-2.81.79-.79,1.57-1.6,2.36-2.4,1.78-1.79,3.56-3.57,5.34-5.35.07-.07.17-.12.25-.17.3.27.58.54.83.77-4.01,3.99-8.01,7.97-12.02,11.95.04.07.08.15.12.22Z"/><path class="cls-1" d="m264.41,128.48h-20.28c.23.98-.11,1.97.43,2.85.39,3.61,2.58,6.68,4.75,8.57,1.59,1.38,3.42,2.36,5.52,2.78,1.53.3,3.07.32,4.62.06.97-.17,1.83-.61,2.68-1.07.63-.33,1.24-.7,1.67-1.31.08-.11.27-.15.46-.24v3.14c-1.62,2.05-3.65,3.71-5.98,5.01-3.31,1.84-6.88,2.55-10.63,2.26-1.28-.1-2.56-.28-3.8-.72-.91-.32-1.77-.69-2.64-1.09-.94-.43-1.79-1-2.61-1.57-.98-.68-1.93-1.47-2.61-2.52-.33-.51-.82-.92-1.16-1.42-.46-.67-.91-1.37-1.25-2.1-.44-.93-.79-1.91-1.14-2.88-.22-.61-.38-1.24-.53-1.87-.08-.3-.12-.61-.13-.92-.07-1.66-.23-3.32-.15-4.98.06-1.28.16-2.59.71-3.82.32-.72.44-1.53.72-2.28.51-1.32,1.22-2.54,2.01-3.72.64-.95,1.3-1.87,2.16-2.61.97-.83,1.97-1.63,3.04-2.32,1.98-1.27,4.18-2.02,6.49-2.4,1.55-.26,3.13-.39,4.7-.07.32.07.61-.08.97,0,1.49.33,3.01.76,4.46,1.48,1.47.73,2.71,1.74,3.84,2.93,1.43,1.52,2.37,3.29,2.96,5.25.53,1.79.85,3.62.76,5.6Zm-20.29-2.48c2.28-.07,4.48-.13,6.67-.22.5-.02,1.01-.13,1.48-.31,1.31-.53,1.78-1,1.86-2.53.03-.67.04-1.35-.02-2.02-.05-.58-.04-1.18-.17-1.75-.24-1.03-.71-1.94-1.56-2.63-.9-.73-1.95-.79-3.04-.76-1.98.05-3.3,1.06-4.11,2.81-1.07,2.31-1.19,4.77-1.11,7.41Z"/><path class="cls-1" d="m352.16,144.14v2.27c-.95.65-1.94,1.37-2.97,2.02-1.36.85-2.88,1.37-4.41,1.79-.81.22-1.68.42-2.57.36-.99-.06-1.99.06-2.97-.03-.4-.04-.84-.09-1.25-.32-.5-.28-1.11-.34-1.65-.56-1.32-.52-2.33-1.4-3.17-2.56-.82-1.13-1.14-2.45-1.73-3.66-.02-.05-.02-.1-.02-.16-.11-1.31-.3-2.61-.3-3.92,0-3.38.1-6.76.15-10.14.06-3.89.11-7.78.17-11.67,0-.05-.02-.1-.06-.24h-4.96v-2.21c5.7-2.09,12.16-7.81,15.38-14.25h2.83v13.8c.91-.13,1.6-.56,2.23-1.05.53-.41,1-.93,1.45-1.43,1.15-1.3,2.62-1.36,4.12-.37,1,.66,1.29,2.07.83,3.16-.62,1.47-1.82,2.09-3.27,2.27-1.14.14-2.3.1-3.45.13-.61.02-1.22,0-1.88,0-.01.3-.03.54-.03.77,0,6.04.01,12.08-.01,18.11,0,1.61.19,3.2.55,4.76.29,1.24.89,2.37,1.96,3.13,1.01.72,2.18.81,3.37.54.54-.12,1.05-.34,1.68-.55Z"/><path class="cls-1" d="m326.56,147.06v1.98h-22.14v-1.89c.72-.15,1.46-.18,2.08-.46.78-.36,1.52-.78,1.91-1.71.4-.97.49-1.93.49-2.93,0-5.02,0-10.04,0-15.05,0-.38-.05-.75-.04-1.13.02-.69-.33-1.22-.75-1.68-.91-.98-1.96-1.8-3.03-2.6-.65-.49-1.24-1.07-1.9-1.64,1.83-.64,3.56-1.3,5.32-1.85,1.84-.58,3.59-1.37,5.41-1.98,1.09-.37,2.15-.83,3.23-1.21.34-.12.72-.18,1.09-.19,1.39-.02,2.78,0,4.22,0,.02.23.04.44.04.64,0,8.83.01,17.66-.01,26.49,0,.68-.03,1.37.11,2.02.38,1.87,1.32,2.85,3.28,3.15.21.03.42.04.69.06Z"/><path class="cls-1" d="m173.56,119.92c1.31-.42,2.51-.8,3.7-1.2,1.14-.39,2.27-.8,3.4-1.2.86-.3,1.75-.53,2.57-.91,1.39-.65,2.86-1.08,4.27-1.69.33-.14.73-.19,1.09-.2,1.42-.02,2.83,0,4.3,0,.02.22.05.42.05.62,0,8.8,0,17.59,0,26.39,0,.86.11,1.68.28,2.52.33,1.63,1.54,2.51,3.13,2.76.23.04.47.05.74.08v1.97h-22.14v-1.96c.88-.03,1.7-.23,2.52-.55.79-.31,1.17-.89,1.44-1.57.39-1,.54-2.06.54-3.15,0-4.85,0-9.71,0-14.56,0-.35,0-.7-.02-1.05-.05-1.2-.59-2.08-1.64-2.68-.32-.19-.56-.52-.84-.77-.77-.68-1.54-1.35-2.32-2.02-.32-.27-.66-.51-1.06-.81Z"/><path class="cls-1" d="m195.89,116.69v-1.97h22.44v1.89c-.12.05-.28.15-.45.17-.52.07-1.05.09-1.57.18-.85.14-1.36.74-1.35,1.61,0,.42.04.87.19,1.25.36.93.76,1.85,1.19,2.74.71,1.46,1.4,2.93,2.13,4.38.87,1.72,1.56,3.53,2.36,5.28.43.94.95,1.83,1.41,2.75.23.45.41.92.66,1.48-2.36,4.63-4.75,9.31-7.19,14.1-.39-.74-.72-1.36-1.06-1.98-.62-1.16-1.25-2.31-1.86-3.48-.95-1.82-1.88-3.66-2.84-5.47-.54-1.02-1.18-2-1.72-3.02-.64-1.2-1.23-2.44-1.86-3.65-.29-.56-.62-1.09-.92-1.64-.3-.55-.61-1.09-.9-1.64-.62-1.19-1.21-2.38-1.83-3.57-.3-.58-.65-1.14-.97-1.72-.38-.69-.75-1.38-1.11-2.08-.54-1.02-1.06-2.06-1.62-3.07-.32-.58-.63-1.17-1.05-1.67-.25-.3-.67-.49-1.04-.65-.3-.13-.66-.15-1.04-.23Z"/><path class="cls-1" d="m191.32,103.04c.18.62.33,1.09.45,1.58.4,1.68,0,3.24-.86,4.66-.83,1.36-2.06,2.27-3.61,2.71-1.11.32-2.25.39-3.37.1-1.15-.3-2.18-.86-3.01-1.75-.78-.84-1.24-1.87-1.68-2.91.18-.75-.47-1.49,0-2.24-.13-.72.2-1.35.49-1.95,1.09-2.27,2.92-3.51,5.44-3.69.53-.04,1.07-.03,1.6.02.27.03.52.21.78.31,1.43.55,2.62,1.38,3.42,2.73.12.2.3.37.35.43Z"/><path class="cls-1" d="m314.66,99.54c3.39-.16,6.54,2.43,6.73,5.92.21,3.83-2.74,6.62-5.99,6.78-3.98.2-5.94-2.48-6.7-5.12.13-1.19-.16-2.41.41-3.56.54-1.09,1.09-2.12,2.18-2.8,1.17-.73,2-1.23,3.37-1.21Z"/><path class="cls-1" d="m225.67,130.66c-.3-.58-.57-1.09-.87-1.66.36-.69.77-1.43,1.13-2.18.38-.79.37-1.61.25-2.49-.18-1.32-.92-2.31-1.62-3.35-.31-.45-.68-.87-.96-1.34-.48-.82-.62-1.73-.64-2.68-.04-1.81,1.53-3.45,3.2-3.8,1.74-.37,3.57.37,4.43,2.1.63,1.26.79,2.59.44,3.95-.25.97-.6,1.91-1.06,2.81-1.25,2.46-2.45,4.95-3.67,7.42-.19.39-.4.77-.64,1.22Z"/><path class="cls-1" d="m364.1,146.33v-2.96s-.08-.02-.12-.02c-.08.21-.15.43-.23.64-.21.63-.41,1.26-.65,1.87-.08.21-.25.38-.41.61-.49-.35-.49-.85-.65-1.28-.15-.41-.3-.82-.6-1.22-.04.13-.11.25-.12.38-.01.51,0,1.02,0,1.53,0,.34-.09.59-.55.47v-4.1h.79c.38,1.06.75,2.1,1.19,3.31.36-1.17.68-2.17,1.02-3.27.23-.03.53-.06.93-.11,0,1.32,0,2.57,0,3.82,0,.27-.16.46-.58.32Z"/><path class="cls-1" d="m358.34,142.84c-.55-.32-1.21.19-1.55-.58h3.39v.38c-.38.02-.77.04-1.24.06-.01.22-.04.45-.04.68,0,.83,0,1.66,0,2.48,0,.33-.08.59-.56.5v-3.53Z"/></svg>