<?xml version="1.0" encoding="UTF-8"?><svg id="Layer_1" xmlns="http://www.w3.org/2000/svg" viewBox="0 0 431.52 250"><defs><style>.cls-1{fill:#384443;}</style></defs><path class="cls-1" d="m180.04,86.42c1.69-1.3,3.17-2.53,4.74-3.64,5.42-3.82,11.43-4.63,17.77-3.21,1.88.42,3.61.34,5.43-.15,8.59-2.32,16.21-.42,22.92,5.34,1.84,1.58,3.19,3.5,4.2,5.69.48,1.04.95,2.09,2,2.86-.14-1.24-.21-2.48-.43-3.7-.41-2.24-.85-4.48-1.39-6.69-.39-1.58-.24-3.09.22-4.59.38-1.25.85-2.47,1.3-3.7.69-1.89.72-3.75.03-5.67-2.19-6.16-4.33-12.35-6.48-18.53-.56-1.6-1.13-3.2-1.56-4.83-.42-1.57-.04-3.09.77-4.48,1.02-1.76,2.72-2.35,4.61-1.61.54.21,1.05.5,1.55.79,3.54,2.11,7.09,4.21,10.61,6.36,3.13,1.91,5.96,4.18,8.16,7.15.83,1.12,1.53,2.35,2.36,3.63.48,0,1.06,0,1.63,0,4.19.08,8.31.77,12.38,1.64,1.49.32,2.87,1.14,4.29,1.76.53.23,1.01.55,1.46.8.19-.07.3-.08.36-.14,3.32-3.38,7.43-5.43,11.9-6.74,4.83-1.42,9.73-2.63,14.6-3.92.94-.25,1.88-.49,2.82-.72.33-.08.66-.14,1-.18,3.37-.33,5.43,2.04,4.68,5.37-.31,1.36-1.04,2.5-1.88,3.58-4.29,5.45-8.6,10.89-12.87,16.35-.65.83-1.15,1.78-1.73,2.67-.24.36-.43.79-.76,1.05-1.12.88-1.73,2.07-2.18,3.37-.24.69-.46,1.38-.62,2.09-.93,4.23-2.69,8.08-5.17,11.62-.24.35-.48.75-.57,1.16-1,4.26-1.74,8.55-2.02,12.92-.16,2.52.27,4.95,1.34,7.22,1.24,2.63,2.55,5.23,3.89,7.81,1.23,2.37,2.57,4.68,3.08,7.34.03.13.13.25.24.46.35-.18.69-.32,1-.51,4.46-2.71,9.28-3.48,14.41-2.77,5.58.78,10.73,2.6,15.25,6.03,3.85,2.93,6.72,6.6,7.9,11.37,1.48,5.95,0,11.34-3.4,16.28-1.9,2.76-4.38,4.92-7.21,6.68-.33.2-.66.4-.99.61-.08.05-.13.14-.3.32.31.32.62.66.95.98,2.14,2.06,4.04,4.32,5.52,6.92,1.7,2.98,2.54,6.15,2.33,9.61-.22,3.59-.49,7.16-1.47,10.64-1.76,6.24-5.85,9.9-12.22,10.96-7.67,1.28-15.19.78-22.45-2.11-1.87-.75-3.66-1.8-5.35-2.91-2.39-1.57-4.17-3.74-5.46-6.32-1.57-3.14-2.8-6.39-3.41-9.86-.04-.23-.12-.46-.22-.8-1.47-.24-2.94-.53-4.42-.7-6.21-.73-12.42-1.49-18.64-2.11-9.95-.99-19.94-1.38-29.94-1.34-9.08.03-18.14.45-27.18,1.32-10.58,1.02-21.08,2.55-31.43,5-1.31.31-2.61.67-3.85.99-.21,1.79-.28,3.44-.62,5.04-.93,4.36-2.82,8.24-6.01,11.42-1.08,1.07-2.32,1.89-3.74,2.47-4.01,1.65-8.12,2.89-12.48,3.23-12.75,1-21.42-7.92-22.85-17.83-.69-4.81.08-9.28,2.97-13.27.53-.73,1.15-1.4,1.89-2.3-.87-.08-1.52-.16-2.17-.21-2.87-.21-5.67-.71-8.36-1.76-2.96-1.16-5.24-3.05-6.75-5.89-2.05-3.86-3.49-7.91-3.74-12.29-.38-6.64,2.07-11.94,7.82-15.52,3.31-2.06,6.98-3.13,10.78-3.76,3.37-.56,6.76-.63,10.14-.1.57.09,1.05,0,1.49-.36.07-.06.16-.11.24-.17,3.92-3.15,8.42-3.69,13.21-2.95.52.08,1.05.13,1.77.22.09-1.46.11-2.9.3-4.31.19-1.38.56-2.74.89-4.25-.81-.9-1.72-1.9-2.68-2.97-.57.03-1.14.05-1.72.09-2.09.14-4.17.05-6.21-.49-2.87-.76-4.91-2.5-5.89-5.32-.46-1.32-.73-2.71-1.12-4.06-.45-1.53-.88-3.07-1.42-4.57-.6-1.64-1.69-2.94-3.16-3.89-1.54-1-2.77-2.3-3.63-3.91-1.52-2.87-3.08-5.72-4.45-8.67-.75-1.61-1.16-3.38-1.66-5.1-.23-.8-.54-1.51-1.03-2.2-1-1.42-1.84-2.96-2.79-4.42-.74-1.14-1.45-2.3-2.32-3.33-1.89-2.28-3.27-4.8-4.03-7.66-.63-2.37-1.71-4.54-3.01-6.59-1.16-1.84-1.99-3.77-2.09-5.97-.01-.29-.07-.58-.07-.87-.06-2.26,1.21-3.44,3.47-3.17.81.1,1.63.28,2.41.54,4.69,1.57,9.42,3.03,14.03,4.8,3.47,1.33,6.8,3.06,10.4,4.7,3.09-1.54,6.7-2.24,10.34-2.84.66-.11,1.34-.29,1.95-.57,3.22-1.53,6.57-2.33,10.23-1.88.45-.65.95-1.25,1.32-1.92,1.7-3.05,3.43-6.08,5.01-9.19,1.95-3.84,4.21-7.43,7.38-10.38.7-.65,1.48-1.27,2.32-1.73,1.89-1.02,3.62-.53,4.79,1.26.26.4.5.84.69,1.28,1.77,4.22,3.09,8.58,3.55,13.15.26,2.51.32,5.03.55,7.54.31,3.33.7,6.65,1.04,9.98.2,1.98.52,3.92.97,5.87.63,2.71.53,5.49.17,8.25-.08.62-.14,1.24-.23,2.02Zm43.97,56.38c-.48-.03-.82-.06-1.15-.07-3.64-.02-7.28-.14-10.91-.01-6.84.23-13.67.62-20.5.92-.74.03-1.22.34-1.74.86-.78.78-1.64,1.55-2.62,2.04-3.89,1.94-8.06,2.44-12.33,1.89-2.5-.32-4.75-1.34-6.44-3.38-1.39.29-2.72.52-4.03.86-.43.11-.86.42-1.18.74-.98,1-2.14,1.65-3.49,1.99-1.77.45-3.58.53-5.35.24-1.82-.3-3.44.2-5.12.72-.99,2.61-2.88,4.37-5.21,5.71-2.29,1.32-4.74,2.23-7.31,2.82-2.41.55-4.81.56-7.19-.2-2.02-.64-3.55-1.89-4.11-3.98-.93-3.48-.91-6.91,1.02-10.13.11-.18.14-.41.24-.7-2.25-.19-4.37-.11-6.49.21-3.72.56-7.32,1.53-10.54,3.55-4.14,2.59-6.27,6.36-6.36,11.26-.08,4.08,1.17,7.81,2.84,11.47,1.51,3.3,4.01,5.24,7.43,6.2,2.45.68,4.94,1.04,7.47,1.09,1.89.04,3.78-.06,5.67-.11,1.13-.03,1.74.33,1.92,1.15.16.74-.22,1.33-1.16,1.77-.22.1-.45.18-.67.29-3.3,1.69-5.67,4.2-6.82,7.77-.69,2.15-.87,4.35-.63,6.61.98,9.07,8.49,15.91,17.59,16.06,4.77.08,9.19-1.23,13.54-2.98,1.52-.61,2.81-1.55,3.82-2.82,3.23-4.04,5.04-8.59,4.69-13.85-.09-1.43.14-1.83,1.51-2.23,2.09-.61,4.19-1.23,6.31-1.74,17.05-4.13,34.4-5.93,51.9-6.36,12.72-.31,25.42.27,38.08,1.6,7.29.76,14.54,1.79,21.76,3.03,1.67.29,1.96.55,2.12,2.07.33,3.08,1.39,5.92,2.58,8.75,1.69,4.02,4.58,6.82,8.48,8.59,7.31,3.31,14.94,3.95,22.77,2.49,4.99-.93,8.07-3.95,9.41-8.81,1.04-3.77,1.3-7.64,1.4-11.52.01-.38-.07-.77-.12-1.16-.35-2.35-1.33-4.45-2.62-6.41-1.7-2.58-3.82-4.76-6.18-6.74-.19-.16-.39-.29-.57-.45-1.21-1.06-1.05-2.25.43-2.92,3.98-1.8,7.33-4.38,9.71-8.08,2.57-4,3.66-8.34,2.53-13.05-.91-3.77-3.11-6.76-6.06-9.2-4.36-3.6-9.45-5.41-15-6.17-6.12-.83-11.27,1.1-15.73,5.21-2.48,2.29-4.47,4.97-6.06,7.95-.65,1.22-1.13,1.44-2.47,1.14-.51-.11-1.02-.26-1.55-.39-1.75,2.51-4.27,3.54-7.09,3.93-1.67.23-3.38.35-5.07.31-3.65-.08-6.88-1.14-8.93-4.45-4.57,3.71-9.77,3.53-15.15,2.61-2.07,1.44-4.46,1.94-6.99,1.86-3.04-.1-5.95-.83-8.73-2.06-2.61-1.16-4.76-2.81-5.61-5.82ZM101.96,57.7c-.06.5-.11.78-.12,1.06,0,1.95.61,3.7,1.65,5.34,1.33,2.09,2.57,4.25,3.19,6.67.81,3.18,2.35,5.92,4.5,8.38.72.83,1.25,1.83,1.86,2.77,1.05,1.62,2.11,3.24,3.13,4.88.32.52.66,1.09.77,1.67.43,2.26,1.14,4.42,2.16,6.46,1.17,2.34,2.4,4.65,3.63,6.97.74,1.39,1.68,2.62,3.02,3.48,2.39,1.54,3.93,3.72,4.73,6.42.59,2,1.07,4.03,1.61,6.04.96,3.54,2.74,5.24,6.42,5.52,6.19.48,12.2-.4,17.83-3.18,3.7-1.82,6.19-4.75,7.63-8.6,1.46-3.93,1.6-7.96,1.01-12.05-.03-.21-.21-.4-.29-.57-.81.17-1.54.32-2.26.47-.03-.11-.06-.22-.1-.32,1.02-1.13,2.27-1.87,3.89-1.63,1.37.2,2.42,1.53,2.67,3.17-.74-.29-1.12-1.16-2.09-1.32.48,2.95.95,5.75,1.41,8.56.97-1.43,1.74-2.83,2.38-4.29,1.39-3.19,2.75-6.39,4.45-9.44,1.35-2.42,1.97-5.16,2.48-7.89.53-2.82.89-5.67.38-8.53-.22-1.24-.68-2.44-.83-3.68-.46-3.66-.87-7.32-1.21-10.99-.26-2.75-.35-5.52-.55-8.27-.35-4.69-1.52-9.17-3.27-13.52-.14-.36-.3-.72-.49-1.06-.72-1.36-1.33-1.55-2.51-.62-1.06.84-2.07,1.77-2.97,2.78-2.05,2.29-3.66,4.89-4.99,7.66-1.85,3.85-3.86,7.61-6.26,11.15-.09.14-.12.32-.18.48.87.41,1.65.78,2.44,1.16-.85.16-1.62.09-2.38-.02-3.82-.57-7.53-.33-11.09,1.35-.95.45-2.02.67-3.06.89-2.46.54-4.96.91-7.39,1.56-2.98.8-5.49,2.41-7.4,4.89-.11.15-.27.25-.41.38.43-1.78,1.69-2.92,2.98-4.22-.86-.51-1.59-.97-2.34-1.38-6.97-3.87-14.63-5.94-22.14-8.39-.53-.17-1.14-.12-1.87-.19Zm137.78,65.53c-.29-1.44-.59-2.72-.8-4-.14-.84-.48-1.48-1.08-2.12-2.5-2.66-3.65-5.85-2.94-9.48.5-2.56,1.26-5.08,1.97-7.59.24-.87.11-1.57-.33-2.34-1.43-2.48-2.77-5-4.19-7.49-.48-.84-1-1.69-1.66-2.38-3.14-3.31-6.86-5.68-11.34-6.75-3.66-.88-7.31-.66-10.95.24-1.98.49-3.94.77-6.01.14-1.46-.45-3.05-.57-4.6-.64-6.1-.26-11.09,2.28-15.44,6.34-1.29,1.21-2.27,2.64-3.02,4.24-.62,1.31-1.29,2.6-1.96,3.89-2.38,4.56-4.87,9.06-7.11,13.68-1.39,2.87-2.5,5.89-3.56,8.9-.81,2.33,0,4.31,1.99,5.74.74.53,1.56,1.02,2.42,1.29,3.48,1.12,7.08,1.59,10.72,1.78.32.02.65-.09,1.16-.17.13-.75.4-1.51.35-2.24-.21-2.85-.43-5.7-.81-8.52-.29-2.15-.91-4.25-.94-6.46-.04-3.27.21-6.48,1.11-9.64.46-1.61,1.19-3.06,2.05-4.47.07-.12.28-.16.65-.35-.36,1.72-.65,3.23-.98,4.72-1.1,5.08-1.34,10.17-.19,15.29.68,3.03,1.16,6.11.99,9.23-.08,1.48.56,2.33,1.76,3,.32-3.81.82-5.13,2.33-5.99-.32,1.34-.62,2.63-.98,4.12.95-.3,1.64-.53,2.55-.82-.49,2.38-1.03,4.49-.49,6.78,1.7-.85,2.96-2.37,5.06-2.37-.83,2.3-1.47,4.45-.86,6.87,1.44-.91,2.31-2.56,4.27-2.53.11,1.72-.22,3.44.68,5.03.56-.37,1.01-.66,1.44-.97,1.5-1.06,3.11-1.74,5.02-1.6.71.05,1.46-.05,2.16-.23,1.74-.45,2.15-1.51,1.26-3.2-.35-.04-.73-.1-1.12-.14-2.64-.28-4.48-1.75-5.7-4.01-1.29-2.38-.4-4.44,2.23-4.95,2.28-.44,4.61-.62,6.92-.84.86-.08,1.75,0,2.6.15,1.97.36,2.89,1.6,2.46,3.56-.59,2.71-1.71,5.09-4.79,5.8-.18.04-.35.13-.5.19-.47,2.2.24,3,2.37,2.71.62-.09,1.24-.25,1.83-.45,1.09-.38,2.18-.42,3.29-.15.84.21,1.67.4,2.56.61.55-1.59-.44-2.96-.44-4.64.77.13,1.43.19,2.06.37.68.2,1.33.5,2.11.81.15-2.25-1.1-3.82-2.16-5.51,1.82-.59,3.32.39,5.03.62-.13-2.06-1.05-3.75-1.98-5.62h2.39c-.62-1.16-1.13-2.11-1.62-3.02.17-.67.38-1.31.5-1.97.32-1.76.76-3.52.87-5.3.15-2.31.25-4.66,0-6.96-.31-2.88-1-5.72-1.51-8.58-.04-.25,0-.51,0-.77.1-.04.19-.08.29-.13.46.66.98,1.28,1.35,1.98.95,1.76,1.52,3.65,1.76,5.65.36,2.99.69,5.97.2,8.98-.37,2.3-.72,4.59-1.1,6.89-.15.88-.13,1.7.3,2.53.43.84.79,1.76.65,2.82h-1.16c.17.57.32,1.04.48,1.58,3.49.08,6.77-.46,10.13-1.15Zm10.36-5.93c.53.51.78.93,1.13,1.07,2.48.96,4.92,1.6,7.23-.32,4.31-3.6,8.12-7.64,11.25-12.32.16-.25.25-.54.41-.87q-1.86.07-2.61-.36c1.32-1.12,2.8-1.5,4.47-1.21.62.11,1.09.4,1.28,1.03.25.82.23,1.63.03,2.67-.45-.65-.73-1.06-1.13-1.63-.44.81-.81,1.42-1.12,2.07-1.21,2.48-2.32,5.02-3.63,7.46-1.91,3.55-4.41,6.62-7.93,8.73-.17.1-.34.19-.53.3.35.68.61,1.19.96,1.87.98-.74,1.91-1.35,2.73-2.08,1.76-1.55,3.21-3.38,4.46-5.35,2.21-3.48,4.37-7,6.59-10.47,1.12-1.75,2.35-3.43,3.63-5.27-.84-1.64-1.71-3.37-2.61-5.09-1.27-2.43-3.24-3.6-6.03-3.48-1.66.07-3.28-.32-4.73-1.21-1.78-1.09-2.82-2.57-2.81-4.76,0-2.73.61-5.32,1.94-7.67,1.45-2.56,3.68-4.06,6.69-4.26,2.55-.17,4.89.38,7.1,1.67.78.45,1.66.85,2.54.98,1.85.28,2.27-.16,2.27-2,0-.44.03-.89-.08-1.3-.63-2.58-.99-5.24-2.16-7.67-.57-1.18-1.14-2.37-1.56-3.6-.35-1.05-1-1.62-2.03-1.84-2.32-.49-4.64-1-6.97-1.44-1.43-.27-2.86-.55-4.31-.63-2.2-.12-4.31.48-6.41,1.11-1.94.59-3.93,1.03-5.91,1.5-.56.13-1.2.17-1.6-.39-.41-.58-.35-1.23.02-1.78.37-.55.82-1.08,1.34-1.48.75-.57,1.6-1.02,2.45-1.56-.35-.58-.63-1.09-.94-1.58-2.02-3.12-4.79-5.46-7.9-7.41-2.67-1.67-5.4-3.26-8.1-4.88-1.21-.72-2.39-1.48-3.63-2.14-1.34-.72-2.23-.4-2.78,1-.24.61-.37,1.34-.29,1.98.13,1.05.39,2.1.73,3.1.69,2.02,1.52,3.99,2.22,6,1.72,4.89,3.39,9.81,5.11,14.7.48,1.36.95,2.7.97,4.19.01,1.04-.03,2.01-.42,2.99-.44,1.08-.85,2.17-1.18,3.29-.29.97-.49,1.94-.24,3,.54,2.31.99,4.64,1.42,6.98.83,4.45.89,8.85-.64,13.21-.64,1.82-1.02,3.74-1.41,5.64-.55,2.65.24,4.99,1.9,7.06.29.36.69.73,1.12.87,1.05.36,2.14.62,3.23.85.49.1,1.06.21,1.41-.37-.56-.5-1.25-.88-1.61-1.47-1.41-2.33-2.01-4.85-1.15-7.51.68-2.12,1.87-2.81,4.11-2.6.53.05,1.05.18,1.57.27.95.17,1.9.37,2.85.48,1.69.2,3.38.34,4.92,1.18,1.87,1.02,2.52,2.79,1.6,4.68-.53,1.09-1.17,2.13-1.87,3.11-.96,1.35-2.3,2.2-3.94,2.54-.37.07-.72.21-1.45.42Zm36.11,23.88c.13,0,.26,0,.39,0,.18-.53.47-1.04.51-1.58.08-1.06.08-2.14.02-3.2-.13-2.17-.78-4.14-2.05-5.97-1.27-1.82-2.42-3.74-3.47-5.7-2.39-4.44-2.44-8.99-.39-13.58.21-.47.32-1.01.4-1.53.36-2.59.69-5.19,1.03-7.78.05-.35.05-.71.07-1.06-2.35,2.6-4.85,4.97-6.65,7.94-2.17,3.56-4.4,7.09-6.64,10.61-1.75,2.76-3.79,5.28-6.41,7.28-.69.52-1.42,1-2.02,1.43,0,1.12.1,2.14-.03,3.12-.15,1.12-1.13,1.68-2.07,2.19,1.5,1.14,2.84,2.16,4.19,3.19,2.37-1.6,5.43-2.85,8.09-3.3,5.86-.99,10.94,1.33,14.14,6.47.3.49.59.98.89,1.47Zm-124.71-19.21c-.67.07-1.34.12-2,.21-5.6.77-8.99,3.94-10.51,8.96-.85,2.81-.83,5.76-.29,8.65.25,1.32.71,2.62,1.26,3.84.6,1.34,1.73,2.23,3.2,2.53,1.82.36,3.65.49,5.49.09,2.56-.55,3.76-2.18,3.26-4.76-.47-2.42-1.11-4.81-1.7-7.21-.61-2.5-1.14-5.01-1.01-7.61.09-1.88.51-3.56,2.3-4.71Zm-29.49,26.84c.29,2.66.57,5,1.54,7.3,2.36-.19,4.57-.72,6.81-1.76-.44-2.24-.87-4.4-1.34-6.77,1.92,1.59,2.79,3.64,3.87,5.62,3.02-1.75,4.93-4.05,4.43-7.6-.29-2.04-.93-4.03-1.42-6.08-2.63-.59-5.23-.85-7.83-.34-1.27.25-2.58.63-3.68,1.27-1.62.95-3.15,2.1-4.58,3.32-2.59,2.2-3.44,6.85-1.91,9.88.49.98,1.24,1.64,2.45,1.84,0-2.32-.02-4.54,1.66-6.69Zm57.37-14.59c-.68-1.14-.68-1.14-1.7-1.62-1.56-.73-3.18-1.12-4.91-1.14-3.58-.04-6.73,1.3-9.68,3.12-.78.48-1.44,1.29-1.94,2.09-.89,1.42-1.24,3.07-1.27,4.73-.02,1.26.28,2.48,1.55,3.2,1.85-4.57,1.89-4.64,3.33-5.35-.14,2.22-.56,4.38-.07,6.71,2.17.44,4.32.44,6.53-.09.09-1.17.15-2.18.24-3.19.09-.97-.22-1.98.28-3.07,1.5,1.69,1.75,3.76,2.43,5.71,2.95-.74,4.79-2.42,5.54-5.27.14-.54.32-1.06.5-1.68,1.19.59.79,1.89,1.49,2.48h3.19q-.42-1.2-1.41-1.76c-.52-2.56-2.36-4.78-4.1-4.88Zm53.66,12.96c.84-.28,1.26-.79,1.59-1.49.85-1.81.47-3.59.05-5.39-.38-1.64-1.27-2.92-2.71-3.8-1.24-.75-2.47-1.54-3.76-2.2-4.36-2.24-8.64-1.96-12.78.61-1.62,1.01-2.92,2.39-4.06,3.92-.3.4-.5.89-.82,1.47h3.17c.71-.41.66-1.28,1.62-1.4.1,3.57,1.45,6.3,5.06,7.55.44-.97.83-1.9,1.28-2.81.46-.93.95-1.84,1.95-2.68-.11,2.36-.2,4.44-.29,6.46,2.29.87,5.06,1.08,6.41.54.21-1.03.5-2.06.62-3.11.13-1.07.09-2.15.13-3.23,1.72,1.49,2.2,3.42,2.53,5.57Zm41.07-3.18c.64-.46.85-.9.56-1.48-1.98-3.94-4.83-6.76-9.44-7.32-2.75-.34-5.28.46-7.77,1.47-3.24,1.31-5.03,4.14-4.85,7.64.07,1.39.69,2.18,2.13,2.69,1.19-3.38,1.52-3.94,2.87-4.65-.12,1.01-.28,1.96-.33,2.92-.05.94-.36,1.9.01,2.93,1.99.34,3.93.52,6.01.11.21-1.78.42-3.48.65-5.42,1.12,1.66,1.16,3.44,1.74,5.25,1.04-.51,1.99-.87,2.83-1.41,1.64-1.04,2.22-2.82,2.91-4.77.34.72.56,1.19.78,1.66.66.14,1.27.27,1.89.39Zm-22.33-5.86c-2.06-2.44-4.8-3.71-8.07-3.7-2.85,0-5.46,1-8.02,2.34,1.68,3.25,2.18,6.52,1.3,10.05,1.86.59,3.67.41,5.65.36.22-1.83.42-3.54.62-5.26.11-.01.21-.03.32-.04.47,1.6.94,3.21,1.44,4.93,2.4-.5,4.3-1.63,5.2-4.05.55-1.49,1.01-3.01,1.55-4.64Zm22.98-74.49c.44,2.12,1.5,3.85,2.75,5.46,1.61,2.08,2.24,2.15,4.47.69.28-.19.57-.38.83-.58,3.31-2.56,6.21-5.55,8.87-8.77.64-.78,1.15-1.68,1.68-2.54.16-.25.18-.58.31-1.01-.63.03-1.11,0-1.58.08-2.1.35-4.21.66-6.29,1.13-2.75.62-5.43,1.45-7.9,2.85-1.18.67-2.31,1.42-3.14,2.7Zm-26.2,56.87c-2.18,1.25-4.47,1.22-6.81.78-.67-.12-1.34-.24-2.01-.35-1.92-.3-3.6.84-4,2.72-.68,3.18.47,5.81,3.34,7.34,2.71,1.46,5.61,1.8,8.61,1.14,1.88-.42,2.4-1.32,1.81-3.21-.39-1.24-.94-2.44-1.49-3.62-1.02-2.16-.94-2.95.56-4.8Zm-96.54,10.25c.98,3.94,1.98,8,3.03,12.21.71-.07,1.51-.14,2.23-.21.09-.23.16-.32.16-.41.03-.39.03-.77.06-1.16.34-4.74,2.25-8.38,7-10.06,1.1-.39,2.17-.83,3.27-1.22.56-.2.98-.44.72-1.24-3.33-.74-6.86-.89-9.69-2.47-2.38,1.61-4.53,3.07-6.77,4.58Zm142.91-71.91c-1.75,2.67-3.95,4.89-6.17,7.1-2.23,2.23-4.53,4.37-7.4,5.9-.28,1.85-.2,3.61.66,5.37,2.05-1.2,3.69-2.59,5.02-4.35,2.11-2.77,4.23-5.54,6.38-8.28,1.32-1.69,1.39-3.69,1.51-5.73Zm-64.52,66.84c-3.3.48-6.83.98-10.41,1.5.14,1.22-.91,2.4.03,3.65,3.55-.56,6.86.17,9.94,1.82,1.53-.77,2.49-2.18,3.07-4.38-.88-.86-1.7-1.67-2.62-2.58Zm-29.54,9.61c-1.48,1.23-3.01,1.85-4.81,1.72-.53-.04-1.07-.04-1.59.03-.33.04-.65.24-1.05.4,4.12,3.44,11.09,2.19,14.15-2.17-2.29.11-4.48,1.66-6.71.02Zm-50.23-7.08c2.25-.89,4.18-2.06,5.75-3.75-.61-.92-1.14-1.72-1.67-2.52-1.22.81-2.43,1.58-3.61,2.4-.25.17-.49.5-.54.79-.17.98-.27,1.98.07,3.08Zm83.35,6.87c1.85-.75,3.58-1.45,5.58-2.26-1.98-.86-3.49-2-4.55-3.78-.96,1.67-1.84,3.2-2.78,4.83.61.42,1.24.85,1.75,1.2Zm-29.46-10.9c-.01-.14-.02-.28-.03-.42-2.55.15-5.11.25-7.66.47-1.04.09-2.11.36-3.02,1.3.08.44.18.96.3,1.6.46-.16.82-.17.95-.35.65-.89,1.62-.98,2.58-1.12.38-.06.77-.06,1.16-.11,1.96-.24,3.92-.49,5.72-1.36Zm41.07-14.56c-.22-.97-.92-1.37-1.65-1.54-2.78-.65-5.61-.98-8.47-1.04-.66-.01-1.32.25-1.95.74,1.55.12,2.9.19,4.24.33,1.3.13,2.61.28,3.89.52,1.3.25,2.58.63,3.95.98Zm-14.02,9.11c-.05,2.54,1.11,5.23,2.66,6.06,0-.75.17-1.51-.04-2.16-.39-1.23-.99-2.4-1.55-3.71-.18-.07-.49-.19-.81-.29-.07-.02-.17.06-.26.09Zm-26.59,21.5c3.52-.14,2.66.34,4.42-2.25.19-.28.42-.53.58-.83.12-.21.15-.46.22-.7-.97.51-1.68,1.2-2.46,1.81-.82.65-1.71,1.22-2.76,1.96Zm56.78-50.71c1.03-.28,1.23-1.15,1.37-2,.11-.71.16-1.47-.69-1.9-.98.23-1.2,1.06-1.35,1.85-.14.74-.25,1.56.67,2.04Zm-122.86,37.55c.62-.85,1.09-1.5,1.59-2.18-1.17-1.35-2.41-.49-3.88-.33.82.9,1.49,1.63,2.28,2.51Zm46.82,10.39c.47.96.88,1.78,1.29,2.6.33.66.81.86,1.36.55-.55-1.42-1.06-2.75-1.59-4.15-.29.27-.63.59-1.05.99Zm4.28,2.92c.04.11.07.22.11.33,1.17-.09,2.34-.18,3.51-.27,0-.08,0-.15.01-.23-.66-.36-1.33-.71-2.04-1.09-.58.46-1.09.86-1.59,1.26Zm27.6-9.19c1.02-.55.4-1.29.36-1.89-.04-.55-.19-1.12-.98-.98.2.95.4,1.86.62,2.87Zm-41.97-1.81c-.78-1.09-1.39-.99-2.12-.37.66.12,1.25.22,2.12.37Z"/><path class="cls-1" d="m232.1,193.3c.11-.66.15-1.35.35-1.99.43-1.42,1.38-2.3,2.88-2.5.38-.05.77-.09,1.16-.08,2.87.07,3.9,1.57,3.88,4.3,0,.19-.06.38-.08.57-.31,3.56-3.2,4.42-5.89,3.55-1.49-.48-2.21-1.78-2.3-3.86Zm6.6-.51s-.06-.01-.09-.02c0-.19-.01-.39-.03-.58-.13-1.36-.83-2.12-2.05-2.23-1.17-.11-2.2.57-2.44,1.81-.16.84-.17,1.74-.06,2.58.15,1.11.81,1.66,1.81,1.78,1.16.14,2.03-.3,2.44-1.38.24-.62.29-1.31.42-1.97Z"/><path class="cls-1" d="m244.37,194.24c0-.19-.01-.39,0-.58.22-3.53,3.28-5.29,6.42-3.62.59.31,1.2.92,1.43,1.53.68,1.82.5,3.66-.65,5.25-.42.57-1.18.99-1.87,1.25-1.02.38-2.11.21-3.13-.13-1.51-.5-2.2-1.7-2.2-3.69Zm6.56-.64s-.08-.02-.12-.03c0-.19.01-.39,0-.58-.09-1.22-.68-1.96-1.74-2.17-1.22-.23-2.33.27-2.65,1.44-.26.95-.33,2-.23,2.97.12,1.09.93,1.65,2,1.74.97.08,1.81-.36,2.2-1.31.27-.65.36-1.38.54-2.07Z"/><path class="cls-1" d="m256.51,198.74c.32-2.69.64-5.32.97-8.1,1.8.11,3.47.12,5.01.95.09.05.17.1.25.16,1.3.94,1.7,2.28,1.2,4.62-.39,1.79-1.54,2.79-3.19,2.9-1.4.09-2.78,0-4.23-.52Zm1.74-1.04c1.64.6,2.67.45,3.43-.44.78-.92,1.01-2.84.47-3.86-.55-1.03-1.66-1.46-3.21-1.19-.22,1.82-.45,3.67-.68,5.49Z"/><path class="cls-1" d="m181.27,196.24c.82,1.21,1.58,2.31,2.5,3.66-.74.12-1.22.19-1.76.28-.5-.78-.96-1.51-1.43-2.23-.48-.74-1.11-1.06-2.09-.6.13,1.01.27,2.04.43,3.24-.44.11-.87.21-1.5.37-.47-2.78-.92-5.43-1.36-8.01,1.14-.67,3.61-1.07,4.6-.81,1.41.37,2.08,1.98,1.33,3.25-.19.33-.49.59-.71.86Zm-3.06-.34c.86.1,1.65.05,2.19-.71.34-.48.29-1.05-.13-1.47-.71-.71-1.5-.36-2.42-.14.12.78.23,1.49.36,2.32Z"/><path class="cls-1" d="m205.77,189.22h1.51c.12,1.03.24,2.02.36,3.04h3.26v-3.29c.47-.05.92-.1,1.57-.17.13,2.79.26,5.48.4,8.33-.56.05-1,.08-1.56.13-.09-1.22-.18-2.32-.27-3.49h-3.27v3.67c-.49.02-.93.05-1.51.08-.17-2.82-.33-5.5-.49-8.3Z"/><path class="cls-1" d="m192.76,198.77c-1.74.2-3.26.37-4.95.56-.38-2.82-.73-5.47-1.11-8.33,1.7-.21,3.26-.4,4.91-.61.08.38.15.68.24,1.08-1.11.19-2.13.36-3.28.55.06.69.1,1.29.16,1.99h2.83c.07.27.14.53.24.94-.97.17-1.84.32-2.87.5.1.82.2,1.56.31,2.45,1.11-.09,2.1-.17,3.19-.26.09.3.17.59.33,1.13Z"/><path class="cls-1" d="m200.78,189.92c.02.34.04.66.06.96-.16.06-.25.13-.33.12-.57-.07-1.14-.2-1.71-.22-.53-.01-1.02.31-1.02.83,0,.35.31.83.62,1.02.52.33,1.16.47,1.74.71,1.25.54,1.7,1.21,1.64,2.45-.05,1.14-.64,1.98-1.88,2.27-.82.19-1.71.13-2.56.08-.73-.04-.92-.58-.89-1.38.35.05.65.12.96.14.62.03,1.27.15,1.85.01.33-.07.74-.55.79-.89.05-.33-.24-.83-.54-1.06-.41-.31-.98-.4-1.45-.64-.51-.26-1.08-.51-1.45-.91-1.03-1.12-.62-2.89.78-3.53,1.05-.48,2.14-.59,3.39.03Z"/><path class="cls-1" d="m267.71,198.9c.86.31,1.56.63,2.3.82.55.14,1.08-.07,1.34-.63.27-.59-.03-1.04-.48-1.39-.46-.36-.96-.66-1.41-1.02-.97-.78-1.27-1.78-.91-2.84.33-.94,1.21-1.48,2.44-1.46.94.01,1.82.23,2.61.99-.08.31-.16.66-.26,1.05-.57-.27-1.03-.55-1.53-.71-.57-.19-1.2-.23-1.55.4-.36.65.04,1.11.54,1.48.43.32.89.59,1.31.92.98.76,1.29,1.72.95,2.82-.29.94-1.18,1.58-2.33,1.68-.95.08-1.84-.11-2.66-.59-.66-.38-.85-.89-.36-1.52Z"/><path class="cls-1" d="m166.8,194.3c1.69-.32,3.14-.59,4.63-.87.13.4.21.66.35,1.08-1.01.27-1.96.52-3.03.8.14.77.26,1.46.4,2.25.95-.12,1.79-.22,2.73-.34.12.31.23.59.39,1.01-.98.25-1.84.47-2.82.71.18,1.11.35,2.14.54,3.33-.51.08-.95.16-1.52.25-.56-2.74-1.09-5.37-1.68-8.23Z"/><path class="cls-1" d="m223.73,188.65h4.41c.03.38.05.73.08,1.21h-2.98v2.41c.91.06,1.76.11,2.69.17v1.14h-2.74c-.07,1.14-.14,2.14-.21,3.29-.39.05-.78.09-1.07.13-.51-.54-.58-7.03-.18-8.35Z"/><path class="cls-1" d="m278.78,180.55h-4.96c-1.29-5.46-2.56-10.81-3.82-16.17-.12,0-.23.02-.35.02-.48,5.02-.96,10.04-1.46,15.15h-4.3c.76-8.68,1.51-17.26,2.26-25.92.93,0,1.79-.03,2.64,0,.87.04,1.73.15,2.8.25,1.25,5.24,2.51,10.48,3.76,15.72.09,0,.19-.01.28-.02.56-4.97,1.11-9.93,1.69-15.05,1.66.21,3.17.4,4.76.6-1.11,8.53-2.2,16.93-3.31,25.41Z"/><path class="cls-1" d="m162.84,156.21c1.76-.17,3.44-.34,5.26-.51.2,1.3.42,2.53.57,3.76.58,4.96,1.17,9.92,1.65,14.89.12,1.23-.09,2.51-.31,3.74-.28,1.56-1.26,2.69-2.6,3.52-2.03,1.26-4.23,1.68-6.56,1.33-2.16-.33-3.82-1.5-4.71-3.49-.73-1.63-1.35-3.34-1.72-5.08-1.08-5.07-2.01-10.18-2.99-15.27-.04-.19-.02-.38-.04-.76,1.67-.39,3.35-.77,5.21-1.2.2,1.21.38,2.33.57,3.46.78,4.73,1.55,9.47,2.35,14.2.11.66.31,1.33.58,1.94.65,1.49,1.98,2.16,3.4,1.8,1.37-.34,2.14-1.44,2.03-3.12-.11-1.64-.28-3.29-.53-4.92-.69-4.5-1.44-9-2.16-13.5-.03-.19,0-.38,0-.8Z"/><path class="cls-1" d="m263.32,178.23h-4.31c-.32-1.99-.65-3.98-.98-6h-6.43c-.44,1.84-.89,3.7-1.37,5.72-1.45-.21-2.86-.41-4.46-.63,1.94-8.63,3.85-17.12,5.77-25.66h7.92c1.29,8.86,2.56,17.63,3.86,26.57Zm-7.71-21.15c-.11,0-.22-.01-.33-.02-.9,3.63-1.89,7.24-2.62,11.01h4.73c-.61-3.75-1.19-7.37-1.78-10.99Z"/><path class="cls-1" d="m293.3,172.31c-1.28-.13-2.37-.25-3.64-.38.14-1.22.26-2.31.41-3.61,2.78.31,5.5.62,8.36.94-.1.85-.17,1.56-.27,2.27-.34,2.31-.85,4.58-1.79,6.73-.83,1.89-2.01,3.47-4.15,3.96-2.42.56-4.73.07-6.89-1.08-.96-.51-1.61-1.43-1.96-2.46-.36-1.05-.73-2.13-.82-3.23-.37-4.34,0-8.63,1.36-12.79.4-1.23.98-2.44,1.68-3.53,1.56-2.45,3.89-3.62,6.78-3.46,2.6.15,5.05.86,7.31,2.53-.59,1.33-1.16,2.64-1.78,4.05-1.4-.98-2.81-1.56-4.39-1.69-2.29-.2-3.64.56-4.75,2.58-.77,1.4-1,2.93-1.26,4.45-.43,2.54-.83,5.08-.45,7.66.1.65.33,1.34.7,1.88,1.15,1.69,3.25,1.63,4.32-.1.86-1.39,1.15-2.95,1.23-4.72Z"/><path class="cls-1" d="m244.96,152.72c-.42,1.39-.8,2.68-1.22,4.08-.36-.13-.63-.19-.87-.31-1.36-.63-2.79-.75-4.27-.66-1.47.1-2.57.79-3.31,2.05-.71,1.2-1.03,2.52-1.11,3.88-.17,2.81-.33,5.63.19,8.41.16.84.47,1.69.89,2.43.55.95,1.51,1.35,2.61,1.24,1.03-.11,1.61-.81,2-1.71.55-1.28.74-3.26.41-4.59h-3.41v-3.62c2.68-.16,5.37-.11,8.15-.09.04.46.11.83.11,1.2,0,2.92-.21,5.82-1.18,8.6-.97,2.82-2.89,4.26-5.89,4.31-1.11.02-2.23-.11-3.32-.32-1.63-.31-2.75-1.37-3.52-2.81-1.03-1.92-1.4-4.02-1.59-6.15-.3-3.39-.35-6.78.4-10.13.19-.85.44-1.69.78-2.49,1.43-3.42,4.19-5.22,7.89-5.05,2.13.09,4.23.45,6.26,1.72Z"/><path class="cls-1" d="m142.86,178.17c.44,2.51.88,4.98,1.33,7.53-1.39.36-2.64.69-4.01,1.04-1.72-8.21-3.43-16.35-5.17-24.64.51-.22,1.01-.52,1.55-.64,2.17-.49,4.34-1.04,6.54-1.37,3.04-.46,5.18.77,6.45,3.58.89,1.97,1.35,4.05,1.2,6.22-.21,3.03-1.91,5.12-4.44,6.58-1.04.61-2.17,1.07-3.45,1.68Zm-.93-4.17c.95-.45,1.67-.71,2.3-1.11,2.05-1.34,2.59-4.32,1.3-6.91-.88-1.77-2.61-2.19-5.19-1.25-.09.03-.15.12-.35.29.61,2.83,1.24,5.74,1.94,8.98Z"/><path class="cls-1" d="m177.91,180.23c-1.47.25-2.7.47-4.15.72-.34-2.85-.67-5.61-1-8.37-.33-2.74-.65-5.48-1.01-8.22-.36-2.78-.75-5.55-1.13-8.42.69-.21,1.27-.47,1.88-.56,2.11-.3,4.22-.63,6.34-.79,2.97-.22,5.05,1.17,6.09,3.94.78,2.08,1.04,4.24.75,6.44-.3,2.29-1.47,4.14-3.43,5.32-1.52.92-3.2,1.58-5.05,2.47.22,2.3.46,4.83.71,7.47Zm-1.34-12.08c3.03-.38,4.53-1.93,4.66-4.65.03-.62,0-1.26-.12-1.88-.53-2.78-3.2-3.86-5.7-2.26.38,2.88.77,5.79,1.16,8.78Z"/><path class="cls-1" d="m193.27,171c.15,2.5.29,4.95.44,7.58-1.38.21-2.65.4-4.12.62-.73-8.41-1.45-16.73-2.18-25.2.98-.2,1.91-.48,2.85-.58,1.83-.18,3.67-.34,5.51-.36,3.03-.02,5,1.39,5.8,4.3.43,1.57.63,3.25.61,4.88-.03,3.45-1.84,5.85-4.92,7.27-1.22.56-2.53.95-4,1.48Zm-1.28-13.55c.28,3.08.56,6.05.83,9.02,2.2-.08,3.75-1.02,4.42-2.65.65-1.59.67-3.21.06-4.82-.35-.92-1.01-1.49-1.98-1.75-1.08-.29-2.1-.11-3.34.21Z"/><path class="cls-1" d="m207.91,151.95c1.3,3.35,2.58,6.63,3.85,9.91,1.38-3.32,2.19-6.77,3.34-10.26,1.63.16,3.24.32,5,.5-.16.49-.26.84-.38,1.18-1.59,4.37-3.17,8.74-4.77,13.11-.39,1.07-.52,2.14-.45,3.28.14,2.03.22,4.07.32,6.1.02.53,0,1.05,0,1.75-1.5.14-2.93.27-4.54.42-.1-1.45-.34-2.83-.27-4.21.18-3.59-.72-6.88-2.22-10.1-1.5-3.2-2.87-6.46-4.29-9.7-.15-.35-.3-.7-.5-1.18,1.64-.27,3.21-.52,4.9-.8Z"/><path class="cls-1" d="m145.33,119.71c-2.19-.11-4.26-.55-6.19-1.55-2.42-1.25-3.99-3.18-4.48-5.91-.35-1.97.4-3.57,2.19-4.45,4.28-2.12,8.81-3.24,13.59-3.09,1.18.04,2.38.41,3.49.84,1.48.57,2.22,1.83,2.39,3.38.22,2.01-.28,3.87-1.44,5.5-1.55,2.18-3.6,3.81-6.15,4.66-1.08.36-2.27.42-3.4.62Zm7.35-9.17c-.42-1.95-.74-2.28-2.29-2.07-4.18.56-8.3,1.41-12.2,3.11-.2.09-.37.24-.55.37.75.22,1.47.26,2.14.12,2.7-.56,5.38-1.23,8.08-1.77,1.54-.31,3.12-.82,4.83.24Z"/><path class="cls-1" d="m174.22,62.71c-.11,1.04-.14,2.41-.43,3.73-.42,1.95-1.46,2.55-3.4,2.19-3.05-.57-5.79-1.88-8.36-3.59-.97-.64-1.43-1.49-1.59-2.62-.37-2.62.12-5.13.98-7.57,1.36-3.88,3.5-7.34,6.02-10.57.12-.15.26-.29.39-.43,1.37-1.41,2.29-1.32,3.02.49.67,1.65,1.27,3.37,1.66,5.11.96,4.26,1.4,8.61,1.72,13.28Zm-4.76-18.75c-.43.41-.74.64-.97.92-2.84,3.55-5.13,7.4-6.41,11.79-.52,1.79-.77,3.61-.46,5.46.09.58.36,1.29.79,1.62,2.53,1.94,5.38,3.26,8.55,3.77.92.15,1.41-.14,1.66-1.02.22-.73.31-1.52.36-2.28.22-3.26-.31-6.47-.7-9.69-.35-2.84-.87-5.65-1.87-8.34-.26-.71-.59-1.39-.95-2.23Z"/><path class="cls-1" d="m108.01,61.23c.95.28,2.49.68,4.01,1.17,2.64.86,5.12,2.05,7.36,3.7,1.5,1.1,2.78,2.41,3.64,4.08.32.62.47,1.24.27,1.95-.72,2.6-1.83,5-3.49,7.12-1.46,1.87-2.75,1.94-4.5.28-.38-.37-.76-.75-1.09-1.17-3.17-4.12-5.94-8.48-7.81-13.36-.24-.63-.45-1.28-.59-1.94-.29-1.4.13-1.88,2.19-1.83Zm-1.2,1.19c.24.82.4,1.48.63,2.1,1.69,4.53,4.31,8.54,7.12,12.44.42.59.91,1.14,1.44,1.63.44.42.98.73,1.59,1.16.54-.52,1.04-.9,1.41-1.38,1.4-1.82,2.38-3.86,3.06-6.06.22-.72.19-1.36-.27-1.91-.94-1.1-1.81-2.3-2.93-3.18-3.23-2.52-7-3.89-10.95-4.8-.27-.06-.56,0-1.09,0Z"/><path class="cls-1" d="m135.87,89.76c.01,1.76-.82,2.77-2.44,3.14-1.58.36-2.9-.2-3.49-1.63-.86-2.06-.86-4.17.02-6.23.64-1.5,1.92-1.79,3.17-.71,1.7,1.46,2.52,3.39,2.74,5.42Zm-1.39,1.66c1.1-1.42.77-3-.72-3.86-1.23,1.18-.93,2.95.72,3.86Z"/><path class="cls-1" d="m149.93,83.02c.3-1.11.5-2.42,1.01-3.59.74-1.69,2.23-1.86,3.46-.47,1.48,1.67,2.15,3.67,1.94,5.9-.13,1.43-1.06,2.28-2.57,2.53-1.46.24-2.71-.32-3.23-1.62-.31-.79-.39-1.68-.62-2.74Zm4.91,2.91c1.37-1.26,1.18-3.07-.33-3.91-1.23,1.19-1.12,2.77.33,3.91Z"/><path class="cls-1" d="m133.91,74.06c-5.54.75-4.2.31-7.54,4-.37-1.4.31-2.98,1.74-4.01,1.57-1.14,3.95-1.13,5.8,0Z"/><path class="cls-1" d="m156.52,71.45c-2.6-2.29-5.39-2.7-8.5-1.04.75-1.82,3.56-2.79,5.25-2.36,1.77.45,3.08,1.71,3.25,3.41Z"/><path class="cls-1" d="m210.42,107.16c-1.86-1.3-2.77-3.19-3.07-5.35-.39-2.73.77-4.81,3-6.33,1.64-1.12,3.5-1.64,5.52-2.03.07.2.14.4.21.6,1.73-.13,3.46-.25,5.15-.38.9,1.69,2.88,1.72,4.09,3.01-.29.22-.54.41-.9.69,1.08,1.83,1.95,3.8,2.71,6.06-1.3-.38-1.9-1.31-2.7-1.94-.79-.63-1.48-1.37-2.62-1.62v1.21c-.17.04-.32.12-.44.09-.46-.12-.88-.32-1.37.07-.21.17-.65.07-.98.06-.92-.03-1.84-.11-2.76-.13-.53-.01-1.07,0-1.59.1-2.58.46-3.05,1.01-3.21,3.64-.04.66-.07,1.32-.12,2.32-.69-1.35-1.02-2.46-1.05-3.61-.04-1.21.55-2.2,1.7-2.65,1.29-.51,2.65-.86,4-1.29-.03-.1-.1-.3-.2-.6.78,0,1.5-.03,2.22,0,.72.04,1.43.15,2.25.24-.07-.35-.13-.65-.22-1.08,1.5.14,2.84.56,4.15,1.24-.58-1.45-1.55-2.5-2.98-3.1.1-.24.16-.41.31-.76-1.08-.09-2.07-.16-3.13-.25-.03-.06-.11-.22-.29-.56-1.44.35-2.93.71-4.53,1.1-.02-.13-.07-.41-.14-.77-1.62.49-3.05,1.29-4.08,2.63-1.23,1.59-1.38,3.39-.67,5.24.53,1.4,1.16,2.77,1.74,4.15Z"/><path class="cls-1" d="m188.72,98.81c-.08-.23-.14-.4-.25-.73,1.69-.39,3.33-.76,5.04-1.15.02-.13.04-.34.08-.63,2.32-.24,4.62-.21,6.81.78,3.13,1.41,4.68,5.07,3.49,8.29-.42,1.15-.81,2.32-1.65,3.53.31-1.7.62-3.16.83-4.63.49-3.44-1.02-5.75-4.34-6.68-.73-.21-1.51-.27-2.35-.41.03.4.05.66.08.98h-4.42c-.7,1.45-2.39.91-3.19,1.98.12.09.25.2.48.38-1.12.96-1.89,2.12-2.08,3.72,1.24-.79,2.35-1.5,3.61-2.3.08.55.12.86.16,1.16,1.37-.5,2.67-.98,4.2-1.55-.07.43-.1.63-.12.75,1.13,0,2.28-.05,3.42.01,2.33.12,3.35,1.17,3.39,3.48.01.72-.09,1.44-.41,2.17-.02-.43-.03-.86-.05-1.29-.08-1.97-1.23-3.07-3.22-3.15-1.52-.06-2.99.07-4.38.81-.58.31-1.26.45-2.03.72-.02-.35-.04-.55-.05-.8-.48.34-.95.66-1.54,1.08-.23-.44-.41-.79-.63-1.22-.9.52-1.48,1.32-2,2.2-.51.87-1.07,1.7-1.65,2.61-.62-.97-.49-2.31.52-6.62-.34-.08-.69-.16-1.02-.23-.13-.34,1.26-1.72,3.29-3.27Z"/><path class="cls-1" d="m213.06,105.46c.23-.95.33-1.84.66-2.62.52-1.23,1.54-1.42,2.59-.59,1.47,1.17,2.31,2.73,2.56,4.58.2,1.47-.57,2.47-2.06,2.86-1.4.36-2.52-.12-3.06-1.49-.35-.89-.47-1.86-.69-2.74Zm3.91-.38c-.97,1.34-.71,2.47.67,3.24.95-1.13.73-2.31-.67-3.24Z"/><path class="cls-1" d="m193.88,109.1c.07-1.24.55-2.74,1.66-3.98,1.07-1.2,2.25-1.07,3.01.37.77,1.45,1.02,3.02.67,4.64-.37,1.68-1.35,2.37-3.03,2.17-1.53-.18-2.3-1.12-2.31-3.21Zm4.02-.98c-1.3.96-1.42,2.23-.31,3.23,1.31-.98,1.43-2.24.31-3.23Z"/><path class="cls-1" d="m234.83,46.51c.62-.51,1.25-.35,1.84-.11,3.77,1.53,7.25,3.51,9.97,6.6.72.82,1.22,1.85,1.76,2.82.41.73.33,1.48-.08,2.22-1.03,1.84-2.31,3.47-3.99,4.76-1.49,1.14-2.55,1.03-3.8-.37-.35-.4-.67-.83-.93-1.29-2.1-3.68-3.79-7.53-4.73-11.67-.22-.98-.44-1.99-.03-2.95Zm7.5,15.93c.31-.12.51-.15.66-.26,1.78-1.25,3.13-2.87,4.17-4.77.29-.54.19-1.08-.11-1.52-.77-1.11-1.5-2.28-2.45-3.21-2.24-2.19-4.95-3.71-7.82-4.95-.23-.1-.52-.09-.9-.15.05.51.06.89.12,1.26.66,3.67,2.29,6.98,3.86,10.31.35.74.81,1.43,1.3,2.1.33.45.79.81,1.17,1.19Z"/><path class="cls-1" d="m250.74,82.53c-.21.88-.31,1.71-.6,2.47-.45,1.17-1.43,1.63-2.7,1.41-1.41-.24-2.16-.96-2.21-2.27-.07-1.94.66-3.61,2.01-4.97.99-.99,2.12-.8,2.69.48.4.91.55,1.93.81,2.88Zm-1.96,3.14c.96-.78,1.2-1.27,1.14-2.25-.03-.51-.1-.98-.75-1.03-1.29,1.02-1.45,2.16-.39,3.28Z"/></svg>